<svg width="112" height="112" viewBox="0 0 112 112" fill="none" xmlns="http://www.w3.org/2000/svg">
<path d="M49.2036 14.1294C49.4552 16.0919 50.663 16.3994 50.663 16.3994C52.6367 16.5336 51.9434 14.7724 51.9434 14.7724C49.9193 10.7187 44.9822 12.0662 44.9822 12.0662C44.9822 12.0662 48.9297 12.1668 49.2036 14.1294ZM77.8032 21.7C80.6324 17.8252 75.6114 14.8618 75.6114 14.8618C75.942 16.3704 75.942 17.9326 75.6114 19.4411C75.343 23.1146 77.8032 21.7 77.8032 21.7Z" fill="black"/>
<path d="M103.439 25.2673C103.439 25.2673 97.8482 11.1212 77.8424 5.4181C57.8367 -0.285051 42.7066 11.5685 42.7066 11.5685C61.8736 5.4181 65.5136 10.3776 65.5136 10.3776C65.5136 10.3776 68.7901 14.107 71.8038 13.6541C74.8175 13.2012 72.8102 10.2993 72.8102 10.2993C80.0398 11.7419 81.2252 15.9745 83.0032 19.5697C84.7813 23.1649 86.9171 21.3254 88.9524 19.3013C90.9876 17.2773 93.1291 19.7039 93.1291 19.7039C94.9482 22.2231 96.1156 25.1533 96.5273 28.2333C96.939 31.3132 96.5822 34.4472 95.4886 37.3557C91.7816 47.599 98.1837 48.2029 98.1837 48.2029C111.183 45.8825 103.439 25.2673 103.439 25.2673ZM85.989 16.8803C84.9154 17.2214 84.3731 15.298 84.3731 15.298C84.248 15.0438 84.2205 14.7526 84.2957 14.4796C84.371 14.2065 84.5437 13.9705 84.7813 13.8163C86.0113 13.2571 86.4587 14.8451 86.4587 14.8451C86.4587 14.8451 87.0625 16.5616 85.9834 16.8971L85.989 16.8803ZM102.321 32.4298C102.46 32.4309 102.596 32.4654 102.718 32.5303C102.841 32.5953 102.945 32.6888 103.024 32.803C103.102 32.9171 103.152 33.0485 103.169 33.186C103.186 33.3235 103.169 33.463 103.121 33.5928C102.83 34.711 101.639 33.822 101.639 33.822C101.555 33.6909 101.506 33.5402 101.497 33.3845C101.488 33.2289 101.519 33.0735 101.588 32.9335C101.656 32.7935 101.76 32.6736 101.888 32.5853C102.017 32.4971 102.166 32.4435 102.321 32.4298ZM100.806 44.4287C100.806 44.4287 100.303 44.0262 100.806 42.7513C101.222 41.4544 101.527 40.1245 101.717 38.7759C102.355 36.5841 103.736 38.1385 103.736 38.1385C103.736 38.1385 104.714 39.6873 103.233 42.6842C101.751 45.6812 100.806 44.4343 100.806 44.4343V44.4287ZM41.5715 33.548C41.5834 33.548 41.5948 33.5433 41.6032 33.5349C41.6116 33.5265 41.6163 33.5152 41.6163 33.5033C41.6163 33.4914 41.6116 33.4801 41.6032 33.4717C41.5948 33.4633 41.5834 33.4586 41.5715 33.4586C41.5597 33.4586 41.5483 33.4633 41.5399 33.4717C41.5315 33.4801 41.5268 33.4914 41.5268 33.5033C41.5268 33.5152 41.5315 33.5265 41.5399 33.5349C41.5483 33.5433 41.5597 33.548 41.5715 33.548ZM46.5254 37.1824C46.4725 37.2314 46.4144 37.2745 46.3521 37.311C46.345 37.3172 46.34 37.3255 46.3379 37.3348C46.3358 37.344 46.3366 37.3536 46.3404 37.3624C46.3441 37.3711 46.3505 37.3784 46.3586 37.3832C46.3668 37.388 46.3762 37.3902 46.3857 37.3893C47.1237 37.188 46.436 36.6009 46.3857 36.2095C46.3857 36.1256 46.1956 36.2095 46.5981 36.8693C46.6181 36.9228 46.6219 36.9811 46.609 37.0368C46.5961 37.0925 46.567 37.1431 46.5254 37.1824ZM47.2747 35.4547C47.2354 35.6503 47.2354 35.8517 47.2747 36.0474C47.2814 36.0566 47.2903 36.0641 47.3005 36.0693C47.3107 36.0745 47.3219 36.0772 47.3334 36.0772C47.3448 36.0772 47.3561 36.0745 47.3663 36.0693C47.3765 36.0641 47.3854 36.0566 47.3921 36.0474C47.4177 35.8619 47.4177 35.6737 47.3921 35.4882C47.4312 35.3876 47.2859 35.3652 47.2747 35.4547ZM44.9543 35.5162C44.9079 35.7327 44.9334 35.9585 45.027 36.1592C45.0377 36.1693 45.0508 36.1767 45.065 36.1806C45.0793 36.1845 45.0943 36.1848 45.1087 36.1815C45.1231 36.1781 45.1364 36.1713 45.1475 36.1616C45.1586 36.1518 45.1672 36.1395 45.1723 36.1256C45.1876 35.9197 45.1629 35.7128 45.0997 35.5162C45.0923 35.5034 45.0817 35.4928 45.0689 35.4854C45.0562 35.478 45.0417 35.4741 45.027 35.4741C45.0122 35.4741 44.9977 35.478 44.985 35.4854C44.9722 35.4928 44.9616 35.5034 44.9543 35.5162ZM44.3281 35.0465C44.4511 34.9291 44.9878 34.5433 45.0997 34.437C45.2115 34.3308 44.9543 34.1798 44.2498 34.9682C44.1995 35.0185 44.2777 35.1024 44.3281 35.0465ZM47.6996 34.8005C47.5647 34.6153 47.3886 34.4641 47.1852 34.3588C47.1069 34.3252 47.0454 34.465 47.1293 34.4986C47.2132 34.5321 47.7611 35.108 47.6996 34.8005ZM44.5293 38.7032C44.5629 38.7424 44.6188 38.7032 44.5964 38.6529C44.4239 38.4283 44.3297 38.1534 44.3281 37.8701C44.9543 38.5579 45.642 38.3901 45.3736 38.3174C44.9849 38.2317 44.6283 38.0378 44.3448 37.7583C44.205 37.6241 44.1212 38.2224 44.5293 38.7032ZM41.1019 34.219C41.0811 34.219 41.0612 34.2272 41.0465 34.2419C41.0318 34.2566 41.0236 34.2765 41.0236 34.2973C41.0236 34.318 41.0318 34.3379 41.0465 34.3526C41.0612 34.3673 41.0811 34.3755 41.1019 34.3755C41.1226 34.3755 41.1425 34.3673 41.1572 34.3526C41.1719 34.3379 41.1801 34.318 41.1801 34.2973C41.1801 34.2765 41.1719 34.2566 41.1572 34.2419C41.1425 34.2272 41.1226 34.219 41.1019 34.219ZM41.7449 34.8061C41.7686 34.8061 41.7913 34.7966 41.8081 34.7799C41.8249 34.7631 41.8343 34.7403 41.8343 34.7166C41.8343 34.6929 41.8249 34.6701 41.8081 34.6534C41.7913 34.6366 41.7686 34.6272 41.7449 34.6272C41.7211 34.6272 41.6984 34.6366 41.6816 34.6534C41.6648 34.6701 41.6554 34.6929 41.6554 34.7166C41.6554 34.7403 41.6648 34.7631 41.6816 34.7799C41.6984 34.7966 41.7211 34.8061 41.7449 34.8061ZM41.8455 34.0568C41.8634 34.0521 41.8792 34.0416 41.8905 34.0269C41.9018 34.0123 41.9079 33.9943 41.9079 33.9758C41.9079 33.9573 41.9018 33.9393 41.8905 33.9246C41.8792 33.91 41.8634 33.8994 41.8455 33.8947C41.8276 33.8994 41.8118 33.91 41.8005 33.9246C41.7892 33.9393 41.7831 33.9573 41.7831 33.9758C41.7831 33.9943 41.7892 34.0123 41.8005 34.0269C41.8118 34.0416 41.8276 34.0521 41.8455 34.0568ZM42.7345 34.1798C42.7538 34.1749 42.7708 34.1637 42.783 34.148C42.7952 34.1323 42.8018 34.113 42.8018 34.0932C42.8018 34.0733 42.7952 34.054 42.783 34.0383C42.7708 34.0226 42.7538 34.0114 42.7345 34.0065C42.7153 34.0114 42.6982 34.0226 42.686 34.0383C42.6739 34.054 42.6673 34.0733 42.6673 34.0932C42.6673 34.113 42.6739 34.1323 42.686 34.148C42.6982 34.1637 42.7153 34.1749 42.7345 34.1798ZM42.9358 35.7007C43.098 35.6448 42.8855 35.4603 42.8408 35.6056C42.824 35.6504 42.8799 35.7231 42.9358 35.7007ZM42.6674 35.0353C42.6808 35.0353 42.6936 35.03 42.703 35.0206C42.7125 35.0111 42.7178 34.9983 42.7178 34.985C42.7178 34.9717 42.7125 34.9589 42.703 34.9494C42.6936 34.94 42.6808 34.9347 42.6674 34.9347C42.6541 34.9347 42.6413 34.94 42.6318 34.9494C42.6224 34.9589 42.6171 34.9717 42.6171 34.985C42.6171 34.9983 42.6224 35.0111 42.6318 35.0206C42.6413 35.03 42.6541 35.0353 42.6674 35.0353ZM41.0515 35.2254C41.0367 35.2254 41.0225 35.2313 41.012 35.2418C41.0015 35.2523 40.9956 35.2665 40.9956 35.2813C40.9956 35.2962 41.0015 35.3104 41.012 35.3209C41.0225 35.3314 41.0367 35.3373 41.0515 35.3373C41.0664 35.3373 41.0806 35.3314 41.0911 35.3209C41.1016 35.3104 41.1075 35.2962 41.1075 35.2813C41.1075 35.2665 41.1016 35.2523 41.0911 35.2418C41.0806 35.2313 41.0664 35.2254 41.0515 35.2254ZM41.6386 37.5011C41.6248 37.5052 41.6126 37.5137 41.604 37.5253C41.5954 37.5369 41.5907 37.5509 41.5907 37.5654C41.5907 37.5798 41.5954 37.5939 41.604 37.6055C41.6126 37.6171 41.6248 37.6256 41.6386 37.6297C41.6525 37.6256 41.6646 37.6171 41.6733 37.6055C41.6819 37.5939 41.6866 37.5798 41.6866 37.5654C41.6866 37.5509 41.6819 37.5369 41.6733 37.5253C41.6646 37.5137 41.6525 37.5052 41.6386 37.5011ZM40.9173 35.9914C40.8936 35.9914 40.8709 36.0009 40.8541 36.0176C40.8373 36.0344 40.8279 36.0572 40.8279 36.0809C40.8279 36.1046 40.8373 36.1274 40.8541 36.1442C40.8709 36.1609 40.8936 36.1704 40.9173 36.1704C40.9411 36.1704 40.9638 36.1609 40.9806 36.1442C40.9974 36.1274 41.0068 36.1046 41.0068 36.0809C41.0068 36.0572 40.9974 36.0344 40.9806 36.0176C40.9638 36.0009 40.9411 35.9914 40.9173 35.9914ZM41.7449 35.2254C41.7332 35.2222 41.721 35.2218 41.7092 35.2241C41.6974 35.2264 41.6863 35.2314 41.6767 35.2387C41.6671 35.246 41.6593 35.2554 41.654 35.2662C41.6486 35.277 41.6459 35.2889 41.6459 35.3009C41.6459 35.313 41.6486 35.3248 41.654 35.3356C41.6593 35.3464 41.6671 35.3559 41.6767 35.3632C41.6863 35.3705 41.6974 35.3755 41.7092 35.3778C41.721 35.38 41.7332 35.3796 41.7449 35.3764C41.7614 35.3718 41.776 35.362 41.7864 35.3484C41.7968 35.3347 41.8024 35.3181 41.8024 35.3009C41.8024 35.2838 41.7968 35.2671 41.7864 35.2535C41.776 35.2398 41.7614 35.23 41.7449 35.2254ZM42.3655 34.7558C42.3848 34.7558 42.4033 34.7481 42.4169 34.7345C42.4305 34.7208 42.4382 34.7023 42.4382 34.6831C42.4382 34.6638 42.4305 34.6453 42.4169 34.6317C42.4033 34.618 42.3848 34.6104 42.3655 34.6104C42.3462 34.6104 42.3277 34.618 42.3141 34.6317C42.3005 34.6453 42.2928 34.6638 42.2928 34.6831C42.2928 34.7023 42.3005 34.7208 42.3141 34.7345C42.3277 34.7481 42.3462 34.7558 42.3655 34.7558ZM34.7669 53.386C34.772 53.3602 34.772 53.3336 34.7669 53.3078C34.7054 52.7486 33.8052 53.2295 34.2078 53.688C34.2458 53.7259 34.2946 53.7513 34.3475 53.7607C34.4012 53.7725 34.4568 53.7714 34.5099 53.7575C34.5631 53.7435 34.6121 53.7172 34.6531 53.6806C34.694 53.6441 34.7257 53.5983 34.7455 53.5471C34.7653 53.4958 34.7726 53.4406 34.7669 53.386ZM35.4155 50.2437C35.4565 50.2844 35.5079 50.3132 35.564 50.327C35.6201 50.3408 35.679 50.3391 35.7342 50.322C35.778 50.3068 35.8181 50.2826 35.8519 50.2509C35.8857 50.2192 35.9124 50.1807 35.9303 50.138C35.9483 50.0952 35.957 50.0492 35.956 50.0029C35.9549 49.9566 35.9441 49.911 35.9243 49.8691C35.8237 49.4497 35.0241 49.8355 35.4155 50.2437ZM36.7071 52.1783C36.7414 52.0863 36.7414 51.9851 36.7071 51.8932C35.997 51.2725 36.0529 52.9891 36.7071 52.1783ZM31.4121 54.7C31.7644 54.9516 32.0998 54.6049 31.7923 54.2415C31.6749 54.1017 30.9872 54.3813 31.4121 54.7ZM34.5992 56.0251C33.8723 55.4995 33.766 57.0763 34.5265 56.5843C34.6018 56.5145 34.6516 56.4215 34.6678 56.3202C34.6841 56.2188 34.6658 56.1149 34.6159 56.0251H34.5992ZM36.7686 47.4369C36.6008 47.7835 37.1544 48.0855 37.283 47.5487C37.283 47.4257 37.283 47.2635 36.9978 47.2412C36.9447 47.2478 36.8946 47.2699 36.8539 47.3047C36.8131 47.3394 36.7835 47.3854 36.7686 47.4369ZM36.3436 45.2898C36.3976 45.3195 36.4596 45.3314 36.5207 45.3236C36.5818 45.3158 36.6388 45.2888 36.6836 45.2465C36.7284 45.2043 36.7586 45.1488 36.7698 45.0883C36.7811 45.0277 36.7728 44.9651 36.7462 44.9096C36.5785 44.5853 35.969 44.9543 36.3436 45.2898ZM37.4004 42.9247C37.4004 43.2434 37.9931 43.1987 37.9595 42.8352C37.9592 42.7986 37.9498 42.7626 37.9322 42.7304C37.9147 42.6982 37.8895 42.6709 37.8589 42.6507C37.7303 42.4941 37.255 42.6116 37.4004 42.9247ZM39.827 39.6649C40.1457 39.4748 39.9389 39.0107 39.6313 39.1785C39.2288 39.2176 39.4636 39.8774 39.827 39.6649ZM37.652 37.188C37.6545 37.1694 37.6545 37.1506 37.652 37.1321C37.6607 37.0881 37.6581 37.0426 37.6447 36.9999C37.6313 36.9571 37.6073 36.9184 37.5751 36.8872C37.5428 36.8561 37.5033 36.8335 37.4601 36.8216C37.4169 36.8097 37.3714 36.8088 37.3277 36.819C37.2821 36.8309 37.2405 36.8549 37.2074 36.8884C37.1742 36.9219 37.1507 36.9637 37.1392 37.0095C37.1278 37.0552 37.1289 37.1032 37.1424 37.1484C37.1559 37.1936 37.1813 37.2343 37.2159 37.2663C37.2373 37.312 37.2732 37.3495 37.3181 37.3727C37.363 37.3959 37.4143 37.4037 37.464 37.3948C37.5138 37.3858 37.5592 37.3607 37.5932 37.3233C37.6272 37.2859 37.6479 37.2383 37.652 37.188ZM34.1071 34.6663C33.8443 34.3252 33.4194 34.7502 33.6822 35.0297C33.7059 35.0515 33.7322 35.0702 33.7605 35.0856C33.945 35.2646 34.3475 34.9459 34.1071 34.6663ZM34.4538 31.2612C34.3196 31.3898 34.3364 31.742 34.5712 31.77C34.6255 31.7949 34.6865 31.8013 34.7449 31.7883C34.8032 31.7754 34.8557 31.7436 34.8944 31.698C34.933 31.6524 34.9557 31.5954 34.9589 31.5357C34.9621 31.476 34.9458 31.4169 34.9123 31.3674C34.8919 31.3275 34.863 31.2925 34.8277 31.2649C34.7924 31.2373 34.7514 31.2177 34.7078 31.2076C34.6641 31.1975 34.6187 31.197 34.5748 31.2063C34.531 31.2155 34.4896 31.2343 34.4538 31.2612ZM35.3875 27.7498C35.3272 27.7201 35.2584 27.7123 35.1929 27.7276C35.1274 27.743 35.0692 27.7806 35.0283 27.834C34.9874 27.8874 34.9663 27.9534 34.9686 28.0206C34.9709 28.0878 34.9964 28.1522 35.0409 28.2027C35.0549 28.2593 35.0834 28.3112 35.1236 28.3533C35.1638 28.3955 35.2143 28.4264 35.2701 28.4432C35.3061 28.4478 35.3427 28.4453 35.3778 28.4357C35.4128 28.4261 35.4456 28.4097 35.4742 28.3873C35.5028 28.3649 35.5267 28.3371 35.5445 28.3054C35.5622 28.2737 35.5735 28.2388 35.5776 28.2027C35.5897 28.1476 35.5885 28.0904 35.5739 28.0359C35.5593 27.9815 35.5318 27.9313 35.4938 27.8896C35.4772 27.8313 35.4393 27.7814 35.3875 27.7498ZM33.3635 29.7236C33.4977 29.293 32.7708 29.2483 32.7708 29.6509C32.7721 29.7242 32.801 29.7943 32.8518 29.8472C32.9026 29.9001 32.9716 29.9318 33.0448 29.936C33.1141 29.9419 33.1834 29.9241 33.2412 29.8855C33.2991 29.8469 33.3422 29.7898 33.3635 29.7236ZM33.0895 51.485C33.3243 51.8932 33.8387 51.1607 33.2349 51.1215C33.1398 51.1831 32.9889 51.2334 33.0895 51.485ZM46.7379 53.4587C46.795 53.4493 46.8482 53.424 46.8915 53.3857C46.9348 53.3474 46.9665 53.2977 46.9828 53.2422C46.9992 53.1868 46.9995 53.1278 46.9839 53.0722C46.9683 53.0165 46.9373 52.9664 46.8945 52.9275C46.6149 52.6256 46.1452 53.4308 46.7379 53.4587ZM47.3809 49.2708C47.448 49.1366 47.448 48.9633 47.2803 48.9074C46.4751 48.7844 46.8945 50.0145 47.3809 49.2708ZM46.0614 45.9664C46.0063 45.9524 45.9487 45.9524 45.8936 45.9664C45.0326 46.5646 46.8833 46.7547 46.0614 45.9664ZM48.0854 45.0494C48.2867 44.8705 48.2979 44.4567 47.9065 44.4902C47.5151 44.5238 47.6157 45.3289 48.0854 45.0494ZM49.131 47.1349C49.1258 47.0983 49.1126 47.0633 49.0923 47.0324C49.072 47.0014 49.0451 46.9754 49.0136 46.956C48.9724 46.9269 48.9233 46.9111 48.8728 46.9108C48.8224 46.9105 48.7731 46.9258 48.7316 46.9544C48.6901 46.9831 48.6584 47.0239 48.6408 47.0712C48.6233 47.1184 48.6207 47.17 48.6334 47.2188C48.6445 47.2848 48.6814 47.3437 48.7359 47.3825C48.7904 47.4213 48.8581 47.4368 48.9241 47.4257C48.9901 47.4146 49.049 47.3777 49.0878 47.3232C49.1266 47.2686 49.1421 47.2009 49.131 47.1349ZM50.7301 48.8459C50.7844 48.8325 50.8329 48.8019 50.8683 48.7585C50.9036 48.7151 50.9238 48.6614 50.9258 48.6055C50.9429 48.5469 50.9359 48.4839 50.9066 48.4305C50.8772 48.377 50.8278 48.3373 50.7693 48.3203C50.7107 48.3032 50.6477 48.3102 50.5942 48.3395C50.5408 48.3689 50.5012 48.4183 50.4841 48.4769C50.4002 48.5607 50.445 48.9186 50.7301 48.8459ZM50.2604 51.4738C50.2036 51.5 50.158 51.5456 50.1318 51.6024C49.7964 52.743 51.2892 51.4906 50.2604 51.4738ZM54.3141 51.6863C54.3061 51.625 54.2762 51.5686 54.23 51.5276C54.1838 51.4865 54.1244 51.4634 54.0625 51.4626C53.1567 51.7142 54.1576 52.5585 54.3141 51.6863ZM55.1249 48.4433C55.3653 48.5551 55.561 48.0799 55.2759 47.9513C55.1193 47.8283 54.7838 48.1022 54.9907 48.3762C55.0251 48.415 55.0732 48.4391 55.1249 48.4433ZM57.2496 49.3379C57.5012 49.3379 57.6634 48.7788 57.2496 48.7788C57.1322 48.7788 57.0036 48.8459 56.9756 49.0583C56.9723 49.0954 56.9771 49.1328 56.9896 49.1678C57.0021 49.2029 57.022 49.2348 57.0481 49.2614C57.0741 49.2879 57.1056 49.3085 57.1404 49.3218C57.1752 49.335 57.2125 49.3405 57.2496 49.3379ZM49.3099 57.0651C49.3841 57.0577 49.4522 57.0211 49.4994 56.9635C49.5466 56.9058 49.5689 56.8317 49.5615 56.7576C49.5541 56.6835 49.5175 56.6153 49.4599 56.5681C49.4022 56.5209 49.3281 56.4986 49.254 56.506C49.1799 56.5134 49.1117 56.55 49.0645 56.6076C49.0173 56.6653 48.995 56.7394 49.0024 56.8135C49.0098 56.8877 49.0464 56.9558 49.104 57.003C49.1617 57.0502 49.2358 57.0725 49.3099 57.0651ZM46.833 60.241C47.0734 60.4367 47.5431 60.0621 47.2747 59.7266C47.0902 59.4079 46.5031 59.8608 46.833 60.241ZM50.1151 61.0685C50.174 61.0298 50.2178 60.972 50.2392 60.9048C50.2605 60.8376 50.2582 60.7651 50.2325 60.6995C50.2325 60.5373 49.8523 60.2857 49.746 60.6492C49.7122 60.7023 49.6965 60.765 49.7013 60.8278C49.7062 60.8907 49.7313 60.9502 49.7729 60.9975C49.8146 61.0449 49.8704 61.0774 49.9322 61.0902C49.9939 61.103 50.0581 61.0954 50.1151 61.0685ZM46.4472 56.2376C46.3801 56.1985 46.3521 56.1929 46.1844 56.2376C46.0166 56.2823 45.9999 56.478 46.1844 56.6458C46.3689 56.8135 46.8553 56.4724 46.4472 56.2376ZM66.5032 39.8494C66.5171 39.7598 66.5089 39.6681 66.4794 39.5823C66.4499 39.4965 66.4 39.4192 66.334 39.357C66.2679 39.2948 66.1877 39.2496 66.1003 39.2254C66.0129 39.2011 65.9209 39.1984 65.8323 39.2176C65.7199 39.2605 65.628 39.3445 65.5751 39.4525C65.5305 39.4954 65.4962 39.5479 65.4749 39.606C65.4536 39.6642 65.4458 39.7264 65.4521 39.7879C65.2955 40.4086 66.3523 40.6155 66.5032 39.8494ZM67.9066 41.6834C68.5664 42.1475 69.3884 41.1802 68.9522 40.6043C68.849 40.4584 68.699 40.3522 68.5271 40.3034C68.3552 40.2546 68.1718 40.2661 68.0073 40.3359C67.5432 40.5819 67.3475 41.4038 67.9066 41.6834ZM68.4378 44.8369C68.7957 45.6365 70.1152 44.4008 69.2374 43.8472C68.6615 43.4782 68.1583 44.3728 68.4378 44.8369ZM66.794 47.7891C66.8924 47.8001 66.992 47.7903 67.0863 47.7602C67.1807 47.7301 67.2676 47.6804 67.3415 47.6145C67.4153 47.5485 67.4745 47.4678 67.515 47.3774C67.5555 47.2871 67.5766 47.1892 67.5768 47.0902C67.834 46.4081 67.0847 46.0055 66.6318 46.1173C65.9441 46.2851 66.1118 47.873 66.794 47.7891ZM63.7914 48.5775C63.9062 48.6664 64.0473 48.7145 64.1924 48.7144C64.3376 48.7143 64.4786 48.666 64.5932 48.577C64.7078 48.4879 64.7896 48.3633 64.8257 48.2227C64.8617 48.0821 64.85 47.9335 64.7923 47.8003C64.4736 47.0567 63.4504 47.3642 63.579 48.242C63.6215 48.3694 63.6944 48.4846 63.7914 48.5775ZM62.0637 45.9831C61.9944 45.9758 61.9243 45.9829 61.8579 46.0041C61.7915 46.0253 61.7302 46.06 61.6779 46.1061C61.3872 46.3633 61.3816 47.0734 61.8233 47.1517C62.3824 47.381 62.8968 46.4975 62.4216 46.1285C62.3174 46.0489 62.1939 45.9987 62.0637 45.9831Z" fill="black"/>
<path d="M60.638 83.4618C57.6802 83.1263 54.5434 82.8691 51.6136 83.5736L46.8777 73.0339C47.996 71.3901 48.6893 68.8181 49.1646 66.5704C51.5744 66.9058 54.0011 65.9609 53.1512 63.702C52.6424 62.3769 51.8093 61.0182 51.4123 59.6539C50.9994 58.1513 50.837 56.5909 50.9314 55.0355C51.2105 55.1457 51.5045 55.2135 51.8037 55.2368C52.8772 55.3095 53.7047 54.6776 54.4819 54.0346C56.3001 52.5014 57.7974 50.624 58.8879 48.5104C58.7688 48.2174 58.6286 47.9333 58.4685 47.6605C58.9703 47.4831 59.4403 47.2264 59.8608 46.9001C60.0732 49.7517 62.5726 51.5129 64.4289 51.1775C67.0289 50.7134 68.7118 49.008 70.3333 46.9057C71.1284 45.9655 71.654 44.8274 71.8542 43.6124C72.1058 41.5772 71.7647 38.7256 69.7854 37.6185C69.278 37.342 68.7119 37.1906 68.1342 37.177C67.5565 37.1634 66.984 37.2879 66.4641 37.5402C65.2382 38.0583 64.2617 39.0327 63.7412 40.2576C62.7683 38.7144 59.352 39.7656 60.2745 43.0533C59.6407 43.2936 59.0961 43.723 58.7146 44.2834C58.4918 44.6 58.2451 44.8991 57.9765 45.178C57.7528 45.3793 57.4677 45.4911 57.2329 45.6812C57.1883 45.6458 57.1487 45.6044 57.1154 45.5582H57.0427C55.3836 46.5446 53.8369 47.7089 52.4299 49.0304C51.1048 46.2907 48.885 42.6339 46.4081 41.0516C46.3745 40.5316 46.3298 39.9333 46.3354 39.9333C47.0567 39.5196 48.0128 39.4413 48.3203 37.6968C48.5365 36.2942 48.4565 34.8619 48.0855 33.4921C49.6231 32.933 49.925 30.7747 49.5112 31.222C49.3145 31.4667 49.037 31.6333 48.7285 31.6917C49.1591 31.1554 49.3802 30.4809 49.3503 29.7937C49.3205 29.1065 49.0419 28.4536 48.5663 27.9567C48.5466 27.9326 48.5196 27.9154 48.4893 27.9078C48.459 27.9002 48.4271 27.9025 48.3983 27.9144C48.3694 27.9263 48.3452 27.9472 48.3292 27.9739C48.3131 28.0007 48.3061 28.0319 48.3091 28.0629C48.3731 28.4223 48.3016 28.7927 48.1085 29.1025C47.9154 29.4123 47.6144 29.6395 47.2635 29.7403V29.1197C47.2645 29.0968 47.2577 29.0742 47.2441 29.0557C47.2305 29.0372 47.2109 29.0239 47.1887 29.018C47.1665 29.0121 47.143 29.014 47.122 29.0234C47.1011 29.0327 47.0839 29.049 47.0734 29.0694C46.9232 29.3247 46.7237 29.5476 46.4867 29.7251C46.2496 29.9027 45.9796 30.0314 45.6924 30.1038C45.7698 29.837 45.8332 29.5664 45.8825 29.293C45.8852 29.2636 45.8798 29.2341 45.867 29.2075C45.8541 29.1809 45.8342 29.1583 45.8095 29.1422C45.7848 29.1261 45.7561 29.1171 45.7266 29.116C45.6971 29.115 45.6678 29.1221 45.642 29.1365L44.3672 29.9081C44.3672 29.9081 44.5685 29.3937 43.9591 29.4384C43.9591 29.4384 41.9741 31.2835 41.264 31.2444C40.7552 31.2444 40.5372 32.1726 41.3479 32.9218C39.855 34.0401 40.2912 37.0985 41.7337 38.1217C41.3703 38.6809 41.3144 38.7424 41.3926 38.7591C41.5928 38.8255 41.8024 38.8595 42.0133 38.8598C41.7769 38.9242 41.551 39.0221 41.3423 39.1505C39.9096 37.3871 38.3571 35.7244 36.6959 34.1743C36.5673 30.21 36.4276 26.5589 36.0809 26.4303C35.9859 26.3975 35.8888 26.3713 35.7901 26.352C36.12 25.2785 35.7901 23.752 34.6719 23.2768C38.7424 18.7478 39.2735 18.6136 39.0722 17.7749C39.8047 18.239 40.7496 17.7134 41.2025 17.0984C43.1427 16.3827 42.8184 11.8984 42.2202 12.5079C41.9965 12.7371 42.1587 13.5647 40.9174 13.5982C40.2185 13.5982 39.4692 13.3578 39.1002 13.6821C37.7024 13.7548 37.1768 16.0416 37.8589 16.9642C37.6336 17.0084 37.4202 17.0999 37.2327 17.2326L33.2796 22.3654C33.1343 22.3654 32.4969 21.974 32.3291 22.6114C32.2938 22.7452 32.2938 22.8858 32.3291 23.0196C32.1632 22.9579 31.9806 22.9579 31.8147 23.0196C31.6948 23.0544 31.59 23.1284 31.5171 23.2298C31.4441 23.3311 31.4072 23.4539 31.4121 23.5787C31.4085 23.671 31.4318 23.7623 31.4792 23.8415C31.3978 23.8496 31.3215 23.8849 31.2627 23.9417C31.2038 23.9985 31.1659 24.0735 31.1549 24.1546C31.1357 24.2606 31.1398 24.3695 31.1668 24.4738C31.1939 24.578 31.2432 24.6752 31.3115 24.7585L26.6316 29.8522C26.6316 29.8522 25.9774 30.5735 26.3296 30.9257C26.3296 30.9257 26.6707 31.2668 27.4479 30.4896L32.7093 25.6084C32.7104 25.774 32.7554 25.9364 32.8399 26.0789C32.9244 26.2213 33.0453 26.3388 33.1902 26.4191C33.0497 26.4238 32.9097 26.4369 32.7708 26.4582C32.7373 26.4582 32.7708 26.5142 32.7708 26.5142C35.9747 26.4191 36.0641 26.5757 36.0809 26.5701C36.1256 27.8113 36.5953 32.8603 36.545 34.1407C36.5427 34.1537 36.5427 34.1669 36.545 34.1799C36.545 34.3029 39.1673 36.791 41.2025 39.212C40.5493 39.713 40.0083 40.3454 39.6146 41.0684C38.0546 43.6515 37.4899 51.5353 37.4619 54.1353C37.0146 58.2002 34.1072 59.1171 33.1902 58.0101C32.514 57.2508 31.7649 56.5597 30.9536 55.9469C30.361 55.2759 29.416 54.3422 28.678 54.6049C29.9304 53.4308 32.139 52.9275 33.4865 50.2213C35.6392 45.8881 35.5218 40.0843 35.2981 42.5836C33.4298 40.4 32.2023 37.742 31.7513 34.9039C31.3003 32.0657 31.6435 29.1581 32.7429 26.503C32.7429 26.4471 32.6646 26.4023 32.6422 26.4638C28.5829 35.6783 35.2254 42.7234 35.2534 42.7793C35.0976 44.2422 34.8132 45.6885 34.4035 47.1014C32.8771 52.5585 31.4625 52.2175 28.8793 54.1856C28.5088 54.4185 28.2135 54.7535 28.029 55.1503C27.8445 55.5471 27.7786 55.9888 27.8393 56.4221C20.5091 59.2178 21.9852 65.5472 21.9852 65.5472L23.9477 77.781C18.1551 80.0622 12.4352 82.5168 6.81033 85.1895C6.77119 85.1895 6.78237 85.2901 6.83828 85.2845C11.015 84.9379 15.0128 86.017 18.6919 87.8621C17.6646 88.127 16.6604 88.4748 15.6893 88.9021C14.722 89.2823 13.7659 89.7017 12.8266 90.149C10.8241 91.1153 8.90039 92.237 7.07312 93.5038C6.99484 93.5038 7.02839 93.6324 7.07312 93.6156C10.2602 93.0565 12.6141 92.6539 15.6726 92.967C12.67 94.5829 6.58108 97.96 6.53076 97.96L6.8942 99.3523H30.6349C30.6349 99.3523 31.0822 97.6413 32.3403 99.5759C32.3403 99.5759 42.2202 101.013 53.2239 109.008V107.393C53.2239 107.393 45.396 100.51 31.6414 98.0271C35.6951 97.8259 39.9557 97.1996 43.9423 98.4018C50.0648 100.258 54.4316 103.434 54.6161 103.289C61.5941 96.853 59.173 99.4082 65.9218 93.3919C66.8329 93.7985 67.7663 94.1532 68.7174 94.4543C67.9346 94.9687 61.5829 99.2293 53.4252 107.314L53.5146 109.02C53.5146 109.02 62.1644 99.5648 68.7957 95.4887C68.7957 95.4887 68.7957 94.3704 68.7622 94.3704C67.8508 94.0182 66.9226 93.6268 65.9665 93.3528C67.9123 91.6307 68.6503 91.4685 68.3484 91.3399C67.106 90.7124 65.8205 90.1743 64.5016 89.7296C66.2684 88.2926 70.0314 85.4131 69.9419 85.3796C66.2628 84.06 65.9777 84.0712 60.638 83.4618ZM38.9716 13.8107C38.8978 13.9158 38.8521 14.038 38.8387 14.1657C38.8253 14.2934 38.8447 14.4224 38.8951 14.5405C38.9455 14.6586 39.0252 14.7619 39.1266 14.8407C39.228 14.9194 39.3479 14.9709 39.4748 14.9904C40.5204 14.9904 39.335 15.6055 39.2903 15.7341C39.275 15.8016 39.2832 15.8722 39.3138 15.9343C39.3443 15.9964 39.3952 16.0461 39.458 16.0752C39.7768 16.2261 40.0507 15.913 40.3191 15.8515C40.4869 15.8124 40.6993 15.8906 40.7161 16.0584C40.7329 16.2261 40.4924 16.3715 40.4086 16.556C40.3748 16.6433 40.3726 16.7396 40.4022 16.8284C40.4318 16.9172 40.4914 16.9929 40.5707 17.0425C40.6679 17.103 40.7805 17.134 40.895 17.1319C40.686 17.414 40.3868 17.6161 40.0471 17.7046C39.7073 17.7931 39.3476 17.7627 39.0275 17.6184C38.969 17.4119 38.8431 17.2309 38.6698 17.1043C38.4965 16.9776 38.2859 16.9126 38.0714 16.9194C37.6073 16.4665 37.2774 14.3866 38.9716 13.8107ZM33.0392 22.4213C33.1017 22.4414 33.1651 22.4582 33.2293 22.4716C33.5089 22.6226 33.4865 23.0811 33.4697 23.2376C33.2852 23.2376 33.2237 23.4501 33.2014 23.5955C32.9386 23.5228 32.8323 23.5508 32.6422 23.2712C32.6035 23.2225 32.5698 23.17 32.5416 23.1146C32.29 22.6785 32.4913 22.2312 33.0392 22.4213ZM31.8706 23.1146C32.0644 23.0808 32.2639 23.1207 32.4298 23.2265C32.4942 23.3689 32.599 23.4893 32.7312 23.5727C32.8634 23.6562 33.0171 23.6991 33.1734 23.6961C33.166 23.7837 33.1795 23.8719 33.2125 23.9533C33.1618 24.0531 33.0793 24.133 32.9781 24.1806C32.8768 24.2282 32.7626 24.2407 32.6534 24.2161C32.4705 24.2343 32.2858 24.2116 32.1127 24.1497C31.9397 24.0879 31.7825 23.9883 31.6526 23.8583C31.6043 23.7992 31.5711 23.7292 31.556 23.6544C31.5408 23.5796 31.5441 23.5022 31.5656 23.429C31.5871 23.3557 31.6261 23.2888 31.6792 23.2341C31.7324 23.1793 31.7981 23.1383 31.8706 23.1146ZM31.4233 24.7305C31.333 24.6257 31.2799 24.494 31.2724 24.3559C31.2724 24.1714 31.3395 23.8974 31.5799 23.9701C31.7109 24.0979 31.867 24.1972 32.0383 24.2616C32.2096 24.3261 32.3924 24.3544 32.5751 24.3447C32.5385 24.4563 32.4764 24.5578 32.3937 24.6411C32.311 24.7245 32.21 24.7874 32.0987 24.8248C31.9874 24.8623 31.8689 24.8733 31.7526 24.8569C31.6364 24.8405 31.5255 24.7973 31.4289 24.7305H31.4233ZM35.6671 26.3073L33.3523 26.3688C33.1876 26.3044 33.0439 26.1956 32.9373 26.0544C32.8307 25.9133 32.7653 25.7453 32.7485 25.5692L33.7437 24.6522C33.9618 25.2114 34.7278 25.2114 34.493 25.1051C34.2581 24.9989 33.9003 24.9374 33.822 24.5125C33.814 24.4155 33.8441 24.3193 33.9059 24.2441C33.7167 24.1784 33.5378 24.0862 33.3747 23.9701C33.2998 23.867 33.2679 23.7388 33.2857 23.6126C33.3034 23.4865 33.3694 23.3721 33.4697 23.2936H34.5433C35.7342 23.9701 35.7845 25.0548 35.6727 26.3073H35.6671ZM51.6974 86.0114C51.8245 86.4386 51.9795 86.857 52.1615 87.2639C51.6161 87.7856 50.9767 88.1992 50.2773 88.4828C49.5504 87.6329 49.7181 87.8174 49.5504 87.6161C50.3244 87.1641 51.0447 86.6257 51.6974 86.0114ZM52.0162 89.8638C51.5744 90.2664 49.7796 91.7872 49.2205 92.1003C48.9968 91.9382 49.2205 91.4014 49.2932 91.2225C49.7405 90.4509 50.0648 90.5124 50.1039 88.6002C50.7805 88.5499 52.0832 87.5546 52.3405 87.2247C52.6808 87.8353 52.9509 88.4824 53.1456 89.1537C53.0505 89.2152 52.9275 89.2935 52.8493 89.355C52.7595 89.1201 52.6268 88.9039 52.4579 88.7176C52.374 88.617 52.2566 88.4604 52.1056 88.5331C51.9547 88.6058 51.9043 88.8909 51.8876 89.0251C51.8648 89.3095 51.9029 89.5954 51.9994 89.8638H52.0162ZM52.8493 65.2285C52.2901 66.4977 50.4338 66.4697 49.2261 66.2908C49.5895 64.5239 49.7573 63.2827 49.7852 62.936C51.0768 63.0814 52.9946 63.8194 52.8493 65.2285ZM60.6771 40.4533C61.3704 39.609 62.9807 39.2624 63.6125 40.3527C63.617 40.3629 63.624 40.3718 63.6328 40.3786C63.6415 40.3854 63.6519 40.39 63.6629 40.3918C63.6671 40.4 63.6735 40.4069 63.6814 40.4117C63.6893 40.4165 63.6984 40.4191 63.7076 40.4191C63.7168 40.4191 63.7259 40.4165 63.7338 40.4117C63.7417 40.4069 63.7481 40.4 63.7523 40.3918C65.7652 36.3046 71.7591 35.7063 71.6808 42.8911C71.6808 45.1277 70.2047 46.8889 68.7566 48.4433C63.1652 54.426 58.435 48.5999 60.4367 44.3952C60.4448 44.3736 60.4448 44.3497 60.4367 44.3281C60.7434 44.157 61.0788 44.0433 61.4263 43.9926C61.1747 45.2059 63.333 45.273 63.5063 43.8528C63.534 43.5706 63.4642 43.2875 63.3085 43.0504C63.1529 42.8134 62.9208 42.6368 62.6508 42.5501C62.4062 42.4911 62.1481 42.5315 61.9333 42.6626C61.7184 42.7936 61.5642 43.0045 61.5046 43.249C61.1626 43.0163 60.7441 42.9242 60.336 42.9918C60.241 42.1139 60.1012 41.1914 60.7051 40.4533H60.6771ZM61.5438 43.3217C61.6098 43.0985 61.7618 42.9108 61.9662 42.7996C62.1707 42.6885 62.4109 42.6631 62.6341 42.729C62.8323 42.7974 63.0056 42.9233 63.1321 43.0906C63.2585 43.2579 63.3324 43.459 63.3442 43.6683C63.3833 44.7866 61.4152 45.2507 61.4767 43.9982H61.5326C61.5773 43.9982 61.6388 43.9255 61.6444 43.9087C61.6884 43.8139 61.7049 43.7086 61.6921 43.6048C61.6792 43.501 61.6375 43.4029 61.5717 43.3217H61.5438ZM58.6251 44.4791C58.9848 43.9438 59.4731 43.5074 60.0453 43.2098C60.4758 43.0197 61.7227 43.0365 61.5046 43.8584C61.0969 43.8764 60.7054 44.0232 60.3864 44.2778C60.1963 44.2778 59.7881 45.6924 59.8272 46.7547C59.3743 47.0623 58.8767 47.3139 58.4238 47.6158C56.7408 44.4343 56.9142 46.6541 58.653 44.4791H58.6251ZM48.0016 33.5145C48.7117 38.9492 47.7723 39.0275 46.2459 39.7768C46.2337 39.7831 46.2236 39.7928 46.2166 39.8046C46.2097 39.8165 46.2063 39.8301 46.2068 39.8439C46.2008 40.4714 46.2325 41.0988 46.3018 41.7225C45.7217 42.3967 45.0939 43.0283 44.4231 43.6124C43.2873 42.7858 42.4575 41.606 42.0636 40.2576C42.1404 39.7844 42.1555 39.3033 42.1083 38.8262C42.455 38.8262 42.8184 38.7759 43.1204 38.7591C43.1819 38.7591 43.2098 38.6305 43.2042 38.6194C42.9964 38.0341 42.7285 37.4719 42.4047 36.942C42.4047 36.9979 42.2928 37.1377 42.2649 37.1936C42.2598 37.1906 42.254 37.1891 42.2481 37.1891C42.2422 37.1891 42.2364 37.1906 42.2313 37.1936C41.2305 37.1936 41.0572 35.7398 41.9574 35.6895C42.5165 35.656 42.5165 36.2766 42.9247 36.4443C42.9299 36.4468 42.9356 36.4481 42.9414 36.4481C42.9472 36.4481 42.953 36.4468 42.9582 36.4443C43.2322 36.5114 43.4614 36.2654 43.5173 35.9747C43.59 35.4882 43.098 34.8564 43.6124 33.9506C45.4967 34.314 46.8442 33.8052 48.0072 33.5145H48.0016ZM41.4038 32.9162C42.0167 33.3891 42.7272 33.7196 43.4838 33.8835C43.0421 34.5153 43.4335 35.3373 43.4335 35.7175C43.4261 35.8583 43.3729 35.993 43.2821 36.1009C43.1913 36.2089 43.0678 36.2843 42.9303 36.3157C42.6786 36.0753 42.606 35.7175 42.2481 35.5833C42.0932 35.5285 41.9247 35.5251 41.7677 35.5734C41.6106 35.6217 41.4732 35.7193 41.3759 35.8517C41.2949 35.9971 41.2544 36.1616 41.2583 36.328C41.2623 36.4945 41.3107 36.6568 41.3986 36.7982C41.4864 36.9397 41.6104 37.055 41.7578 37.1324C41.9052 37.2098 42.0707 37.2463 42.2369 37.2383C42.1027 37.4899 41.9518 37.7248 41.8008 37.9652C41.1282 37.318 40.7163 36.4466 40.6431 35.5161C40.5699 34.5856 40.8406 33.6605 41.4038 32.9162ZM41.4933 38.6417C41.8376 38.1889 42.1496 37.7125 42.427 37.2159C42.5053 37.4172 42.9191 38.3342 43.0533 38.5746C42.7681 38.5802 41.7225 38.6082 41.4933 38.6417ZM41.9965 38.9772C41.9965 39.1114 41.8623 40.1961 41.9965 40.2744C42.1384 40.9864 42.4212 41.6628 42.8284 42.2639C43.2355 42.865 43.7587 43.3786 44.3672 43.7746C45.1513 43.2177 45.8404 42.538 46.4081 41.7617C46.4179 41.756 46.4262 41.7479 46.4321 41.7381C46.438 41.7283 46.4412 41.7172 46.4416 41.7058C46.4416 41.6051 46.4416 41.3982 46.4081 41.1466C49.0583 43.5229 50.0201 44.5629 52.3013 49.0695C52.3405 49.1422 52.4299 49.1031 52.4411 49.036C53.9955 47.9177 55.3933 46.5814 57.0539 45.5917C57.6131 46.5646 58.1722 47.4928 58.7313 48.4713C57.4118 50.8811 54.6441 54.3925 52.7039 54.9963C51.3508 55.4157 49.8188 54.2862 49.3826 53.8781L49.3491 53.9116C49.7642 54.3858 50.2749 54.7668 50.8476 55.0299C50.3835 57.1602 51.1495 59.5589 51.9099 61.5158C52.2901 62.4887 53.1456 63.7523 52.9667 64.8706C52.8213 63.3162 50.8587 62.2595 43.6795 61.8625L44.1715 58.1498C44.5182 56.355 43.8025 54.0458 43.9758 49.8467C44.2274 43.892 45.8993 43.344 47.1126 41.9071C47.117 41.903 47.1205 41.8982 47.1231 41.8927C47.1256 41.8873 47.127 41.8815 47.1273 41.8755C47.1275 41.8695 47.1266 41.8636 47.1246 41.8579C47.1225 41.8523 47.1194 41.8472 47.1154 41.8428C47.1113 41.8384 47.1065 41.8348 47.101 41.8323C47.0956 41.8297 47.0898 41.8283 47.0838 41.828C47.0778 41.8278 47.0719 41.8287 47.0662 41.8307C47.0606 41.8328 47.0555 41.8359 47.0511 41.84C45.2339 43.4782 44.2554 44.4008 43.8808 48.8403C43.5509 52.6424 44.2274 55.6058 44.0765 57.6354L37.5794 54.1744C38.0211 47.4928 38.1665 40.6826 41.9965 38.9772ZM28.2754 55.0243C29.0582 54.3366 29.8018 55.0243 30.4616 55.6729C29.622 55.8433 28.796 56.075 27.9902 56.3662C27.9319 56.1356 27.9273 55.8947 27.9768 55.6621C28.0262 55.4294 28.1284 55.2112 28.2754 55.0243ZM29.8354 66.6319C32.3459 66.397 36.9084 64.6581 36.9084 64.6581C36.9084 64.6581 37.0761 59.8105 37.2774 59.4582C37.4787 59.106 37.4452 59.4582 37.4452 59.4582C36.4387 74.2081 40.3415 78.4184 40.3415 78.4184L45.8489 84.9882C45.4543 85.1177 45.0678 85.2708 44.6915 85.4467C43.2703 82.8739 41.4426 80.5477 39.2791 78.5582C38.2526 77.6053 37.1281 76.7637 35.9243 76.0477C34.7222 75.3487 33.3467 74.689 31.9265 74.7952C31.8874 74.7281 32.0328 74.689 29.1924 75.7513L29.8354 66.6319ZM7.22409 93.4702C9.01626 92.3018 10.8842 91.254 12.8154 90.3335C13.8498 89.8414 14.9066 89.3885 15.9745 88.9804C16.9306 88.6114 17.9482 88.3542 18.882 87.946C23.4889 90.3604 27.6054 93.6123 31.0207 97.5351C27.9232 95.2986 23.9421 94.4767 20.2854 93.6212C15.4713 92.4861 12.7763 92.3464 7.22409 93.4926V93.4702ZM6.9557 97.9433C7.01161 97.9153 15.9354 93.0509 15.9801 92.995C19.0385 93.3472 27.4591 95.1197 31.2388 97.9545C30.7524 97.9545 21.2471 97.468 6.9557 97.9712V97.9433ZM7.0843 85.1336C12.6309 82.5243 18.2576 80.1014 23.9645 77.8648L24.2776 79.7994L25.038 79.8274C25.125 80.3275 25.2656 80.8167 25.4574 81.2867C25.1778 81.2867 24.9989 81.8459 24.5013 82.405C24.1588 82.7147 23.7838 82.9865 23.383 83.2157C22.891 83.5736 23.0252 83.9594 23.5619 84.1327C24.4957 84.4291 25.7314 83.8755 26.5868 83.5736C26.6856 83.265 26.8071 82.9641 26.9503 82.6734C27.269 82.3714 27.3249 83.3108 27.3137 83.4506C27.5627 83.4952 27.8165 83.5065 28.0685 83.4841C28.2023 82.7127 28.1699 81.9216 27.9735 81.1637H27.8561C27.9212 80.7644 27.9549 80.3606 27.9567 79.956L28.8737 79.9895L29.1644 75.9079C31.8706 74.9238 31.8706 74.9741 31.9209 74.9238C34.7949 74.9853 37.5123 77.1603 39.4804 79.039C41.462 80.9636 43.1669 83.1539 44.5461 85.5473C42.3096 86.6656 40.4924 88.5387 38.6641 90.1713C35.985 92.4662 33.5578 95.0397 31.4233 97.8482C25.7202 91.1386 15.8571 84.0824 7.0843 85.1615V85.1336ZM26.5756 83.4562C25.8264 83.7057 25.0577 83.8927 24.2776 84.0153C24.0316 84.0153 22.8183 84.0153 23.4277 83.2772C24.2968 82.8889 24.9945 82.1971 25.3903 81.3315C26.2387 81.4576 27.1039 81.412 27.9343 81.1973C27.9343 81.7005 27.9958 81.3259 27.9791 83.3723C27.8146 83.3703 27.6502 83.3796 27.487 83.4002C27.5485 82.2652 26.8049 82.131 26.5756 83.5009V83.4562ZM27.761 81.1469C27.0352 81.2503 26.3022 81.2951 25.5692 81.2811C25.5692 81.2811 25.3232 80.3027 25.1834 79.8274L27.8672 79.9224C27.8057 80.3642 27.7554 81.1805 27.761 81.1917V81.1469ZM68.1527 91.3958C65.754 92.9335 63.8474 95.142 61.6109 96.8865C59.0938 98.7741 56.7357 100.865 54.5602 103.138C51.1707 101.118 47.5733 99.4707 43.8305 98.2228C40.7105 97.2667 34.6942 97.4065 31.6917 97.9041C35.6671 96.2267 38.4292 95.9919 42.3879 96.4112C46.3466 96.8306 49.0583 97.4568 52.5809 99.766C52.8157 99.9226 56.6625 96.0366 64.4065 89.7408C65.6813 90.2888 66.9114 90.8814 68.1527 91.4406V91.3958ZM69.6903 85.4131C63.8474 89.9421 58.1442 94.622 52.7318 99.6542C52.729 99.6422 52.7235 99.6309 52.7157 99.6212C52.708 99.6116 52.6982 99.6037 52.6871 99.5983C49.5616 97.5183 46.0838 96.6461 42.3879 96.2435C38.474 95.8298 35.4826 96.0534 31.5407 97.8259C33.6615 95.1988 35.9793 92.7371 38.474 90.4621C42.4494 86.8277 43.7075 85.8157 45.9552 85.0776L48.393 87.9963C48.7517 87.9263 49.0971 87.7999 49.4162 87.6217L50.1878 88.466C50.1598 88.466 50.0201 88.4995 50.0201 88.5499C49.8747 90.4006 49.9194 89.9197 49.1814 91.2169C49.0716 91.3734 49.0195 91.5631 49.0338 91.7537C49.048 91.9443 49.1278 92.1241 49.2596 92.2625C49.2932 92.2625 52.1727 89.8918 52.1615 89.875C52.1503 89.8582 51.8205 88.6896 52.2063 88.6673C52.4914 88.6673 52.8493 89.4277 52.8772 89.4165C53.0074 89.3635 53.1283 89.2899 53.2351 89.1984C53.0789 88.4422 52.7831 87.7216 52.3628 87.0737C52.3628 87.0737 52.2566 87.1185 52.2398 87.1352C52.1 86.7103 51.9546 86.2854 51.7925 85.866C52.1671 85.5194 52.402 85.2733 52.402 85.2733L51.6527 83.5959C54.6308 83.1598 57.6552 83.1429 60.638 83.5456C65.7484 84.1998 66.2125 84.1942 69.6903 85.4579V85.4131Z" fill="black"/>
<path d="M91.8654 59.7937V59.7601H91.8263C91.813 59.7582 91.7995 59.7611 91.7882 59.7683C91.777 59.7755 91.7686 59.7865 91.7647 59.7993L85.1279 63.5119C84.8259 65.0551 85.1838 64.96 84.6582 70.7471C84.1773 71.3397 83.8754 72.1896 82.1645 72.827C81.2058 73.1108 80.271 73.4698 79.3688 73.9006C78.1946 74.5659 77.8871 75.796 79.0669 76.6962C79.0419 76.7137 79.0194 76.7344 78.9998 76.7577L78.832 76.8528C78.8096 76.8687 78.7923 76.8909 78.7824 76.9166C78.7725 76.9423 78.7704 76.9703 78.7764 76.9972C78.7823 77.024 78.7961 77.0486 78.816 77.0676C78.8358 77.0867 78.8609 77.0995 78.8879 77.1044C78.9606 77.1715 79.0221 77.1379 79.0892 77.1044C79.092 77.1435 79.092 77.1827 79.0892 77.2218C79.0892 77.2544 79.1022 77.2857 79.1253 77.3088C79.1483 77.3319 79.1796 77.3448 79.2122 77.3448C79.2449 77.3448 79.2762 77.3319 79.2992 77.3088C79.3223 77.2857 79.3353 77.2544 79.3353 77.2218V76.987L79.4359 76.9311C80.269 77.4119 81.4655 77.6412 81.7171 78.7259C81.9017 79.531 81.2754 80.5151 80.4815 81.0798C80.4815 81.0798 80.3864 80.2914 80.3808 80.2803C80.3417 80.1684 80.1572 80.1684 80.1628 80.3082V80.571L79.9559 80.2243C79.9362 80.2015 79.9091 80.1862 79.8794 80.1813C79.8496 80.1764 79.8191 80.1821 79.7931 80.1974C79.7671 80.2128 79.7473 80.2367 79.7372 80.2652C79.7271 80.2936 79.7273 80.3247 79.7378 80.353C79.8832 80.6661 80.023 80.9792 80.1739 81.2923C78.1499 82.4106 77.423 79.9224 76.1538 78.8712C76.3159 78.0102 76.3551 78.027 76.3215 77.9487C76.3263 77.9314 76.3276 77.9134 76.3254 77.8956C76.3232 77.8779 76.3176 77.8607 76.3087 77.8451C76.2999 77.8296 76.2881 77.8159 76.274 77.8048C76.2599 77.7938 76.2437 77.7857 76.2265 77.7809C76.2092 77.7762 76.1912 77.7748 76.1734 77.777C76.1557 77.7792 76.1385 77.7849 76.1229 77.7937C76.1073 77.8026 76.0937 77.8144 76.0826 77.8285C76.0716 77.8426 76.0635 77.8587 76.0587 77.876C76.0196 77.971 75.9916 78.0717 75.9581 78.1723C75.9246 78.273 75.919 78.2282 75.891 78.3345L75.8295 78.15C75.8221 78.1225 75.8041 78.0992 75.7794 78.085C75.7548 78.0709 75.7255 78.0671 75.6981 78.0745C75.6707 78.0819 75.6473 78.0999 75.6331 78.1245C75.619 78.1492 75.6152 78.1784 75.6226 78.2059C75.5947 78.2618 75.6226 78.3513 75.6729 78.5358C75.4036 78.3652 75.1144 78.2281 74.8119 78.1276C74.0252 77.8971 73.182 77.9566 72.4356 78.2953C72.3908 78.0829 72.3573 77.8648 72.3293 77.6523C72.3014 77.4399 72.128 77.5517 72.1001 77.6523C72.065 77.6676 72.037 77.6956 72.0218 77.7306C71.9827 77.6747 71.9379 77.5852 71.8317 77.63C71.8142 77.624 71.7954 77.6233 71.7775 77.6279C71.7596 77.6325 71.7434 77.6423 71.7309 77.6559C71.7185 77.6695 71.7103 77.6865 71.7073 77.7048C71.7044 77.723 71.7068 77.7417 71.7143 77.7586C71.8541 77.9822 71.9883 78.2059 72.1225 78.4295C71.1825 78.9249 70.3426 79.5903 69.6455 80.3921C69.6388 80.4038 69.6362 80.4174 69.638 80.4307C69.6398 80.4441 69.6459 80.4565 69.6555 80.466C69.665 80.4755 69.6774 80.4816 69.6907 80.4834C69.7041 80.4852 69.7177 80.4826 69.7294 80.476C70.4836 79.8047 71.2978 79.2039 72.1616 78.6811C72.2063 78.9495 72.2622 79.2403 72.3181 79.4807C72.3181 79.6317 72.6033 79.5981 72.5809 79.4472C72.5837 79.4137 72.5837 79.38 72.5809 79.3465C72.6021 79.3267 72.6175 79.3016 72.6257 79.2738L72.676 79.3521C72.6905 79.3792 72.7136 79.4007 72.7416 79.4133C72.7696 79.4259 72.801 79.429 72.8309 79.422C72.8608 79.415 72.8876 79.3983 72.9071 79.3746C72.9266 79.3508 72.9377 79.3213 72.9388 79.2906V79.2626C72.939 79.2474 72.9356 79.2323 72.9288 79.2187C72.9219 79.2051 72.912 79.1933 72.8996 79.1844C72.7878 78.9591 72.6627 78.7406 72.525 78.5302C73.0439 78.2883 73.6189 78.1923 74.1882 78.2524C74.7576 78.3125 75.2998 78.5264 75.7568 78.8712V78.916C75.7568 79.039 75.7121 79.162 75.6841 79.285C75.6562 79.408 75.6394 79.4975 75.6226 79.6037C75.6058 79.7099 75.8686 79.8665 75.8966 79.682V79.6037C75.9194 79.5865 75.9368 79.5633 75.9469 79.5366L76.1147 79.9727C76.1762 80.1293 76.4278 80.0678 76.3718 79.9C76.3159 79.7323 76.2209 79.4416 76.1426 79.2179C77.2161 80.2803 78.1107 82.6398 80.2019 81.5719C80.241 81.9465 80.2466 82.0583 80.297 82.5224C80.3034 82.554 80.3205 82.5824 80.3455 82.6028C80.3705 82.6232 80.4017 82.6343 80.4339 82.6343C80.4662 82.6343 80.4974 82.6232 80.5224 82.6028C80.5474 82.5824 80.5645 82.554 80.5709 82.5224C80.5709 82.405 80.5709 82.2876 80.543 82.1701C80.5487 82.1462 80.5487 82.1213 80.543 82.0974C80.5574 82.1031 80.5733 82.1031 80.5877 82.0974C80.6828 82.1589 80.8449 82.0974 80.8002 81.9465C80.7227 81.7446 80.635 81.5467 80.5374 81.3538C81.527 80.6717 82.2986 79.3745 81.7339 78.3121C81.3146 77.5293 80.392 77.2777 79.5757 76.864C79.8385 76.685 80.2522 76.6124 80.0062 76.4167C79.9335 76.1315 79.6931 76.4167 79.3073 76.6124V76.3775C79.3073 76.3597 79.3002 76.3427 79.2876 76.3301C79.2751 76.3175 79.258 76.3104 79.2402 76.3104C79.2224 76.3104 79.2053 76.3175 79.1927 76.3301C79.1802 76.3427 79.1731 76.3597 79.1731 76.3775C79.1731 76.4558 79.1451 76.5285 79.1284 76.6068C78.094 75.8463 78.3512 74.7337 79.4135 74.113C80.4759 73.4924 81.7675 73.2632 82.9025 72.7935C83.3222 72.6044 83.7003 72.3341 84.015 71.9983C84.3298 71.6624 84.575 71.2676 84.7365 70.8365L92.5028 66.9897C92.5176 66.9933 92.5333 66.9914 92.5467 66.9841C92.5601 66.9769 92.5704 66.9649 92.5755 66.9506C92.4637 66.4417 91.9213 59.8272 91.8654 59.7937ZM88.7119 65.3179L84.798 70.7191C84.9098 69.7015 85.3571 64.7811 85.2005 63.5566L88.7231 65.3179L91.7871 59.9446C91.9147 62.2703 92.1591 64.588 92.5196 66.8891L88.7119 65.3179ZM10.5117 71.3957L9.90223 70.3836L9.67858 71.4851L8.67214 71.7088L9.46611 72.2735L9.23128 73.347L10.1706 72.5754L11.2721 73.0786L10.7633 72.0666L11.4343 71.2391L10.5117 71.3957ZM68.8459 70.4395L67.9849 69.0697L67.6662 70.5626L66.2236 70.8645L67.3531 71.6305L67.0232 73.0898L68.3595 72.0387L69.9307 72.7264L69.2038 71.3565L70.1543 70.2271L68.8459 70.4395ZM29.4607 11.5518C30.0645 11.6524 30.8361 11.5182 31.1772 12.1388L31.0095 12.2563C30.9755 12.4116 30.9972 12.5739 31.071 12.7148C31.1739 12.9347 31.32 13.1316 31.5006 13.294C31.6812 13.4563 31.8925 13.5807 32.1221 13.6597L32.2507 13.6261C32.5694 13.833 33.0056 13.9784 33.3075 13.6541C33.6094 13.3298 33.4081 12.8154 33.4137 12.8042C34.0567 11.9152 32.7204 11.0653 32.7204 11.0653L32.5639 11.1771C31.9712 10.0589 33.5703 8.98534 32.1725 7.05633C30.5454 4.81981 26.2121 5.8542 27.4534 9.65071C27.5789 10.1225 27.8331 10.5501 28.1875 10.8858C28.542 11.2215 28.9828 11.4521 29.4607 11.5518ZM31.6525 11.8145C30.9173 11.0813 30.1245 10.4082 29.2817 9.80167C29.5166 9.85759 29.6564 9.98059 29.8409 9.77372V9.69544C30.0589 9.1363 30.1931 9.72339 30.4783 9.29845V9.18104C30.6348 8.95738 30.6125 9.1419 30.7635 9.12512C30.8354 9.12959 30.9076 9.1201 30.9759 9.09717C31.1493 9.01889 31.1157 8.73932 31.4176 8.77287C31.5538 9.70135 31.7958 10.6112 32.1389 11.4847L31.6525 11.8145ZM33.2684 12.9831C33.3134 13.089 33.3278 13.2054 33.3101 13.319C33.2923 13.4327 33.243 13.5391 33.1677 13.6261C32.9329 13.8442 32.6086 13.7212 32.3849 13.5758C32.7195 13.4459 33.0212 13.2435 33.2684 12.9831ZM32.5191 8.24728C32.7651 9.36555 31.8705 10.4838 32.4353 11.2666L32.2507 11.3952C31.7587 9.76812 31.2052 7.25762 31.3785 8.63309C30.8529 8.59954 30.9815 8.81201 30.8865 8.89029C30.7914 8.96856 30.5342 8.89029 30.3609 8.97416C30.3106 8.97416 30.3609 9.09157 30.3106 9.11394C29.9695 9.47178 30.0757 9.20899 29.7906 9.30404C29.6843 9.34318 29.6787 9.37114 29.6284 9.4606C29.5781 9.55006 29.7626 9.6563 29.5781 9.75694C29.5781 9.75694 29.2706 9.71221 29.1531 9.70662C28.0349 8.83437 30.4056 10.9814 31.4959 11.9431L31.2723 12.0997C30.6181 10.7913 27.7274 12.4631 27.4198 8.58276C27.1738 5.36216 31.8705 5.2112 32.5191 8.24728ZM72.5138 96.6461C72.5009 96.7764 72.5342 96.907 72.6077 97.0154C72.6813 97.1237 72.7905 97.2027 72.9164 97.2387C73.5538 97.2891 73.6097 96.8306 73.6097 96.8306L73.8949 95.7682L72.7766 95.6508L72.5138 96.6461ZM29.3265 2.85166C29.3265 2.76779 29.1643 2.77897 29.1755 2.85166C29.2389 3.4593 29.3397 4.06244 29.4774 4.65766C29.5445 4.85335 29.9192 4.89808 29.3265 2.85166ZM32.3738 6.01635C32.6213 5.57727 32.8093 5.1072 32.9329 4.61852C32.931 4.6039 32.9253 4.59003 32.9164 4.57831C32.9074 4.56659 32.8956 4.55744 32.882 4.55177C32.8683 4.5461 32.8535 4.54411 32.8389 4.54602C32.8242 4.54792 32.8104 4.55364 32.7987 4.5626C32.5259 4.9884 32.3168 5.45179 32.1781 5.93807C32.1445 6.0443 32.3234 6.15054 32.3738 6.01635ZM26.173 6.22882C26.1852 6.23354 26.1985 6.2351 26.2115 6.23335C26.2246 6.2316 26.237 6.22659 26.2475 6.21879C26.2581 6.21099 26.2666 6.20065 26.2721 6.18872C26.2777 6.17679 26.2801 6.16366 26.2792 6.15054C25.9052 5.57426 25.4723 5.03835 24.9876 4.55142C24.9261 4.5011 24.8199 4.55142 24.8702 4.64088C25.0715 4.89249 25.9214 5.97721 26.173 6.22882ZM23.7296 10.1483C25.5915 9.89113 25.407 9.5892 25.2784 9.5892C24.7192 9.6563 24.216 9.87995 23.6848 9.98619C23.573 10.003 23.6233 10.1651 23.7296 10.1483ZM27.5093 12.3569C27.5596 12.2898 27.4758 12.1892 27.3975 12.2171C26.9536 12.4945 26.5312 12.8047 26.1338 13.1453C26.0444 13.218 26.1338 13.3633 26.2513 13.3018C26.6929 13.0177 27.1134 12.7019 27.5093 12.3569ZM29.4607 12.8881C29.3656 13.3578 29.3824 13.8554 29.3153 14.3306C29.3153 14.4481 29.4774 14.504 29.4998 14.381C29.6252 13.8939 29.6706 13.3897 29.634 12.8881C29.634 12.8651 29.6249 12.8431 29.6086 12.8268C29.5924 12.8105 29.5703 12.8014 29.5473 12.8014C29.5244 12.8014 29.5023 12.8105 29.4861 12.8268C29.4698 12.8431 29.4607 12.8651 29.4607 12.8881ZM27.3639 19.4411C27.4985 19.4524 27.634 19.4348 27.7613 19.3896C27.8886 19.3444 28.0048 19.2726 28.1021 19.1789C28.1995 19.0853 28.2757 18.972 28.3259 18.8465C28.376 18.7211 28.3988 18.5864 28.3927 18.4514C28.2921 17.0704 26.3239 17.2493 26.2736 18.3788C26.2877 18.6608 26.4079 18.927 26.6101 19.1241C26.8123 19.3211 27.0816 19.4344 27.3639 19.4411ZM28.1579 18.3228C28.1859 18.4385 28.1859 18.5591 28.158 18.6747C28.1302 18.7903 28.0752 18.8976 27.9976 18.9878C27.92 19.0779 27.822 19.1483 27.7119 19.1931C27.6017 19.2379 27.4824 19.2558 27.3639 19.2454C27.1387 19.2502 26.9196 19.1719 26.7484 19.0255C26.5772 18.879 26.4659 18.6747 26.4358 18.4514C26.4479 18.2413 26.5355 18.0427 26.6826 17.8921C26.8297 17.7415 27.0262 17.6492 27.236 17.6322C27.4458 17.6152 27.6547 17.6746 27.8241 17.7994C27.9935 17.9243 28.1121 18.1062 28.1579 18.3117V18.3228ZM53.2741 30.8642C53.3188 30.9984 59.1506 31.25 60.4366 31.222C60.2693 31.3785 60.15 31.5794 60.0926 31.8012C60.0352 32.0229 60.042 32.2565 60.1123 32.4745C60.28 32.8938 60.8056 32.9777 61.197 33.0336C63.2938 33.3132 65.3793 33.7325 67.6997 33.2629C70.8644 32.6254 69.187 29.4831 67.2804 30.9313C67.3516 30.5208 67.2985 30.0984 67.1281 29.7183C66.9576 29.3382 66.6775 29.0176 66.3237 28.7977C65.9698 28.5779 65.5584 28.4687 65.1421 28.4842C64.7257 28.4997 64.3236 28.6392 63.9871 28.8848C63.9871 27.4591 61.8736 26.2681 60.9789 27.5485C61.2082 25.5133 59.4022 24.2329 57.4508 24.6131C55.3541 25.0101 54.9795 27.3976 55.9132 29.0079C55.6297 28.7784 55.279 28.6476 54.9145 28.6353C54.5499 28.623 54.1912 28.7298 53.8929 28.9397C53.5945 29.1496 53.3727 29.451 53.261 29.7983C53.1494 30.1455 53.154 30.5197 53.2741 30.8642ZM64.0989 29.019C65.6086 28.1188 67.2356 29.019 67.0903 31.0934C67.0903 31.0934 67.23 31.1493 67.2412 31.1382C69.0249 29.7068 70.4786 32.4521 67.8842 33.0448C65.7763 33.5256 63.2434 33.2125 61.0796 32.8323C59.4022 32.536 60.6658 30.3106 61.9351 31.1829C62.0301 31.25 62.0637 30.484 62.6955 30.4784C63.003 30.4784 63.4224 30.5846 63.523 30.9089C63.523 30.9089 63.6348 30.7635 63.6236 30.73C63.4783 30.1038 63.4727 29.3937 64.0989 29.019ZM60.7441 27.7498C60.7441 27.8616 60.9174 27.7834 60.923 27.7498C61.9351 26.4359 63.7187 27.5877 63.7746 28.9855C63.5522 29.1499 63.3924 29.385 63.3213 29.6522C63.2501 29.9194 63.272 30.2029 63.3832 30.456C62.8241 30.0814 61.9239 30.2435 61.8624 31.0151C61.7656 30.9308 61.6529 30.8665 61.531 30.8261C61.4091 30.7858 61.2804 30.7701 61.1524 30.78C61.0243 30.7898 60.8996 30.8251 60.7853 30.8837C60.6711 30.9424 60.5696 31.0231 60.4869 31.1214C58.2504 30.8083 53.6655 30.8362 53.4251 30.73C53.1847 30.6237 53.4251 29.7235 53.5928 29.4552C53.7312 29.2724 53.9083 29.1225 54.1112 29.0159C54.3142 28.9094 54.5382 28.8489 54.7672 28.8388C54.9962 28.8286 55.2247 28.8691 55.4363 28.9573C55.6479 29.0454 55.8374 29.1792 55.9915 29.3489C56.081 29.4272 56.1089 29.2036 56.1033 29.198C53.5089 23.2823 61.5549 23.6066 60.7721 27.7498H60.7441ZM66.8498 18.0153C66.747 17.2878 66.4452 16.6028 65.9776 16.036C63.8417 14.0902 59.3798 16.2373 61.6108 20.5091C61.8591 20.9 62.1337 21.2736 62.4327 21.6273C62.9359 22.3542 63.1652 23.9813 63.2714 24.8591C63.2714 24.8813 63.2802 24.9027 63.296 24.9184C63.3117 24.9341 63.333 24.943 63.3553 24.943H64.96C65.2228 24.943 64.8761 22.9413 65.206 22.0299C65.6868 20.6321 67.2245 19.6759 66.8498 18.0153ZM63.4391 15.5384C63.8078 15.4608 64.1887 15.4608 64.5574 15.5384C64.9416 16.5753 65.111 17.6795 65.0552 18.7839C64.9995 19.8883 64.7198 20.9698 64.2331 21.9628H63.7802C63.2939 20.97 63.0131 19.8893 62.9545 18.7854C62.8959 17.6814 63.0607 16.5771 63.4391 15.5384ZM61.5996 20.0562C60.9342 18.3788 60.923 16.9194 62.4271 15.9577C61.5101 17.1487 61.7282 20.3022 63.5454 21.9684C63.2882 21.9684 63.0366 21.8901 62.7794 21.8622C62.3478 21.286 61.9537 20.6828 61.5996 20.0562ZM64.8258 24.7976C64.4679 24.8367 64.1213 24.7976 63.7634 24.7976C63.4056 24.7976 63.4783 24.9933 63.2938 23.8303C63.8364 23.9169 64.3894 23.9169 64.932 23.8303C64.9408 24.1561 64.9051 24.4815 64.8258 24.7976ZM64.932 23.6793C64.3729 23.752 63.8137 23.6793 63.2546 23.7352C63.1319 23.1239 62.9713 22.5207 62.7738 21.9292C63.5135 22.1808 64.3138 22.1925 65.0606 21.9628C64.9223 22.5257 64.8788 23.1077 64.932 23.6849V23.6793ZM65.1389 21.8062C64.951 21.8255 64.7643 21.8554 64.5798 21.8957C66.3802 20.1288 66.464 17.0424 65.5918 15.9354C66.4808 16.556 67.0511 18.5129 66.5144 19.5865C66.123 20.3581 65.4967 21.0011 65.1613 21.823L65.1389 21.8062ZM69.7014 25.9382C69.8188 26.2178 69.9251 24.4453 71.1328 24.2944C71.1775 24.2944 71.2167 24.2496 71.1775 24.2105C70.9315 23.9701 70.2438 23.9589 70.1599 22.4716C70.1599 22.4101 70.0425 22.3877 70.0425 22.4716C70.0089 24.149 67.9513 24.1993 68.3651 24.3223C69.3827 24.6019 69.556 25.5972 69.7014 25.9382ZM70.0984 22.9245C70.1142 23.1829 70.1921 23.4337 70.3254 23.6556C70.4587 23.8776 70.6436 24.0641 70.8644 24.1993C70.5901 24.3503 70.3495 24.5556 70.1573 24.8026C69.965 25.0497 69.8251 25.3334 69.7461 25.6363C69.6538 25.3447 69.5037 25.0746 69.3049 24.8422C69.1061 24.6097 68.8625 24.4196 68.5887 24.2832C68.9369 24.2077 69.2592 24.0426 69.524 23.8043C69.7888 23.5661 69.9868 23.2628 70.0984 22.9245ZM77.0652 32.1446C77.0204 32.1446 77.0316 32.234 77.0652 32.2452C77.3795 32.3146 77.661 32.4883 77.864 32.7381C78.0671 32.9878 78.1796 33.2989 78.1834 33.6207C78.1834 33.6598 78.2673 33.671 78.2785 33.6207C78.2897 33.5704 78.2785 32.5024 78.9718 32.0887C79.0165 32.0887 79.0389 31.9657 78.9718 31.9713C78.2114 32.0831 77.7697 30.5678 77.7641 30.5455C77.7585 30.5231 77.6523 30.5119 77.669 30.5455C77.7328 30.8419 77.7097 31.1503 77.6026 31.434C77.4955 31.7176 77.3089 31.9643 77.0652 32.1446ZM77.8703 31.0263C78.0492 31.4736 78.34 32.0328 78.7761 32.1054C78.5065 32.3652 78.3264 32.704 78.2617 33.0727C78.0784 32.6692 77.7457 32.3524 77.3336 32.1893C77.6519 31.8757 77.843 31.4555 77.8703 31.0096V31.0263ZM39.8102 23.6178V23.6681C40.088 23.7191 40.3438 23.8534 40.5435 24.0531C40.7433 24.2528 40.8775 24.5086 40.9285 24.7864C40.9321 24.7976 40.9393 24.8073 40.9488 24.8142C40.9583 24.8211 40.9698 24.8249 40.9816 24.8249C40.9934 24.8249 41.0048 24.8211 41.0144 24.8142C41.0239 24.8073 41.031 24.7976 41.0347 24.7864C41.1913 24.2776 41.2975 23.7297 42.153 23.6066C42.1865 23.6066 42.1977 23.534 42.153 23.534C41.1409 23.4333 40.9452 22.1809 40.9061 22.0914C40.867 22.0019 40.8111 22.0914 40.8166 22.0914C40.9676 23.0419 40.1121 23.4445 39.8102 23.6178ZM40.9732 22.589C41.0415 22.7986 41.1536 22.9912 41.3021 23.1541C41.4505 23.317 41.632 23.4465 41.8343 23.534C41.6381 23.6194 41.4636 23.7476 41.3233 23.9092C41.1831 24.0707 41.0806 24.2615 41.0235 24.4677C40.9284 24.2539 40.7832 24.066 40.6003 23.9201C40.4174 23.7741 40.202 23.6743 39.9724 23.629C40.2123 23.5521 40.4293 23.4168 40.604 23.2353C40.7787 23.0538 40.9056 22.8317 40.9732 22.589ZM91.966 43.9535C91.4069 42.03 91.3286 40.2408 91.105 40.4645C90.4005 41.1634 88.8685 42.55 88.8685 42.5556C88.8685 42.5612 90.9093 43.5397 91.8207 44.0541C91.843 44.0709 91.9828 44.0038 91.966 43.9535ZM89.0865 42.5221C89.8329 41.9447 90.5203 41.2948 91.1385 40.5819C91.2034 41.6899 91.4159 42.7843 91.7703 43.836C90.8534 43.3496 89.9811 43.0533 89.0865 42.5221ZM86.6655 43.7186C86.5126 44.2697 86.3949 44.83 86.3132 45.396C86.3132 45.5134 86.4698 45.5638 86.4921 45.4463C86.6385 44.8773 86.7247 44.2945 86.7493 43.7074C86.7452 43.6991 86.7385 43.6923 86.7303 43.6879C86.722 43.6835 86.7126 43.6819 86.7034 43.6831C86.6942 43.6843 86.6856 43.6884 86.6788 43.6948C86.672 43.7012 86.6673 43.7095 86.6655 43.7186ZM85.8715 47.845C86.0525 47.2982 86.1871 46.737 86.2741 46.1676C86.2741 46.0949 86.1734 46.0893 86.1511 46.1676C85.9716 46.7035 85.8369 47.2533 85.7485 47.8115C85.7492 47.8256 85.7544 47.8391 85.7632 47.8501C85.7721 47.8611 85.7842 47.8691 85.7979 47.8728C85.8115 47.8765 85.826 47.8758 85.8392 47.8708C85.8524 47.8658 85.8637 47.8568 85.8715 47.845ZM87.89 46.4528C87.9109 46.4593 87.9335 46.458 87.9535 46.449C87.9734 46.44 87.9894 46.424 87.9984 46.404C88.0074 46.384 88.0087 46.3614 88.0021 46.3405C87.9955 46.3196 87.9815 46.3019 87.9627 46.2906C87.5204 46.0659 87.0445 45.9148 86.5536 45.8433C86.1455 45.8489 87.6104 46.408 87.89 46.4528ZM85.782 45.5302C85.2956 45.396 84.8147 45.2227 84.3283 45.0941C84.2221 45.0941 83.8419 45.2003 85.7261 45.7371C85.7536 45.7445 85.7828 45.7407 85.8075 45.7266C85.8321 45.7124 85.8501 45.689 85.8575 45.6616C85.8649 45.6342 85.8611 45.6049 85.847 45.5803C85.8328 45.5556 85.8095 45.5376 85.782 45.5302ZM71.6192 52.7486C70.8197 53.1568 70.1487 54.4931 70.4506 55.3598C70.4506 55.3598 70.4954 55.3989 70.5066 55.4045C71.8485 55.5387 80.0118 55.5275 82.7068 55.4716C82.7261 55.4711 82.7448 55.4654 82.7611 55.455C82.7774 55.4447 82.7905 55.4301 82.7991 55.4129C82.8077 55.3957 82.8115 55.3764 82.81 55.3572C82.8085 55.338 82.8018 55.3195 82.7907 55.3038C82.8774 54.9288 82.8417 54.5359 82.6887 54.1827C82.5358 53.8295 82.2736 53.5346 81.9408 53.3413C81.5678 53.1993 81.1688 53.1388 80.7704 53.1639C80.3721 53.1889 79.9838 53.299 79.6316 53.4867C80.0174 52.7989 79.6316 52.0385 79.1619 51.4458C78.6028 50.719 77.9877 50.02 77.0204 49.9529C76.1652 49.8381 75.2973 50.0367 74.577 50.5121C73.8669 51.1048 73.9284 51.977 74.0515 52.7989C73.5147 52.0665 72.3405 52.3796 71.6192 52.7486ZM74.5994 50.7916C74.8915 50.5252 75.2367 50.3237 75.6124 50.2006C75.9881 50.0774 76.3856 50.0353 76.7787 50.077C77.1718 50.1187 77.5516 50.2434 77.8931 50.4427C78.2345 50.642 78.5297 50.9115 78.7593 51.2334C79.2737 51.8708 79.9782 52.7654 79.3576 53.5705C79.2849 53.6656 79.5309 53.6488 79.5365 53.6432C81.9688 52.8772 82.5894 53.7103 82.6285 55.2647C79.9559 55.4157 71.1328 55.2144 70.5233 55.3038C70.35 52.648 73.319 51.949 74.1409 53.1456C74.1745 53.1959 74.2471 53.1456 74.1968 53.0505C74.1185 52.3013 74.0291 51.3731 74.5994 50.7916ZM80.42 60.241C80.4815 60.2018 80.42 60.1068 80.392 60.1236C79.4415 60.459 78.8879 59.1059 78.8488 59.05C78.8097 58.9941 78.7482 59.05 78.7649 59.0836C79.0277 59.7433 78.9494 60.5205 78.2058 60.8001C78.1959 60.8035 78.1874 60.81 78.1813 60.8185C78.1753 60.827 78.172 60.8372 78.172 60.8476C78.172 60.8581 78.1753 60.8683 78.1813 60.8768C78.1874 60.8853 78.1959 60.8917 78.2058 60.8952C78.5198 60.8483 78.8403 60.9134 79.1111 61.079C79.382 61.2446 79.586 61.5001 79.6875 61.801C79.6875 61.868 79.8217 61.8569 79.8161 61.801C79.8105 61.745 79.654 60.6883 80.42 60.241ZM79.6651 61.4151C79.5399 61.2318 79.3736 61.0802 79.1795 60.9724C78.9854 60.8647 78.7687 60.8037 78.5469 60.7945C78.7232 60.6551 78.8596 60.4714 78.942 60.2623C79.0245 60.0531 79.0502 59.8259 79.0165 59.6036C79.1299 59.8041 79.2916 59.973 79.4869 60.0951C79.6822 60.2172 79.9049 60.2885 80.1348 60.3025C79.9872 60.448 79.8698 60.6211 79.7892 60.8121C79.7086 61.003 79.6665 61.2079 79.6651 61.4151ZM58.5188 82.0024C59.7992 78.122 62.8968 74.7337 66.2572 72.4971C66.3634 72.4245 66.2572 72.2567 66.1565 72.3238C59.1897 76.959 58.0994 83.3108 58.5188 82.0024ZM56.3941 78.0493C58.3007 75.1362 60.1403 73.9677 63.1875 72.3406C63.3049 72.2791 63.1875 72.1058 63.0869 72.1673C60.4981 73.4589 57.6409 75.3319 56.3382 78.0158C56.3359 78.023 56.3362 78.0307 56.3388 78.0377C56.3415 78.0447 56.3465 78.0507 56.3529 78.0545C56.3594 78.0584 56.3669 78.06 56.3744 78.0591C56.3819 78.0581 56.3888 78.0547 56.3941 78.0493ZM65.0718 70.0034C65.3346 69.9699 65.1109 69.5841 62.7346 70.1264C57.6633 71.2447 56.4891 73.5819 56.7631 73.2799C59.2065 70.6073 62.8073 70.2942 65.0718 70.0034ZM13.7994 59.5476C13.0054 59.967 12.3848 59.3352 12.1723 58.6195C12.1723 58.5636 12.0549 58.5692 12.0605 58.6195C12.2059 60.3752 14.8897 60.3304 14.4983 58.0604C14.2224 56.9176 13.7535 55.8303 13.1117 54.8453C11.697 52.4355 10.4446 51.5577 10.6962 51.8708C12.1499 53.6768 15.7787 58.5077 13.7994 59.5476ZM20.33 62.6564C20.6655 62.4495 20.481 61.924 20.5146 61.6053C20.5146 61.527 20.3971 61.5158 20.3804 61.6053C20.359 61.7685 20.3459 61.9327 20.3412 62.0973C20.2294 62.6564 19.6926 62.5055 19.318 62.3265C18.7388 61.9873 18.2498 61.5136 17.8922 60.9455C17.1709 59.9446 16.5447 58.8655 15.9185 57.8088C12.0046 51.2837 11.725 51.6918 11.8033 51.7869C13.7267 54.2862 15.214 57.0316 16.8746 59.7042C17.4952 60.7106 18.1718 61.9743 19.3068 62.4999C19.5696 62.6229 20.0505 62.8242 20.33 62.6564ZM14.2635 53.537C14.2243 53.4867 14.1405 53.537 14.174 53.6041C16.8634 57.4509 16.4329 56.1481 14.2635 53.537ZM8.22484 49.6734C7.0283 51.4794 9.11945 52.3181 9.11945 52.3181C8.96612 52.0939 8.90551 51.8191 8.95033 51.5512C8.99515 51.2833 9.14192 51.0432 9.35988 50.8811C9.52061 50.9913 9.68875 51.0903 9.86309 51.1774C10.387 50.9959 10.8551 50.6819 11.2218 50.2661C11.1618 50.0591 11.0812 49.8587 10.9814 49.6678C11.2151 49.512 11.5005 49.4541 11.7765 49.5063C12.0524 49.5586 12.2969 49.7169 12.4575 49.9474C12.4575 49.9474 12.4575 47.6214 10.2209 48.1749C7.72721 43.7969 3.83006 42.332 7.82785 49.0136C7.93409 49.2373 8.07387 49.4553 8.22484 49.6734ZM7.69925 45.2506C8.33107 45.9552 9.62826 46.6597 11.0932 50.1878C10.7208 50.5312 10.3121 50.8331 9.87428 51.088C7.36937 48.4153 7.52592 47.8953 6.45798 46.1397L7.69925 45.2506ZM20.85 35.4379C19.7318 35.6056 17.9761 36.8245 18.401 38.1497C18.0474 37.8639 17.6111 37.6998 17.1569 37.6817C16.7026 37.6635 16.2546 37.7924 15.8794 38.049C15.4225 38.3996 15.0904 38.8878 14.9324 39.4416C14.7743 39.9954 14.7985 40.5853 15.0015 41.1243H25.0156C25.9717 41.1243 26.2904 36.7742 22.958 38.0938C23.0882 37.7742 23.1311 37.4258 23.0823 37.0842C23.0335 36.7426 22.8947 36.4201 22.6802 36.1498C22.4656 35.8795 22.1831 35.6711 21.8615 35.546C21.5399 35.4209 21.1908 35.3836 20.85 35.4379ZM22.8517 38.3118C24.6186 37.1936 26.3295 39.0778 25.0379 41.0124C25.0379 41.0124 15.6669 40.8782 15.1581 40.9789C14.2858 38.1832 17.2996 36.8301 18.552 38.5075C18.5911 38.5634 18.552 38.323 18.5073 38.2615C17.9873 36.4052 21.1464 34.616 22.4939 36.1088C23.3885 37.0929 22.5889 38.4851 22.8517 38.3118ZM11.8033 23.2041C11.77 23.261 11.7497 23.3247 11.7439 23.3904C11.7381 23.4561 11.7469 23.5224 11.7697 23.5843C11.5629 23.8135 11.9207 24.4733 12.4575 24.1099C13.3941 24.5006 14.3832 24.7512 15.3929 24.8535C15.1078 25.7593 14.4536 28.1356 15.2699 28.6165C16.0862 29.0973 17.2213 26.3799 17.5568 25.5692C17.794 25.4874 18.0139 25.3623 18.2053 25.2002C19.6311 25.3176 22.7455 25.4182 21.7894 24.026C21.4036 23.4669 19.195 23.0475 18.5241 22.9413C18.8987 21.7951 19.9051 18.362 18.2333 19.0274C17.5232 19.3013 16.8467 20.9675 16.377 22.1361C16.0735 22.2064 15.7962 22.3616 15.5774 22.5834C14.666 22.494 12.1779 22.3654 11.8033 23.2041ZM18.5688 23.0699C19.2174 23.1705 21.4371 23.629 21.672 24.0931C22.3094 25.312 19.6759 25.0883 18.3787 25.0157C18.636 24.7666 18.7964 24.4341 18.8312 24.0777C18.8661 23.7213 18.773 23.364 18.5688 23.0699ZM18.2668 19.156C19.6311 18.759 18.7477 21.5714 18.3507 22.8406C18.1221 22.5871 17.8384 22.3893 17.5215 22.2623C17.2046 22.1353 16.8628 22.0826 16.5224 22.1082C16.774 21.4875 17.6462 19.3237 18.2668 19.1448V19.156ZM17.3666 25.6419C15.8067 29.9137 14.2076 29.1756 15.5215 24.9318C15.7114 25.2329 15.9941 25.4641 16.3271 25.5902C16.66 25.7163 17.0249 25.7305 17.3666 25.6307V25.6419ZM15.4936 22.7176C15.2964 23.0035 15.1804 23.3374 15.1578 23.684C15.1351 24.0305 15.2067 24.3767 15.365 24.6858C15.365 24.6858 13.039 24.3223 12.5693 24.0036C12.7538 23.8303 12.6252 23.3494 11.9487 23.4445C11.8368 23.137 12.2841 22.9636 12.4798 22.8854C13.4624 22.625 14.4871 22.5642 15.4936 22.7064V22.7176ZM11.3336 16.1255C11.6006 16.2397 11.8349 16.4187 12.0155 16.6461C12.1961 16.8735 12.3172 17.1423 12.368 17.4282C12.519 17.7469 12.368 16.1702 13.257 16.1031C13.2962 16.1031 13.3185 16.036 13.257 16.0136C12.8656 15.8123 12.3233 15.7508 11.9766 14.2076C11.9766 14.1182 11.7977 14.1629 11.8424 14.2468C12.1891 14.9177 11.3224 16.0472 11.3168 16.0472C11.3065 16.0494 11.2974 16.0557 11.2916 16.0646C11.2859 16.0735 11.2839 16.0843 11.2861 16.0947C11.2883 16.1051 11.2946 16.1142 11.3035 16.1199C11.3124 16.1257 11.3232 16.1277 11.3336 16.1255ZM12.0269 14.8618C12.0884 15.1171 12.2048 15.3559 12.368 15.5616C12.5312 15.7673 12.7373 15.9349 12.9719 16.0528C12.8012 16.1453 12.6558 16.2783 12.5486 16.4401C12.4413 16.602 12.3755 16.7877 12.3568 16.9809C12.2931 16.7549 12.1705 16.5498 12.0016 16.3867C11.8326 16.2236 11.6233 16.1084 11.3951 16.0528C11.7421 15.7447 11.9664 15.3219 12.0269 14.8618ZM11.2553 10.0645C12.258 9.83611 13.2443 9.54098 14.2076 9.18104C14.8058 9.48297 12.4631 6.94451 11.574 6.32946C11.5349 6.30151 11.4902 6.36301 11.5181 6.39656C11.3448 7.5828 11.2328 8.77721 11.1826 9.975C11.1826 9.975 11.233 10.0645 11.2553 10.0645ZM11.5796 6.45247C13.4695 8.34793 13.3577 8.43739 14.0734 9.06362C13.1564 9.35996 12.2506 9.74576 11.3168 9.96941C11.3839 8.78964 11.4678 7.61547 11.5796 6.44688V6.45247ZM11.0652 39.4748C11.0749 39.4867 11.0888 39.4942 11.104 39.4958C11.1192 39.4974 11.1344 39.4928 11.1463 39.4832C11.1582 39.4736 11.1657 39.4596 11.1673 39.4444C11.1689 39.4292 11.1643 39.414 11.1547 39.4021C11.1061 39.1245 11.1283 38.8391 11.2192 38.5723C11.3101 38.3055 11.4667 38.0659 11.6747 37.8757C11.7418 37.8142 11.6747 37.6856 11.6132 37.7303C10.6962 38.2391 10.0532 37.2103 10.042 37.1712C10.0308 37.132 9.9246 37.1712 9.94697 37.2103C10.3775 38.3286 9.72331 38.7479 9.43815 38.8877C9.4102 38.8877 9.43815 38.9548 9.43815 38.9436C9.72655 38.8119 10.0539 38.7934 10.3553 38.8918C10.6567 38.9902 10.9101 39.1983 11.0652 39.4748ZM10.165 37.5514C10.3211 37.7266 10.5206 37.8576 10.7434 37.9312C10.9662 38.0048 11.2045 38.0184 11.4343 37.9707C11.1386 38.2987 10.977 38.7258 10.9814 39.1673C10.8477 39.0207 10.6813 38.9079 10.4957 38.8379C10.3101 38.768 10.1106 38.7429 9.91342 38.7647C10.0555 38.6008 10.1533 38.4033 10.1973 38.1908C10.2414 37.9784 10.2303 37.7583 10.165 37.5514ZM18.0096 50.1878C17.9817 50.1878 18.0096 50.2437 18.0096 50.2437C18.2883 50.1026 18.6107 50.0745 18.9096 50.1651C19.2085 50.2557 19.4609 50.4581 19.6144 50.7301C19.6535 50.7861 19.7318 50.7301 19.7038 50.6575C19.6627 50.38 19.6884 50.0967 19.7789 49.8312C19.8693 49.5657 20.0219 49.3257 20.2238 49.131C20.2853 49.0695 20.2238 48.9521 20.1623 48.9856C20.0228 49.0543 19.871 49.0943 19.7158 49.1033C19.5605 49.1123 19.4051 49.0901 19.2586 49.038C19.1121 48.9858 18.9776 48.9049 18.863 48.7998C18.7483 48.6948 18.6559 48.5679 18.5911 48.4265C18.5911 48.3762 18.4737 48.4265 18.4961 48.4657C18.9658 49.5839 18.3004 50.02 18.0096 50.1878ZM18.7365 48.8067C18.8926 48.9819 19.0921 49.1129 19.3149 49.1865C19.5377 49.2601 19.776 49.2738 20.0057 49.2261C19.7388 49.5695 19.5863 49.988 19.5696 50.4226C19.4383 50.2731 19.2722 50.1581 19.0859 50.0879C18.8997 50.0177 18.6991 49.9944 18.5017 50.02C18.641 49.8546 18.7356 49.6562 18.7767 49.4439C18.8178 49.2315 18.804 49.0122 18.7365 48.8067ZM7.97323 56.6961C7.98287 56.7079 7.99682 56.7155 8.01203 56.7171C8.02723 56.7186 8.04244 56.7141 8.0543 56.7045C8.06617 56.6948 8.07371 56.6809 8.07529 56.6657C8.07686 56.6505 8.07233 56.6353 8.06269 56.6234C7.94527 56.0251 8.06269 55.7791 8.59386 55.1081C8.64978 55.041 8.59387 54.9292 8.53236 54.9628C8.39276 55.0331 8.24034 55.0745 8.08431 55.0844C7.92827 55.0942 7.77186 55.0724 7.62451 55.0201C7.47716 54.9679 7.34192 54.8863 7.22696 54.7803C7.11199 54.6744 7.01969 54.5462 6.95561 54.4036C6.95561 54.3533 6.84378 54.4036 6.86615 54.4428C6.95109 54.5866 7.0054 54.7465 7.02568 54.9123C7.04596 55.0782 7.03177 55.2464 6.984 55.4065C6.93624 55.5666 6.85592 55.7151 6.74809 55.8427C6.64025 55.9704 6.50722 56.0743 6.35734 56.1481V56.204C6.63883 56.0656 6.96241 56.0395 7.26248 56.1308C7.56255 56.2222 7.81664 56.4243 7.97323 56.6961ZM7.07862 54.795C7.23387 54.9697 7.43239 55.1005 7.65422 55.1741C7.87605 55.2477 8.11335 55.2616 8.34226 55.2144C8.19148 55.3752 8.07388 55.5641 7.99617 55.7704C7.91846 55.9766 7.88216 56.1962 7.88936 56.4165C7.75682 56.2698 7.59155 56.1563 7.40698 56.0854C7.2224 56.0145 7.0237 55.9881 6.82701 56.0083C6.9682 55.8439 7.06535 55.6464 7.10936 55.4341C7.15337 55.2219 7.14279 55.002 7.07862 54.795ZM12.1332 72.2288C13.5436 72.6806 14.8337 73.4451 15.9073 74.4653C16.8813 75.4782 17.7943 76.548 18.6415 77.6691C18.6974 77.7362 18.798 77.6691 18.7533 77.5852C17.3443 75.1307 14.9176 72.8885 12.1444 72.184C12.1164 72.1784 12.1108 72.2232 12.1332 72.2288ZM18.5911 73.5539C18.6526 73.5875 18.7253 73.498 18.6694 73.4533C17.6538 72.493 16.3347 71.9176 14.94 71.8262C14.8785 71.8262 14.8785 71.9212 14.94 71.9268C16.3602 72.0275 17.4393 72.8159 18.5911 73.5539ZM18.8148 71.2391C17.8195 70.541 16.663 70.1075 15.4541 69.9793C14.2451 69.8512 13.0234 70.0327 11.9039 70.5066C11.8648 70.5066 11.9039 70.5905 11.9039 70.5793C13.0284 70.1972 14.2229 70.0663 15.4034 70.1958C16.5839 70.3252 17.7216 70.7119 18.7365 71.3286C18.7484 71.3389 18.7639 71.3442 18.7796 71.3431C18.7953 71.3421 18.81 71.3348 18.8204 71.323C18.8308 71.3111 18.836 71.2956 18.835 71.2799C18.8339 71.2641 18.8267 71.2495 18.8148 71.2391ZM75.5947 85.1447C75.2704 85.9163 74.5714 87.4316 74.5659 87.4427C73.8656 89.9138 73.3166 92.4252 72.922 94.9631C72.922 94.9631 74.0403 95.17 74.0403 95.1588C74.8119 92.665 75.2368 90.0483 75.9301 87.5434C75.9301 87.5434 75.6841 85.1839 75.6897 85.1727C75.6953 85.1615 75.6114 85.0944 75.5947 85.1447ZM75.645 85.2901C75.6338 85.4539 75.6338 85.6183 75.645 85.7821H75.4661C75.5443 85.5976 75.5947 85.441 75.645 85.2901ZM72.9891 94.8736C73.3134 93.5093 74.4876 88.589 74.6665 87.4987C74.6665 87.4987 75.0132 87.4595 75.1865 87.4595C74.4988 89.9085 73.4532 94.9239 73.4532 94.9295C73.3012 94.8929 73.1454 94.8741 72.9891 94.8736ZM73.9955 95.019L73.5538 94.9463C74.113 92.4582 75.2704 87.4595 75.2704 87.4539C75.4613 87.477 75.6489 87.522 75.8295 87.5881C75.3542 88.7176 74.3031 93.733 73.9955 95.019ZM74.6609 87.3868C74.957 86.9112 75.2132 86.4119 75.4269 85.8939C75.5083 85.9214 75.5929 85.9383 75.6785 85.9443C75.6785 86.0281 75.768 87.0625 75.8127 87.4651C75.4328 87.3972 75.0465 87.3709 74.6609 87.3868ZM73.8949 95.2203C73.5604 95.1525 73.2226 95.1021 72.8829 95.0693C72.8437 95.0693 72.8214 95.1252 72.8829 95.1476C73.204 95.2623 73.5385 95.3356 73.8781 95.3656C73.9508 95.388 73.99 95.237 73.8949 95.2203ZM72.8158 95.4383C73.0786 95.6676 73.4811 95.5613 73.7831 95.6899C73.7932 95.6968 73.8048 95.7013 73.8168 95.7032C73.8289 95.7051 73.8413 95.7043 73.8531 95.701C73.8649 95.6976 73.8757 95.6917 73.885 95.6836C73.8942 95.6756 73.9016 95.6656 73.9065 95.6544C73.9115 95.6432 73.914 95.6311 73.9137 95.6188C73.9135 95.6066 73.9106 95.5946 73.9053 95.5836C73.8999 95.5726 73.8922 95.5629 73.8827 95.5552C73.8731 95.5475 73.862 95.5419 73.8502 95.539C73.6824 95.4831 72.6872 95.3041 72.8158 95.4383ZM82.2819 90.6969C81.9706 90.6299 81.6455 90.6772 81.3663 90.8301C81.087 90.9831 80.8721 91.2316 80.761 91.53C80.297 93.2074 82.8857 93.8672 83.2436 92.2066C83.3138 91.879 83.2522 91.537 83.0722 91.2546C82.8923 90.9721 82.6084 90.7717 82.2819 90.6969ZM80.9735 91.3455C81.2307 90.7863 82.0918 90.7528 82.2539 90.7863C82.5155 90.8689 82.7414 91.0377 82.8947 91.2652C83.0481 91.4926 83.1198 91.7653 83.0982 92.0388C82.992 93.7889 80.2019 92.9837 80.9735 91.3455ZM87.4091 94.3983C87.4706 93.3975 87.219 92.6035 87.1743 92.9278C87.1165 93.4275 87.1372 93.9331 87.2358 94.4263C87.2581 94.5214 87.4035 94.4934 87.4091 94.3983ZM87.3923 96.9536C87.3923 97.0598 87.5769 97.0319 87.5769 96.9256C87.5803 96.4658 87.5372 96.0069 87.4482 95.5557C87.2861 95.1532 87.3252 96.5119 87.3923 96.9536ZM88.9579 94.594C86.7214 94.9575 87.4986 95.0637 89.0138 94.7953C89.148 94.773 89.0865 94.5717 88.9579 94.594ZM87.0065 94.9407C86.5625 94.9469 86.1196 94.9861 85.6814 95.0581C85.6715 95.0616 85.663 95.068 85.6569 95.0765C85.6509 95.085 85.6476 95.0952 85.6476 95.1057C85.6476 95.1161 85.6509 95.1263 85.6569 95.1348C85.663 95.1433 85.6715 95.1497 85.6814 95.1532C86.1308 95.2151 86.5879 95.1924 87.0289 95.0861C87.0384 95.0846 87.0476 95.0813 87.0559 95.0763C87.0641 95.0713 87.0713 95.0647 87.077 95.0569C87.0827 95.0491 87.0869 95.0403 87.0891 95.0309C87.0914 95.0215 87.0919 95.0118 87.0904 95.0022C87.0889 94.9927 87.0856 94.9835 87.0806 94.9752C87.0756 94.967 87.069 94.9598 87.0612 94.9541C87.0534 94.9484 87.0446 94.9443 87.0352 94.942C87.0258 94.9397 87.0161 94.9392 87.0065 94.9407Z" fill="black"/>
<path d="M9.02447 49.1143C9.03598 49.2108 9.08246 49.2997 9.1551 49.3642C9.22775 49.4286 9.32152 49.4643 9.41866 49.4643C9.5158 49.4643 9.60957 49.4286 9.68222 49.3642C9.75486 49.2997 9.80134 49.2108 9.81285 49.1143C9.81285 48.8962 9.02447 48.5887 9.02447 49.1143ZM8.16341 47.7724C8.175 47.8703 8.22211 47.9605 8.29579 48.026C8.36948 48.0914 8.46462 48.1276 8.56319 48.1276C8.66175 48.1276 8.7569 48.0914 8.83058 48.026C8.90427 47.9605 8.95137 47.8703 8.96297 47.7724C8.95137 47.6745 8.90427 47.5843 8.83058 47.5188C8.7569 47.4533 8.66175 47.4172 8.56319 47.4172C8.46462 47.4172 8.36948 47.4533 8.29579 47.5188C8.22211 47.5843 8.175 47.6745 8.16341 47.7724ZM7.16815 46.5255C7.16815 46.6308 7.20998 46.7318 7.28443 46.8062C7.35887 46.8807 7.45985 46.9225 7.56514 46.9225C7.67042 46.9225 7.7714 46.8807 7.84585 46.8062C7.92029 46.7318 7.96212 46.6308 7.96212 46.5255C7.96212 46.3075 7.16815 45.9999 7.16815 46.5255ZM34.8899 38.994C34.9863 38.994 35.0787 38.9557 35.1469 38.8876C35.2151 38.8194 35.2534 38.727 35.2534 38.6306C35.2534 38.5342 35.2151 38.4418 35.1469 38.3736C35.0787 38.3054 34.9863 38.2672 34.8899 38.2672C34.6663 38.2672 34.4091 38.994 34.8899 38.994ZM37.831 40.3527C37.8372 40.3039 37.833 40.2543 37.8185 40.2072C37.8041 40.1601 37.7798 40.1167 37.7473 40.0797C37.7148 40.0428 37.6747 40.0132 37.6299 39.9929C37.585 39.9726 37.5363 39.9621 37.4871 39.9621C37.4379 39.9621 37.3892 39.9726 37.3443 39.9929C37.2995 40.0132 37.2594 40.0428 37.2269 40.0797C37.1944 40.1167 37.1701 40.1601 37.1556 40.2072C37.1412 40.2543 37.137 40.3039 37.1432 40.3527C37.1432 40.5596 37.831 40.8168 37.831 40.3527Z" fill="black"/>
</svg>
