<svg width="112" height="112" viewBox="0 0 112 112" fill="none" xmlns="http://www.w3.org/2000/svg">
<path fill-rule="evenodd" clip-rule="evenodd" d="M32.1279 26.0445V26.4415C32.1279 26.5527 32.172 26.6594 32.2507 26.738C32.3293 26.8167 32.436 26.8609 32.5472 26.8609C32.6584 26.8609 32.7651 26.8167 32.8437 26.738C32.9224 26.6594 32.9666 26.5527 32.9666 26.4415V26.0222C32.9608 25.9119 32.913 25.8081 32.8328 25.7321C32.7527 25.6561 32.6464 25.6139 32.536 25.614C32.4807 25.6147 32.4261 25.6265 32.3755 25.6487C32.3248 25.6708 32.2791 25.7029 32.241 25.7431C32.203 25.7832 32.1733 25.8306 32.1539 25.8823C32.1345 25.9341 32.1256 25.9893 32.1279 26.0445ZM31.9657 24.876C32.5808 24.7306 33.084 24.3168 32.1894 24.3727C31.9678 24.4036 31.749 24.4523 31.5352 24.5181C30.6965 24.8648 31.4234 25.0046 31.9657 24.876ZM83.2661 28.7675C83.0085 29.3081 82.5774 29.747 82.0416 30.0144C82.0208 30.0218 82.0032 30.0362 81.9919 30.0551C81.9806 30.0741 81.9762 30.0963 81.9795 30.1182C81.9828 30.14 81.9936 30.16 82.01 30.1747C82.0265 30.1894 82.0475 30.198 82.0695 30.1989C82.2505 30.2308 82.4365 30.2175 82.6112 30.1604C82.7858 30.1033 82.9437 30.004 83.0708 29.8713C83.198 29.7386 83.2905 29.5767 83.3401 29.3998C83.3898 29.2228 83.3951 29.0364 83.3555 28.857C83.3555 28.8332 83.3461 28.8105 83.3293 28.7937C83.3126 28.7769 83.2898 28.7675 83.2661 28.7675ZM81.0407 24.3336C80.9333 24.3061 80.8193 24.3217 80.7232 24.377C80.6271 24.4324 80.5564 24.5232 80.5263 24.6299C80.4757 24.8119 80.4662 25.0029 80.4984 25.1891C80.4984 25.3003 80.5426 25.4069 80.6212 25.4856C80.6998 25.5642 80.8065 25.6084 80.9177 25.6084C81.0289 25.6084 81.1356 25.5642 81.2143 25.4856C81.2929 25.4069 81.3371 25.3003 81.3371 25.1891C81.3371 24.7865 81.4265 24.4398 81.0407 24.3336ZM61.8122 79.2683C61.3593 79.0391 52.6983 79.6038 52.4803 80.5767C52.4355 80.7892 52.5753 81.6055 52.8213 81.7397C53.3078 81.9969 61.6389 81.5272 62.0973 80.6214C62.2277 80.4011 62.2707 80.1399 62.2179 79.8894C62.1651 79.6389 62.0204 79.4173 61.8122 79.2683ZM52.9276 81.5048C52.7552 81.234 52.6622 80.9201 52.6592 80.599C52.771 80.0958 57.3839 79.8219 57.8927 79.7883C57.8805 80.2401 57.9969 80.686 58.2282 81.0743C57.5907 81.175 53.2295 81.667 52.9276 81.5216V81.5048ZM61.6892 80.3866C61.2475 80.6997 59.0053 80.9849 58.4686 81.052C58.5156 80.6094 58.4217 80.1632 58.2002 79.7771C58.8656 79.7324 60.9959 79.615 61.6277 79.6709C61.7954 79.7939 61.801 80.1741 61.6892 80.3978V80.3866ZM47.1182 80.5935C47.1031 80.584 47.0857 80.579 47.0679 80.579C47.0501 80.579 47.0326 80.584 47.0176 80.5935C47.0176 80.5375 36.3381 86.5538 36.0138 87.1912C35.9994 87.2218 35.9919 87.2552 35.9919 87.2891C35.9919 87.3229 35.9994 87.3563 36.0138 87.3869C36.3549 88.3654 47.4984 98.441 47.9625 98.6702C48.0967 98.7373 48.2644 98.6199 48.79 98.3403C49.9083 97.742 59.4526 92.6428 60.4367 91.8208C60.7107 91.5413 60.8784 89.0252 60.7275 88.74C60.5765 88.4549 47.1182 80.6494 47.1182 80.5935ZM48.0855 98.2061C46.8945 97.2612 37.462 88.7624 36.4164 87.3198C37.3893 86.4028 46.7995 80.9513 47.0846 80.7836C48.5272 81.6614 58.9103 87.9796 60.241 88.8742C59.5377 89.0775 58.8687 89.3847 58.2561 89.7856C57.9374 90.0931 58.7314 90.6634 59.8329 91.7314C58.1499 92.8161 49.802 97.2891 48.0855 98.2061ZM60.1516 91.4127C60.0957 91.3568 58.7481 90.0428 58.6866 89.9925C59.2298 89.6534 59.7897 89.3418 60.364 89.0587C60.3658 89.8488 60.2909 90.6371 60.1404 91.4127H60.1516Z" fill="black"/>
<path fill-rule="evenodd" clip-rule="evenodd" d="M55.5051 90.3838C55.1137 90.5516 50.3387 92.1339 48.9912 92.6819C48.5952 92.8793 48.1636 92.9952 47.722 93.0229C47.6437 93.0229 48.0966 92.1507 51.5241 89.478C51.8819 89.1985 52.5697 88.6673 52.6423 88.2312C52.9722 86.7886 49.0639 88.9469 45.5693 90.3112C45.2079 90.5053 44.8135 90.6304 44.4063 90.6802C44.3672 90.4509 45.1556 89.7297 45.2059 89.6737C47.2914 87.3701 49.9361 86.4196 49.7572 85.5697C49.4832 84.239 44.63 86.8278 43.6068 87.2471C42.7457 87.6105 41.3702 88.0467 41.4541 88.0467C41.2696 88.1194 41.4541 88.248 41.4877 88.2312C41.5212 88.2144 43.2937 87.6721 43.7242 87.4819C44.3672 87.2359 48.6669 85.1615 49.3826 85.648C49.6678 85.8493 46.6261 87.4875 44.9095 89.383C44.6076 89.7073 43.7913 90.3671 44.0429 90.9038C44.089 90.9868 44.159 91.054 44.2437 91.0969C44.3284 91.1397 44.424 91.1562 44.5182 91.1443C45.3513 91.1443 51.032 88.2983 52.2006 88.2088C51.9324 88.5628 51.6119 88.8739 51.2501 89.1314C50.417 89.7912 48.0015 91.7593 47.4424 92.6651C47.1517 93.1348 47.3921 93.4143 47.7723 93.4199C48.2755 93.4199 48.8906 93.0789 50.4058 92.5085C55.5442 90.5292 55.7064 90.6187 55.6225 90.4342C55.6182 90.4231 55.6117 90.413 55.6035 90.4044C55.5952 90.3959 55.5853 90.389 55.5744 90.3843C55.5634 90.3797 55.5517 90.3772 55.5398 90.3771C55.5279 90.377 55.5161 90.3793 55.5051 90.3838Z" fill="black"/>
<path fill-rule="evenodd" clip-rule="evenodd" d="M109.031 69.0641C108.958 63.2156 108.432 51.2781 107.275 45.4911C106.666 42.4215 105.346 38.2224 102.891 36.1927C101.852 35.3372 100.319 34.5153 97.5406 32.9777C97.5741 32.905 93.1514 31.1158 92.9445 31.7085C92.7727 30.6887 92.5318 29.6818 92.2232 28.6948C92.637 28.5606 92.4525 27.3528 92.6258 26.6707C92.7991 25.9886 93.4533 25.5021 93.7888 24.943C94.5436 23.6961 94.6722 21.5211 94.5325 20.0729C94.3983 18.7254 92.4301 15.7173 91.1329 15.2253C89.8358 14.7332 88.505 14.75 87.1351 14.476C86.0169 14.2468 85.1894 13.6262 83.9369 13.4696C82.6844 13.313 81.9352 14.0287 80.8617 14.0287C79.7881 14.0287 78.5804 13.1956 77.4566 13.1285C76.846 13.1191 76.2527 13.3315 75.7869 13.7263C75.3211 14.1212 75.0143 14.6717 74.9237 15.2756C74.7881 16.1757 74.8948 17.0957 75.2328 17.9409C75.5709 18.7861 76.1281 19.5259 76.8471 20.0841C77.7225 20.6379 78.7062 20.9982 79.7322 21.1409C79.6651 23.9981 79.9671 23.232 79.6316 23.4836C79.2961 23.7353 79.4023 25.4965 79.5198 25.983C79.5701 26.1787 79.6204 26.2514 79.8608 26.3296C79.7266 26.8888 78.7817 28.0965 79.6316 28.3928C79.7434 28.432 80.1907 28.5102 80.2355 28.527C80.35 29.0573 80.5186 29.5744 80.7387 30.0702C80.9555 30.5687 81.2724 31.0175 81.6696 31.3887C82.0667 31.7599 82.5359 32.0457 83.0479 32.2285C83.853 32.5416 84.4904 32.6255 84.9601 32.7876C85.0248 33.0188 85.0587 33.2576 85.0608 33.4977C83.064 34.0225 81.1829 34.9157 79.5142 36.1312C76.4893 38.5858 72.1895 48.7676 71.0657 49.8859C70.6296 50.3164 60.3583 52.3069 58.8431 53.3357C58.5467 53.537 58.5355 53.7103 58.5747 54.0682C58.2056 54.1353 56.6513 54.426 56.4779 54.7559C56.4268 54.9955 56.4403 55.2445 56.5171 55.4772C55.1335 55.2188 53.7376 55.0322 52.3348 54.9181C52.078 54.924 51.8254 54.9839 51.5933 55.0937C51.3612 55.2035 51.1547 55.3608 50.9873 55.5555C50.5176 56.1146 50.8978 56.0195 50.4002 55.9413C49.3434 55.7903 45.5581 57.0595 45.0828 57.2832C45.0828 57.0819 45.0828 56.9421 44.8703 56.8303C44.2463 56.6494 43.5943 56.585 42.9469 56.6402C42.5555 56.903 44.0652 56.8135 44.6914 57.1378C44.6914 57.5683 44.7473 61.9855 44.6914 62.8521C44.6914 63.0087 44.6914 62.9863 44.574 63.0031C44.0149 63.0814 43.2097 63.0031 42.9637 63.182C43.0532 61.2362 42.9637 56.4724 42.6953 56.1929C42.5332 56.0251 39.5474 55.6673 36.2989 55.2759C36.3104 52.9255 36.1797 50.5766 35.9075 48.242C35.3092 43.0533 34.0567 36.9364 30.1428 33.8332C30.3696 33.9258 30.6192 33.9472 30.8585 33.8947C31.178 33.7679 31.522 33.7144 31.8649 33.7381C32.4241 33.8891 32.4968 34.2973 33.8946 33.3579C33.984 33.2964 34.2189 33.3132 34.4034 33.1287C35.0352 32.4969 34.7165 31.6414 34.7165 31.004C34.8091 30.5706 34.8392 30.1263 34.806 29.6844C34.7888 29.6186 34.7567 29.5575 34.7121 29.5061C34.6675 29.4547 34.6116 29.4143 34.5488 29.3881C34.5488 29.2036 34.7445 28.8737 34.4649 28.5158C34.8675 28.3034 35.3036 28.0574 35.0799 27.6212C34.6527 26.9379 34.3003 26.2106 34.0288 25.4518C33.8554 24.8032 34.0903 23.9757 34.0791 23.2768C34.0791 22.7959 34.1294 22.22 34.0791 21.6944C34.5104 21.3933 34.8399 20.9682 35.024 20.4755C35.0648 20.2764 35.0561 20.0702 34.9986 19.8752C34.941 19.6803 34.8365 19.5024 34.6941 19.3573C34.5096 19.2398 34.4705 19.3573 34.4761 19.0106C34.4963 18.8889 34.4908 18.7644 34.46 18.645C34.4292 18.5256 34.3737 18.4139 34.2972 18.3173C34.0623 18.088 33.5256 17.8364 33.3578 17.6016C33.0727 17.1822 32.9049 16.7629 32.3682 16.5951C31.9879 16.4721 31.6301 16.7126 31.3729 16.6287C31.0206 16.5169 30.6572 16.1367 30.2546 16.5392C30.1647 16.588 30.0661 16.6185 29.9644 16.629C29.8627 16.6396 29.7599 16.63 29.662 16.6007C29.3265 16.3156 29.2426 15.8235 28.6723 15.7173C28.348 15.6614 27.7106 15.8179 27.4646 15.7173C27.0615 15.4206 26.6169 15.1851 26.145 15.0184C25.6175 14.9682 25.0852 15.0136 24.5739 15.1526C24.216 15.2253 23.7575 15.1861 23.3829 15.242C22.6057 15.3651 22.3821 16.036 21.8677 16.3603C21.3533 16.6846 20.4866 16.6902 19.9946 17.4171C19.5808 18.0321 19.6703 18.6975 19.5081 19.3125C19.441 19.5753 19.0832 19.8717 18.949 20.14C18.6359 20.7607 18.8763 21.3869 18.8707 21.9237C18.8651 22.4604 18.4905 22.9525 18.5967 23.6011C18.683 23.925 18.8249 24.2315 19.0161 24.5069C19.0184 24.5975 19.0071 24.688 18.9825 24.7752C18.812 25.2152 18.7769 25.6962 18.8819 26.1563C18.9734 26.5974 19.1864 27.0041 19.4969 27.3305C19.8883 27.6715 20.0896 27.5821 20.3748 28.0685C20.4947 28.3258 20.675 28.5502 20.9004 28.7227C21.3141 29.0023 21.8229 28.7619 22.0689 28.8849C22.222 28.9657 22.3889 29.0169 22.561 29.0358C22.4233 29.1054 22.3044 29.207 22.2143 29.3322C19.1726 29.718 15.1581 31.9377 12.7091 34.9738C11.7418 36.2207 10.1147 38.0211 9.50525 39.4636C6.22873 46.8666 7.82785 58.4741 6.5083 62.0582L3.24297 70.5737C3.08641 70.9819 2.68384 73.0116 2.82921 73.7105C3.06404 74.7505 4.15435 73.4477 4.81972 72.7096C4.40596 74.1801 4.41155 74.566 4.19349 80.353C4.1264 82.1646 4.06489 84.1383 4.03693 85.7989C4.03533 85.8108 4.03631 85.823 4.0398 85.8344C4.04329 85.846 4.04921 85.8566 4.05717 85.8656C4.06512 85.8746 4.07492 85.8818 4.0859 85.8867C4.09688 85.8916 4.10878 85.8941 4.1208 85.894C4.27736 85.894 4.17672 86.0729 4.40596 81.4545C4.56811 78.2059 4.75262 75.1754 4.7694 74.9294C4.85216 73.9737 5.06279 73.0334 5.39563 72.1337C6.9571 70.9672 8.71423 70.0886 10.5844 69.5394C12.6657 68.9825 14.8636 69.0388 16.9137 69.7015C17.4729 69.886 18.9769 70.2606 19.5137 70.009C20.632 69.4499 23.5115 67.5992 23.9868 66.4753C24.2216 65.9162 24.4117 65.4633 24.5962 65.0439C25.4517 65.1222 26.5029 65.3403 27.4366 65.3515C28.4822 65.3515 29.1531 65.1837 30.3105 64.1605C34.5655 64.2556 39.2567 64.127 41.4932 64.0431C42.9861 64.6022 47.571 66.2405 48.6836 67.342C49.1198 67.7669 49.3769 68.9523 49.5335 70.2718C49.7397 71.849 49.794 73.4424 49.6957 75.03C46.6316 75.6171 42.7289 76.5453 39.7096 77.2945C39.5405 77.2475 39.3638 77.2342 39.1896 77.2554C38.39 77.3392 38.7646 77.6635 38.5018 76.8528C38.5144 76.8558 38.5275 76.8556 38.54 76.8522C38.5525 76.8489 38.564 76.8425 38.5734 76.8336C38.5828 76.8247 38.5899 76.8137 38.594 76.8014C38.5981 76.7892 38.5991 76.7761 38.5969 76.7633C38.5886 75.6887 38.463 74.6181 38.2223 73.5707C38.1831 73.4141 37.9092 73.3359 37.7414 73.2855C35.9298 72.76 28.9351 72.0555 27.3975 72.4524C26.3966 72.7152 19.469 76.2937 19.1559 77.0541C18.8428 77.8145 17.9929 82.3882 17.8363 83.2325C14.2131 84.2893 11.356 85.1615 9.95814 85.6368C9.94656 85.6405 9.93586 85.6466 9.9267 85.6546C9.91755 85.6626 9.91012 85.6724 9.90489 85.6834C9.89965 85.6944 9.89672 85.7064 9.89626 85.7185C9.8958 85.7307 9.89783 85.7428 9.90223 85.7542C9.96933 85.9611 11.8033 85.0105 30.5901 80.0734C30.7789 80.5554 31.0208 81.0149 31.3114 81.4433C30.7523 81.5775 30.1204 81.8235 29.9359 82.3379C29.9031 82.4465 29.8977 82.5615 29.9201 82.6728C29.9426 82.784 29.9922 82.8879 30.0645 82.9753C30.5232 83.489 31.1347 83.8418 31.809 83.9817C32.9913 84.2781 34.2198 84.3427 35.4266 84.1718C36.5854 84.0707 37.7273 83.8266 38.8261 83.445C40.0227 82.9418 39.9444 82.1925 39.4859 81.8514C39.0134 81.5736 38.4943 81.3841 37.9539 81.2923C38.4627 80.3697 37.9874 80.7779 38.7479 80.5934C39.1782 80.4907 39.5713 80.27 39.8829 79.956C40.3749 79.4528 40.7048 78.2115 40.2351 77.6132C42.5947 77.0541 52.0831 74.7057 54.4035 74.8791C58.6138 75.1866 89.2263 87.7727 96.4726 90.1993C96.484 90.203 96.496 90.2043 96.5079 90.2034C96.5199 90.2024 96.5315 90.1991 96.5421 90.1937C96.5528 90.1882 96.5622 90.1807 96.57 90.1716C96.5777 90.1625 96.5836 90.152 96.5873 90.1406C96.5909 90.1292 96.5923 90.1172 96.5914 90.1053C96.5904 90.0934 96.5871 90.0817 96.5816 90.0711C96.5762 90.0605 96.5687 90.051 96.5596 90.0433C96.5505 90.0355 96.5399 90.0296 96.5286 90.0259C94.6331 89.3662 90.4061 87.6832 85.3459 85.6591C85.5919 85.0664 86.2405 83.1542 86.7438 82.4944C86.9506 82.2261 86.9394 82.2037 88.7846 82.3099C93.6211 82.5895 97.8817 82.4609 102.522 80.9792C105.357 80.0678 106.749 77.9655 107.555 75.153C107.717 75.2034 108.159 75.3487 108.315 75.3823C108.36 75.3931 108.406 75.3932 108.451 75.3825C108.496 75.3718 108.537 75.3506 108.572 75.3208C109.126 74.7561 109.031 70.1656 109.031 69.0641ZM32.5527 30.6182C32.4013 30.6733 32.238 30.6868 32.0796 30.6573C31.9213 30.6278 31.7738 30.5564 31.6525 30.4504C31.5318 30.3538 31.4373 30.2285 31.3777 30.0858C31.3181 29.9432 31.2953 29.7879 31.3114 29.6341C31.304 29.6111 31.306 29.5861 31.317 29.5646C31.328 29.5431 31.3471 29.5269 31.3701 29.5195C31.3931 29.5121 31.4181 29.5141 31.4396 29.5251C31.4611 29.5361 31.4773 29.5552 31.4847 29.5782C31.7608 29.9752 32.1507 30.2794 32.603 30.4504C32.6174 30.4623 32.628 30.4782 32.6334 30.4961C32.6388 30.514 32.6388 30.5331 32.6334 30.551C32.6281 30.5689 32.6176 30.5848 32.6032 30.5968C32.5888 30.6087 32.5712 30.6162 32.5527 30.6182ZM27.3024 25.7202C27.3215 25.5559 27.3875 25.4006 27.4925 25.2729C27.6155 25.1499 27.9902 25.2281 28.2529 25.0492C28.4495 24.8939 28.5986 24.6866 28.6835 24.4509C28.9966 23.8303 29.4942 24.3112 30.1875 23.288C30.3645 23.0002 30.5018 22.6899 30.5957 22.3654C30.9871 22.1809 31.4959 22.4493 31.9879 21.6385C32.1501 21.3645 32.2563 21.0794 32.5471 21.0011C32.7651 21.2359 32.9832 22.1194 33.8666 21.7783C33.8666 22.0802 33.7995 23.6067 33.7828 23.7297C33.7103 24.0982 33.671 24.4724 33.6653 24.8479C33.6653 25.9662 34.1797 26.5812 34.7501 27.7498C34.8395 27.9343 34.3698 28.1133 34.135 28.2419C33.8037 28.1198 33.4609 28.0318 33.1118 27.9791C32.0271 27.7163 31.1604 28.281 30.2267 28.5382C30.0684 28.5392 29.9106 28.5204 29.757 28.4823C29.4048 28.4487 29.0357 28.8066 28.5381 28.8737C28.4084 28.8991 28.274 28.885 28.1523 28.8332C28.0307 28.7814 27.9274 28.6942 27.856 28.5829C27.7957 28.3782 27.7526 28.1687 27.7274 27.9567C27.677 27.7554 27.6155 27.5541 27.5708 27.3584C27.4813 26.9559 27.7441 26.7993 27.4366 26.2402C27.2241 25.86 27.2297 26.0277 27.3024 25.7202ZM27.5149 37.1265C27.8914 36.412 28.1984 35.6631 28.4319 34.8899C28.745 36.8357 28.9127 37.8198 28.991 38.3118C28.5828 37.9708 28.5437 37.8422 27.5149 37.1041V37.1265ZM29.1923 39.4021C29.4663 41.0795 29.4048 40.6993 29.4551 41.046C29.3215 40.7944 29.1582 40.5597 28.9686 40.3471C29.0312 39.9777 29.0593 39.6034 29.0525 39.2288L29.1923 39.4021ZM27.1682 40.4086C26.8343 40.0614 26.5295 39.6874 26.2568 39.2903C26.5333 38.6438 26.845 38.0129 27.1906 37.4004C28.3648 38.3006 28.2753 38.2895 28.5661 38.6529C28.6087 39.1291 28.6087 39.6081 28.5661 40.0843L27.1682 40.4086ZM27.2409 40.772C27.9063 42.2537 28.1747 44.6859 28.3144 46.3074C27.6165 44.2651 26.678 42.313 25.5188 40.4924C25.7455 40.1827 25.9474 39.8555 26.1227 39.514C26.3529 39.9429 26.6285 40.3459 26.9446 40.7161C26.985 40.7415 27.0305 40.7577 27.0778 40.7635C27.1252 40.7693 27.1732 40.7646 27.2185 40.7496L27.2409 40.772ZM23.9197 28.8066C23.9652 28.8207 24.012 28.8301 24.0595 28.8345C24.1896 28.8287 24.3145 28.7809 24.4152 28.6982C24.516 28.6156 24.5873 28.5026 24.6186 28.3761C24.708 28.3201 24.7751 28.2586 24.7696 28.1524C24.764 28.0462 23.5618 26.4023 25.0938 25.558C25.229 25.5434 25.3648 25.5784 25.4759 25.6566C25.587 25.7348 25.6659 25.8509 25.6977 25.983C25.7701 26.2812 25.9228 26.5539 26.1394 26.7713C26.1564 27.1287 26.2031 27.4841 26.2792 27.8337C26.3239 28.0406 26.1674 28.309 26.1338 28.5941C26.0556 29.1532 26.5979 29.7683 26.7936 30.2715C27.0564 30.9481 26.8775 31.6749 27.5037 32.2732C28.1299 32.8715 28.0125 32.3794 28.2306 33.7214C27.9697 34.7759 27.6103 35.8037 27.157 36.791C26.5252 35.8964 23.327 30.6741 22.684 29.4831C22.9244 29.3378 23.6737 28.9128 23.8973 28.7842L23.9197 28.8066ZM22.2423 29.5502C22.6504 30.5008 26.7153 36.942 26.7153 36.9979C26.5196 37.6185 25.3958 40.1905 24.8646 40.4701C23.696 39.637 20.4922 30.8754 20.2629 30.0814C20.8938 29.8112 21.5574 29.6251 22.2367 29.5279L22.2423 29.5502ZM28.0125 54.2359C27.3975 54.0402 25.4126 47.3027 23.6401 43.5733C22.5778 41.3367 20.4922 37.6409 18.2165 36.6568C15.7563 35.6 11.1826 38.1329 10.6962 41.4206C10.3992 43.5889 10.5746 45.7957 11.2106 47.8898C13.8497 55.8686 17.4226 62.2315 25.0547 64.0543C25.2336 63.6964 24.6018 63.9928 29.6228 64.127C29.3767 64.3184 29.1149 64.4886 28.84 64.6358C27.9007 65.1446 26.1171 64.7364 24.7975 64.591L24.9652 64.2276C17.1039 62.4719 13.4248 55.8406 10.7912 48.0128C10.1262 45.8556 9.93541 43.5801 10.2321 41.3423C10.7353 37.7862 15.4712 35.2366 18.0935 36.12C18.7621 36.3692 19.3743 36.7493 19.8939 37.2383C19.6446 34.9978 19.5828 32.7404 19.7094 30.4896C19.8122 30.3983 19.9225 30.316 20.0393 30.2436C20.5201 31.921 23.2599 39.9389 24.6521 40.8279C24.7404 40.8801 24.8438 40.9008 24.9454 40.8866C25.047 40.8724 25.1407 40.8241 25.2113 40.7496C26.4693 42.9135 27.6435 45.1276 28.1132 47.4592C28.3789 48.746 28.4467 50.0659 28.3144 51.3732C27.5205 48.0855 25.3231 43.3328 22.8238 41.0572C25.379 45.4687 27.2409 52.525 28.074 53.9172C28.4073 54.0091 28.7477 54.0727 29.0916 54.1073C28.9463 50.7525 28.8344 43.7578 27.4142 40.7217C27.5876 40.7217 28.8121 40.4589 28.8121 40.4589C29.0329 40.724 29.2207 41.0151 29.3712 41.3256C29.6005 41.7673 29.5222 41.4318 29.8688 43.7801C31.5462 54.6217 31.4512 54.5658 31.6692 54.6832C30.5733 54.5434 28.6443 54.426 28.0125 54.2359ZM31.7252 51.9994C29.5445 39.6202 29.5222 39.2735 28.6052 34.1072C28.6779 33.8611 28.7338 33.6599 28.7729 33.5145C29.1196 33.9562 31.0095 36.3772 31.2163 36.9084C30.9088 37.1824 29.8017 37.6521 30.1372 38.0267C30.2882 38.2 31.535 39.2791 31.9264 39.6705C32.1389 40.5707 31.8034 50.4338 31.7252 51.9994ZM18.06 83.1598C18.2165 82.4497 19.2397 77.8313 19.5249 77.1827C19.7318 76.7018 26.4749 73.1234 27.5373 72.855C29.0693 72.4524 37.4115 73.2799 37.993 73.6546C38.2555 74.6299 38.4093 75.6312 38.4515 76.6403C37.5122 75.5221 30.2435 75.8184 30.1652 77.3952C30.1636 77.4469 30.1745 77.4983 30.1969 77.545C30.2192 77.5917 30.2525 77.6323 30.2938 77.6635C30.2901 78.3394 30.3671 79.0132 30.523 79.6708C26.2289 80.8282 21.9348 82.036 18.06 83.1598ZM39.3797 82.2876C39.6648 83.2101 36.3156 83.6071 35.3483 83.7189C34.1998 83.8825 33.0304 83.8237 31.9041 83.5456C31.412 83.4114 30.5007 83.0536 30.3273 82.6063C30.2435 82.3938 30.5174 82.1925 30.7187 82.0863C30.9737 81.9531 31.2441 81.8517 31.5239 81.7843C31.8285 82.2041 32.2369 82.5374 32.7092 82.7516C33.2684 82.9977 35.6559 82.8243 36.4834 82.6454C36.8468 82.5671 37.2326 82.4609 37.7806 81.5831C38.116 81.6334 39.2846 81.98 39.3797 82.2876ZM36.707 82.0919C36.2877 82.3435 33.3243 82.5448 32.8714 82.3603C31.3729 81.762 30.5566 79.4248 30.4951 77.7754C31.7132 78.0433 32.9634 78.1356 34.2077 78.0493C35.1414 77.9263 37.35 77.5461 38.1608 77.138C38.6472 78.9719 37.6184 81.5607 36.707 82.0919ZM39.8326 79.2067C39.6812 79.5061 39.4686 79.7704 39.2085 79.9823C38.9484 80.1942 38.6467 80.3491 38.3229 80.4368C38.6154 79.6525 38.754 78.8191 38.7311 77.9823C38.7752 77.8898 38.8393 77.8083 38.9187 77.7436C38.9981 77.6788 39.0909 77.6325 39.1903 77.6079C39.2897 77.5833 39.3934 77.5811 39.4938 77.6013C39.5942 77.6216 39.6889 77.6638 39.7711 77.725C40.1904 77.999 40.0059 78.7315 39.8326 79.2067ZM97.4232 33.1399C101.203 35.2254 102.88 36.0977 104.088 37.926C103.328 37.2727 102.361 36.9102 101.359 36.9028C97.7754 36.7798 96.0142 42.086 95.0972 45.519C93.5763 51.2446 94.5101 58.4909 94.4262 59.5533C93.4589 60.4535 88.505 63.0255 86.2909 64.2276C86.5984 62.9304 87.6943 57.9262 88.41 55.9524C89.3717 53.3022 92.1394 47.1293 92.3239 45.7874C92.3742 45.3904 92.2959 45.3401 91.1217 44.5797C91.5747 44.5797 92.7991 44.4567 93.1794 44.384C93.3415 44.384 93.4254 44.3113 93.4869 43.9702C93.6938 42.7849 94.0963 33.0168 94.1299 31.9769C94.0907 31.9545 96.9423 32.8659 97.4399 33.1399H97.4232ZM93.1123 31.8035C93.3669 31.7852 93.6227 31.8136 93.8671 31.8874C93.5875 35.9411 93.308 43.07 93.0452 43.9814C92.7488 44.0373 91.6977 44.11 91.2895 44.138C90.4173 44.1883 90.3949 44.138 90.3054 44.261C90.216 44.384 90.339 44.5517 90.5011 44.6636C90.7863 44.8649 91.7368 45.4631 91.871 45.6197C91.7419 46.2854 91.5433 46.9357 91.2783 47.5599C88.1192 55.9469 88.3093 53.3693 86.1846 62.567C86.3266 58.161 86.7336 53.7676 87.4035 49.4106C87.8508 47.0119 88.3932 44.7586 90.1992 39.6258C90.9093 37.6409 92.3798 33.8388 92.4357 33.8611C92.7162 33.1929 92.9479 32.5052 93.129 31.8035H93.1123ZM83.4001 66.1175C83.5064 66.5312 83.5064 66.4753 83.4728 66.4809L83.2995 66.4474C83.2995 66.3914 82.9976 60.7778 83.1429 58.4574C83.4057 54.3477 83.7412 49.8915 84.0543 45.5973C84.2053 43.5174 84.7756 39.0499 84.7588 39.2176L85.318 38.8039C85.55 39.2668 85.8134 39.7133 86.1063 40.1402C86.2182 40.2912 86.3691 40.4813 86.548 40.498C86.425 41.5101 84.5631 53.9955 84.0152 61.9743C83.7132 66.3188 84.0152 65.3962 83.5735 65.7932C83.521 65.8286 83.4789 65.8772 83.4514 65.9342C83.4239 65.9912 83.412 66.0544 83.4169 66.1175H83.4001ZM86.7214 40.5036C87.1463 40.5036 87.6048 39.609 88.1639 39.2288C88.382 39.4581 89.0418 40.5539 89.4779 40.6993C87.6272 45.7762 85.6479 52.8549 85.6534 64.5407C85.1782 64.7979 84.5352 65.1669 84.0599 65.4409C84.3395 60.6827 86.3635 45.0661 86.7382 40.5036H86.7214ZM92.5923 32.9889C92.4134 33.548 89.7575 39.9613 89.573 40.2576C89.2847 39.9749 89.0278 39.6619 88.8069 39.3239C88.3373 38.692 88.1751 38.4852 87.3756 39.3854C88.5609 37.1488 90.8757 34.8788 91.8486 33.7493C92.7768 32.687 92.6538 32.7764 92.5923 32.9889ZM80.0677 21.2471C80.4848 21.3756 80.931 21.3756 81.3481 21.2471C81.6673 21.1053 82.0196 21.055 82.3657 21.1017C82.8544 21.327 83.3567 21.5212 83.8698 21.6832C84.5044 21.6777 85.1378 21.6272 85.7653 21.5323C86.0528 21.6666 86.2963 21.8798 86.4675 22.147C86.6388 22.4142 86.7307 22.7246 86.7326 23.0419C85.6905 23.1933 84.6846 23.5324 83.7636 24.0428C83.707 23.8592 83.5949 23.6977 83.4427 23.5805C83.2905 23.4633 83.1056 23.3963 82.9137 23.3886C81.9969 23.2783 81.0708 23.267 80.1516 23.355C80.07 22.6406 80.042 21.921 80.0677 21.2024V21.2471ZM79.8496 26.0165C79.7099 25.7705 79.4359 23.8639 79.7155 23.657C79.7602 23.7129 79.5645 23.5396 80.6268 23.5507C81.3756 23.5744 82.1224 23.6416 82.8634 23.752C83.3666 23.8415 83.4505 24.0707 83.4225 24.5572C83.4225 25.4574 83.4505 25.3679 83.4225 25.6475C83.4225 25.7258 83.389 25.9326 83.3275 25.9774C82.1774 26.1855 80.9991 26.1836 79.8496 25.9718V26.0165ZM84.9881 32.3179C83.4561 31.8818 82.0526 31.8259 81.1077 29.8801C80.4982 28.6277 80.8337 28.2642 80.2802 28.1021C80.0749 28.0776 79.8726 28.0327 79.6763 27.9679C79.6763 27.5933 80.146 26.8105 80.2355 26.4135C81.164 26.5245 82.1025 26.5245 83.0311 26.4135C83.5902 26.3296 83.8866 26.2346 83.7971 25.0995V24.2329C84.675 23.9645 86.5369 23.5228 86.7605 23.4613C86.7619 23.7654 86.8032 24.0681 86.8835 24.3615C86.9709 24.546 87.1217 24.6928 87.3085 24.7752C87.3383 24.7885 87.3709 24.7947 87.4035 24.7934C87.4362 24.792 87.4681 24.7832 87.4968 24.7675C87.5254 24.7518 87.5501 24.7297 87.5688 24.7029C87.5876 24.6761 87.5999 24.6454 87.6048 24.6131C87.7334 24.0931 87.8341 23.629 87.8732 23.4054C87.8732 23.5284 87.9235 23.014 88.2925 22.8127C88.8517 22.5219 89.7183 23.1705 89.7798 24.0875C89.8134 24.5348 89.3661 25.3456 89.0306 26.2793C88.8293 26.8384 90.0482 27.0789 90.4732 27.2857C90.6297 27.6492 90.5347 28.0573 90.7471 28.2754C91.0661 28.472 91.4157 28.6137 91.7815 28.6948C92.1672 29.9307 92.4478 31.1969 92.6202 32.4801C91.2 33.973 90.8813 34.3308 90.5011 34.7166C89.0158 36.128 87.7561 37.7592 86.7661 39.5531C86.3691 37.2215 85.6143 35.1639 85.5304 34.4874C85.4633 33.9618 85.5752 33.0336 85.3291 32.536C85.2919 32.4768 85.242 32.4265 85.183 32.3888C85.124 32.3511 85.0575 32.3269 84.9881 32.3179ZM85.1502 34.2134C85.4186 35.2086 86.1343 38.4404 86.3412 39.7376C86.0001 39.2232 85.5807 38.3733 85.5807 38.3733C85.5662 38.343 85.545 38.3163 85.5188 38.2953C85.4925 38.2743 85.4619 38.2595 85.4291 38.252C85.3963 38.2445 85.3623 38.2444 85.3295 38.2519C85.2967 38.2593 85.266 38.2741 85.2397 38.2951L84.8315 38.6082C84.9881 37.1544 85.1446 35.6727 85.167 34.2134H85.1502ZM84.9881 33.7158C84.9378 37.831 84.1158 41.4989 83.7803 45.5973C82.6621 59.3743 82.6621 58.6978 82.7739 63.5734C82.17 59.1675 81.3258 50.596 80.8617 45.9496C81.1916 45.698 82.7851 44.4846 82.964 44.1156C83.0479 43.9367 82.964 43.7522 82.5614 43.7522C81.8617 43.805 81.1589 43.805 80.4591 43.7522C80.884 42.0189 83.3163 35.6951 83.9649 34.0177C84.2947 33.9226 84.5687 33.8276 84.9881 33.7158ZM58.994 53.7551C59.8607 52.8437 70.7358 50.719 71.3285 50.1431C72.1616 49.3044 74.454 44.0988 76.7912 40.1514C78.7761 36.7966 79.8552 35.5553 83.7188 34.1295C82.7907 36.4276 80.9791 40.923 80.1628 43.5397C80.1124 43.7019 80.0397 43.8808 80.1628 43.987C80.4703 44.2889 81.7563 44.11 82.4943 44.1212C81.9743 44.6412 80.543 45.698 80.543 45.698C80.5154 45.7183 80.4937 45.7456 80.4799 45.777C80.4662 45.8084 80.4609 45.8428 80.4647 45.8769C80.6995 48.4713 82.1421 63.9536 82.7683 66.2013L81.7619 65.9441C81.1113 65.6247 80.4049 65.4348 79.6819 65.385C80.9567 59.0444 80.4982 57.272 80.6548 53.8166C80.6548 53.4587 79.1451 46.2683 79.134 46.2124C79.134 46.1886 79.1245 46.1659 79.1078 46.1491C79.091 46.1323 79.0682 46.1229 79.0445 46.1229C79.0208 46.1229 78.998 46.1323 78.9812 46.1491C78.9645 46.1659 78.955 46.1886 78.955 46.2124C79.0501 48.6614 79.7434 50.9929 80.2187 53.6656C78.4295 55.343 76.5564 57.6634 73.5091 58.4182C71.6248 58.8935 62.8017 60.8169 61.6275 60.9008C60.6658 59.8272 58.8431 54.4707 58.994 53.7551ZM57.9317 54.4987C57.9317 54.4987 58.6026 54.3366 58.5914 54.2303C59.1136 56.195 59.7712 58.1212 60.5596 59.995C60.0513 60.1522 59.5316 60.27 59.0052 60.3472C58.6865 60.3472 58.9102 60.6268 58.133 58.7817C57.654 57.6346 57.2433 56.4602 56.9029 55.2647C56.8078 54.8789 56.6457 54.9181 57.9317 54.4987ZM51.3842 55.6785C51.826 55.192 52.1447 55.1193 56.5618 55.6785C56.9546 57.0117 57.4308 58.3189 57.9876 59.5924C57.0786 60.301 56.0367 60.8201 54.9235 61.1188C54.89 60.8784 54.8117 60.9511 55.0018 60.9679C55.1624 60.9724 55.3219 60.9408 55.4687 60.8755C55.6154 60.8102 55.7456 60.7128 55.8497 60.5904C55.9538 60.4681 56.0291 60.324 56.0701 60.1687C56.1111 60.0133 56.1167 59.8508 56.0865 59.693C56.0418 59.1339 54.4427 57.9709 53.9898 57.6522C54.2586 57.7075 54.5376 57.6862 54.7949 57.5907C54.8179 57.5833 54.837 57.567 54.848 57.5456C54.859 57.5241 54.8611 57.4991 54.8536 57.4761C54.8462 57.4531 54.83 57.434 54.8085 57.423C54.787 57.412 54.762 57.41 54.739 57.4174C53.7997 57.6634 52.8492 56.5451 52.7262 56.5116C52.2956 56.4053 52.564 57.4062 51.6079 58.0045C51.4681 58.0939 50.9313 57.8926 50.8978 57.6187C50.8274 57.2795 50.8346 56.9288 50.9188 56.5929C51.0031 56.2569 51.1622 55.9443 51.3842 55.6785ZM45.1331 57.4397C45.8488 57.1825 49.4944 56.0531 50.5455 56.3215C50.4272 56.7681 50.4006 57.2341 50.4673 57.6913C50.5028 57.8366 50.5692 57.9725 50.662 58.0897C50.7548 58.2069 50.8718 58.3028 51.005 58.3707C51.1382 58.4387 51.2845 58.4771 51.4339 58.4833C51.5833 58.4896 51.7323 58.4636 51.8707 58.407C52.2603 58.1472 52.5532 57.7658 52.7038 57.3223C53.2014 57.6243 55.6728 59.2625 55.6392 59.844C55.6392 60.2354 55.4324 60.5653 55.041 60.5317C54.7105 60.4133 54.3982 60.2496 54.1128 60.0453C53.8256 59.816 53.523 59.6067 53.207 59.4191C53.1568 59.393 53.0986 59.3864 53.0438 59.4006C52.9891 59.4148 52.9415 59.4488 52.9102 59.496C52.879 59.5432 52.8663 59.6003 52.8746 59.6563C52.883 59.7123 52.9118 59.7632 52.9554 59.7993C52.9554 59.7993 53.3747 60.1124 53.8388 60.4143C54.5377 60.9735 54.7782 61.4879 53.9115 61.7506C53.7758 61.7909 53.6333 61.8028 53.4928 61.7855C53.3524 61.7681 53.217 61.722 53.0952 61.65C52.9527 61.3687 52.7637 61.1134 52.536 60.8952C52.4345 60.634 52.2524 60.4119 52.0161 60.2611C51.7799 60.1103 51.5018 60.0386 51.2221 60.0565C50.9313 60.09 50.909 60.2354 50.9369 60.1012C51.0711 59.4358 50.2212 59.0333 49.6286 59.1451C48.6724 59.3352 48.1413 60.5988 47.8282 61.5214C47.6381 61.924 48.3873 61.4767 45.1164 62.6397C45.2085 61.0158 45.2085 59.3879 45.1164 57.764C45.0884 57.3782 45.0772 57.4677 45.1331 57.4397ZM47.9847 61.5829C48.2922 60.9231 48.9688 59.6875 49.6901 59.5756C49.9696 59.5253 50.5344 59.7154 50.4728 60.0006C50.3518 60.7577 50.0026 61.4599 49.472 62.0134C49.5391 62.1253 47.789 62.1588 47.9847 61.5829ZM51.1494 60.515C51.2836 60.3808 52.0664 60.6548 52.0887 61.0741C52.1279 61.773 51.4625 62.6061 50.8866 62.9919C50.7021 63.1205 49.9752 62.5278 49.8075 62.2874C50.2068 61.6618 50.6556 61.0691 51.1494 60.515ZM52.0943 62.3769C52.1335 62.321 52.6926 61.0797 52.7877 62.1085C52.8268 62.5111 52.2285 62.7235 51.8371 62.6676C51.9281 62.5755 52.014 62.4784 52.0943 62.3769ZM64.5294 69.6456C62.1755 71.474 61.84 73.8782 62.2258 76.7466C58.4461 75.4046 55.561 74.51 54.4371 74.415C52.916 74.4463 51.4021 74.6337 49.9193 74.9741C50.0703 73.4701 50.0032 68.1918 48.9352 67.1071C47.8673 66.0224 43.9925 64.5407 42.5332 63.9816H42.8631C42.9917 63.9145 42.7792 63.3274 43.2656 63.2938C43.8527 63.2603 44.6746 63.484 44.943 63.2491C45.0232 63.1274 45.0695 62.9865 45.0772 62.841C45.6923 62.6453 47.1404 62.2035 47.8729 62.0134C48.1191 62.2089 48.4074 62.3445 48.715 62.4095C49.0226 62.4745 49.3411 62.4672 49.6453 62.3881C49.8131 62.7627 50.5959 63.5846 51.0823 63.3162C51.2172 63.2383 51.3462 63.1504 51.4681 63.0534C51.8218 63.1514 52.1973 63.1358 52.5416 63.0087C52.7238 62.959 52.8864 62.8547 53.0074 62.7097C53.1284 62.5647 53.2019 62.3861 53.2182 62.198C53.5109 62.282 53.8231 62.2686 54.1075 62.1597C54.392 62.0507 54.6332 61.8522 54.7949 61.5941C56.0208 61.3186 57.168 60.768 58.1497 59.9838C58.256 60.213 58.3566 60.4087 58.4405 60.5429C58.4683 60.5901 58.5073 60.6296 58.5542 60.6579C58.601 60.6862 58.6542 60.7024 58.7089 60.7051C59.268 60.761 60.5875 60.1459 60.6435 60.1459C60.835 60.5455 61.0734 60.9209 61.3536 61.2642C61.4542 61.3648 61.6219 61.3369 61.7785 61.3201C63.4 61.1244 71.4515 59.3911 73.6041 58.8543C76.3998 58.1554 78.2226 56.1929 80.1404 54.3254C80.0342 57.5348 80.4535 59.1004 79.1843 65.4018C76.5451 65.7299 73.9302 66.2305 71.3564 66.9003C69.1031 67.5433 66.4193 68.1807 64.5294 69.6512V69.6456ZM72.6872 80.6773L72.4915 80.599C72.4467 77.7586 73.1513 75.1419 75.2312 73.2017C75.4152 73.2485 75.602 73.284 75.7904 73.3079C73.6489 75.1419 72.8046 77.8145 72.6872 80.6773ZM81.5159 71.3565C79.8385 72.3406 80.3305 72.8718 78.7929 73.0339C77.561 73.1185 76.3234 73.0225 75.1194 72.7488C74.1465 72.4357 74.6609 72.061 75.6785 71.9492C75.8519 71.9772 77.2161 71.9883 77.8591 71.9492C77.9117 71.9408 77.9595 71.914 77.994 71.8735C78.0286 71.833 78.0475 71.7816 78.0475 71.7284C78.0475 71.6752 78.0286 71.6237 77.994 71.5832C77.9595 71.5427 77.9117 71.5159 77.8591 71.5075C77.134 71.4451 76.4053 71.4339 75.6785 71.474C75.2157 71.4673 74.7548 71.4129 74.3031 71.3118C74.2581 71.2385 74.232 71.1552 74.2271 71.0693C74.2222 70.9834 74.2387 70.8977 74.2751 70.8198C74.8622 70.4675 77.6299 70.6017 78.0884 70.5849C78.1423 70.5764 78.1915 70.5489 78.227 70.5074C78.2624 70.4659 78.2819 70.4131 78.2819 70.3585C78.2819 70.3039 78.2624 70.2511 78.227 70.2095C78.1915 70.168 78.1423 70.1405 78.0884 70.132C77.1709 70.1514 76.2533 70.1028 75.343 69.9867C74.9517 69.9196 74.0403 69.7239 74.1074 69.3269C74.2304 68.6112 75.7009 69.2262 76.7353 69.1536C77.465 69.1426 78.1875 69.0065 78.8712 68.751C78.9223 68.7354 78.9652 68.7002 78.9904 68.653C79.0155 68.6058 79.0209 68.5505 79.0054 68.4994C78.9898 68.4482 78.9545 68.4053 78.9073 68.3802C78.8602 68.355 78.8049 68.3496 78.7538 68.3652C78.0541 68.5334 77.3444 68.6566 76.6291 68.7342C76.5837 68.7248 76.5433 68.6992 76.5155 68.6621C76.4877 68.625 76.4744 68.5791 76.4781 68.5329C76.4861 68.4284 76.5126 68.3262 76.5564 68.231C76.8447 67.855 77.2318 67.5665 77.6746 67.3979C79.2626 66.7381 80.4703 67.3979 82.2875 67.5153C82.5155 68.5492 82.8049 69.5686 83.1541 70.5682C82.5969 70.7909 82.0568 71.0544 81.5382 71.3565H81.5159ZM83.6517 70.6744C83.4561 70.0146 82.7292 67.6215 82.6565 67.0624C82.9451 66.9214 83.249 66.8145 83.5623 66.7437C83.8195 67.6998 84.2947 69.3604 84.6023 70.2886C84.3022 70.4386 83.9921 70.5676 83.6741 70.6744H83.6517ZM85.2341 70.6744C84.9378 70.0034 84.0599 66.8779 83.8586 66.0951C84.8203 65.3067 93.4533 61.0629 94.7393 59.7713C95.1419 59.3687 93.7832 51.7925 95.3767 45.5582C96.2266 42.2034 97.8928 36.9308 101.332 37.0482C103.691 37.1265 105.039 38.9269 105.805 41.1746C107.208 45.3122 106.649 51.0545 106.649 50.9985C106.649 55.6897 104.971 62.7403 101.617 66.0951C99.0838 68.6336 86.8108 70.9596 85.2565 70.6912L85.2341 70.6744ZM108.287 74.9238C107.633 74.7505 104.63 73.6434 103.361 73.5372C96.769 72.978 97.1771 71.7256 93.1011 69.9363C95.3376 69.3772 100.308 68.08 101.958 66.4474C105.441 62.9919 107.051 55.8686 107.035 51.0489C107.164 49.3609 107.164 47.6655 107.035 45.9775C108.27 52.989 109.031 72.7991 108.287 74.9238Z" fill="black"/>
<path fill-rule="evenodd" clip-rule="evenodd" d="M21.8341 37.1265L20.0001 37.339C20.5592 37.8647 21.0683 38.4413 21.521 39.0611L22.0298 37.3837C22.0453 37.3536 22.052 37.3198 22.049 37.2861C22.0461 37.2524 22.0337 37.2202 22.0132 37.1933C21.9927 37.1663 21.965 37.1458 21.9333 37.134C21.9016 37.1221 21.8672 37.1195 21.8341 37.1265ZM74.8733 88.1529C74.4121 87.8609 73.9029 87.6527 73.3693 87.5378C74.6385 85.4746 74.4093 83.0648 74.0738 82.8523C73.758 82.5305 73.3376 82.3322 72.8884 82.2932C71.211 81.9409 67.1461 81.913 66.0726 82.8076C65.8378 83.0033 65.698 83.322 65.9272 83.5345C65.8181 84.8598 66.0958 86.1883 66.7268 87.3589C66.1676 87.4652 65.5191 87.6776 65.3066 88.1808C65.2699 88.2891 65.26 88.4045 65.2775 88.5175C65.295 88.6304 65.3395 88.7374 65.4072 88.8294C65.8364 89.3617 66.4239 89.7436 67.0846 89.9197C68.2516 90.2749 69.476 90.4021 70.691 90.2944C71.8519 90.2471 73.0028 90.0593 74.1185 89.7352C75.3542 89.2767 75.343 88.5219 74.8733 88.1529ZM66.1229 83.6351C67.3248 83.9634 68.5675 84.1178 69.8132 84.0936C71.1714 84.0006 72.5126 83.7377 73.8054 83.3108C73.9174 84.08 73.8762 84.8638 73.6843 85.617C73.4924 86.3702 73.1535 87.0781 72.6871 87.7C72.5744 87.8975 72.4118 88.0619 72.2155 88.1767C72.0192 88.2915 71.7962 88.3527 71.5689 88.3542C70.7861 88.4548 68.6502 88.5107 68.2141 88.315C66.7995 87.6608 66.1006 85.2845 66.1229 83.6351ZM70.6687 89.7856C69.5145 89.8949 68.3501 89.7771 67.2412 89.4389C66.7391 89.3021 66.2771 89.0471 65.8937 88.6952C65.8042 88.6002 65.6588 88.4101 65.7036 88.2927C65.849 87.9236 66.559 87.7335 66.9504 87.6664C67.2306 88.0938 67.6156 88.4422 68.0687 88.6785C68.6278 88.9636 71.7254 88.9301 72.3013 88.6337C72.6603 88.4146 72.9644 88.1163 73.1903 87.7615C73.5202 87.8565 74.6721 88.2479 74.7503 88.5611C75.0019 89.5228 71.6751 89.752 70.6687 89.8135V89.7856Z" fill="black"/>
</svg>
