<svg width="154" height="154" viewBox="0 0 154 154" fill="none" xmlns="http://www.w3.org/2000/svg">
<path d="M37.1766 108.081C37.4678 108.127 39.0622 108.203 39.0622 107.928C39.0622 107.767 38.7709 107.774 38.7709 107.774C38.8093 106.548 40.3653 106.241 41.4768 106.885C41.7831 107.061 42.0664 107.275 42.32 107.521C40.7486 107.606 38.6636 108.679 38.8016 110.235C38.8808 110.641 39.051 111.023 39.2992 111.354C39.5475 111.684 39.8674 111.954 40.235 112.143C40.6945 112.487 41.2178 112.736 41.7745 112.876C42.3312 113.015 42.9101 113.043 43.4774 112.956C44.4879 112.698 45.3769 112.097 45.9917 111.254C47.381 111.298 48.7404 110.844 49.8243 109.974C49.8701 109.938 49.9079 109.893 49.9356 109.841C49.9633 109.79 49.9802 109.733 49.9853 109.675C49.9853 109.407 49.9853 109.422 48.4522 107.721C48.4088 107.672 48.3544 107.635 48.2936 107.612C48.2328 107.589 48.1674 107.581 48.1028 107.588C48.0382 107.596 47.9763 107.619 47.9224 107.655C47.8685 107.691 47.8241 107.74 47.793 107.797C47.7666 107.831 47.7434 107.867 47.724 107.905C47.6023 108.133 47.4054 108.313 47.1667 108.413C46.928 108.514 46.6619 108.529 46.4132 108.456C45.6467 108.234 44.6579 106.203 42.8565 104.992C41.2852 103.934 39.1772 103.62 37.6901 104.877C37.0501 105.426 36.5951 106.16 36.387 106.977C36.3043 107.229 36.3207 107.503 36.433 107.744C36.6344 107.939 36.8971 108.058 37.1766 108.081ZM40.0587 110.925C39.8486 110.775 39.7027 110.551 39.6501 110.298C39.5976 110.045 39.6422 109.782 39.7751 109.56C40.115 109.09 40.5874 108.733 41.1318 108.533C40.6926 109.278 40.333 110.066 40.0587 110.886V110.925ZM47.2794 109.714C47.4634 109.162 47.2794 109.353 47.586 109.215C47.8183 109.1 48.0285 108.944 48.2069 108.755L48.9045 109.583C48.3268 109.949 47.6881 110.209 47.0188 110.35C47.0955 110.15 47.2181 109.844 47.2794 109.675V109.714ZM44.5046 107.759C45.2328 108.671 45.8384 109.484 46.9498 109.392C46.7912 109.722 46.6629 110.065 46.5666 110.419C46.007 110.457 45.9303 110.327 45.708 110.419C45.2711 110.587 44.5506 112.159 42.8029 112.151C42.9117 111.908 42.9815 111.649 43.0099 111.385C43.5044 111.285 43.9673 111.066 44.3589 110.748C44.5268 110.603 44.6358 110.401 44.6656 110.181C44.6656 109.913 44.5736 109.568 44.0063 109.116C44.2177 108.668 44.3845 108.201 44.5046 107.721V107.759ZM41.929 110.656C41.2545 110.296 42.4043 109.66 43.1478 109.683C43.3187 109.684 43.4856 109.734 43.6294 109.826C43.7732 109.918 43.888 110.049 43.9603 110.204C43.8579 110.369 43.7229 110.511 43.5636 110.622C43.4043 110.733 43.2241 110.81 43.0339 110.849C42.8437 110.888 42.6476 110.887 42.4577 110.847C42.2677 110.808 42.0878 110.73 41.929 110.618V110.656ZM42.8335 105.965C43.3541 106.408 43.8268 106.904 44.244 107.445C44.0014 107.887 43.816 108.358 43.6921 108.847C43.3699 108.755 43.0322 108.73 42.7 108.773C42.3677 108.817 42.0479 108.928 41.7604 109.1C40.3577 109.867 40.6873 111.546 42.6342 111.354C42.5198 111.574 42.4348 111.809 42.3813 112.051C41.604 111.897 40.8771 111.552 40.2657 111.047C40.8091 110.203 41.2322 109.287 41.5228 108.326C41.8208 108.189 42.1431 108.113 42.4709 108.103C42.7987 108.092 43.1253 108.147 43.4314 108.265L43.5924 107.659L43.4238 107.583C43.0635 107.337 42.9025 107.146 42.4886 106.816C42.6422 106.536 42.7582 106.237 42.8335 105.927V105.965ZM39.8594 104.739C40.8187 104.756 41.7475 105.078 42.5116 105.659C42.3744 105.971 42.2715 106.297 42.205 106.632C41.8376 106.344 41.4041 106.151 40.9438 106.072C40.4834 105.993 40.0106 106.03 39.5681 106.18C39.7299 105.715 39.8279 105.23 39.8594 104.739ZM38.1041 105.337C38.529 105.006 39.0397 104.804 39.5758 104.754C39.3379 105.269 39.1902 105.822 39.1389 106.387C38.9105 106.524 38.7236 106.72 38.598 106.955C38.4725 107.19 38.413 107.455 38.426 107.721C37.8889 107.75 37.3515 107.669 36.8469 107.483C36.961 106.632 37.4074 105.86 38.0887 105.337H38.1041ZM26.6521 104.057C25.2723 103.459 22.2062 105.229 21.6466 106.18C21.5657 106.389 21.5657 106.622 21.6466 106.831C22.1296 108.663 26.6368 115.133 27.4723 116.137C27.6179 116.321 27.8172 116.068 27.6869 115.853C27.2883 115.194 27.3343 116.52 29.3733 109.92C29.5622 109.847 29.7381 109.743 29.8945 109.614C29.9656 109.535 30.005 109.433 30.005 109.326C30.005 109.22 29.9656 109.118 29.8945 109.039C29.8249 108.953 29.7451 108.876 29.6569 108.809L30.1398 107.023L32.0561 108.081C31.6686 109.049 31.3859 110.057 31.2129 111.086C30.4401 111.364 29.7158 111.763 29.0667 112.266C28.6144 112.764 29.3273 113.684 29.7719 114.236C30.2165 114.788 30.5921 115.164 30.6764 115.248C30.7607 115.332 31.029 115.248 31.006 115.11C30.9573 114.999 30.8928 114.896 30.8143 114.803C30.399 114.157 30.0424 113.474 29.7489 112.764C30.3446 112.408 30.9736 112.11 31.6269 111.875C31.8645 111.791 32.6004 111.561 32.7997 111.684C33.7831 112.202 34.8088 112.635 35.8658 112.979C35.9085 112.999 35.9575 113.002 36.0021 112.986C36.0466 112.97 36.0831 112.937 36.1034 112.895C36.1237 112.852 36.1263 112.803 36.1105 112.758C36.0947 112.714 36.0618 112.677 36.0191 112.657L34.693 111.852C34.9753 111.212 35.1563 110.532 35.2296 109.836L38.5026 111.607C38.7019 111.722 38.8553 111.408 38.7096 111.323C38.564 111.239 28.6297 104.923 26.6521 104.057ZM25.487 104.869C25.7545 104.789 26.0397 104.789 26.3071 104.869C26.4834 104.946 26.9127 105.176 27.4953 105.498C27.2988 106.04 27.165 106.603 27.0967 107.176C26.5831 106.885 26.2765 106.663 25.8702 106.732C25.6488 106.781 25.4417 106.881 25.2647 107.023C25.3413 106.425 25.4103 105.965 25.487 104.869ZM22.4208 106.555C23.2158 105.798 24.1803 105.24 25.234 104.93C24.8249 106.738 24.5381 108.572 24.3755 110.419C23.6025 109.195 22.9505 107.898 22.4285 106.548L22.4208 106.555ZM25.9009 113.002C25.4793 112.304 25.0194 111.53 24.5825 110.771C24.8431 109.675 24.9274 109.169 25.0884 108.134C25.5078 108.862 25.9927 109.55 26.5371 110.189C26.2281 111.101 26.0173 112.045 25.9086 113.002H25.9009ZM27.2423 115.21C26.9664 114.773 26.6138 114.182 26.1538 113.424C26.4448 112.462 26.6375 111.473 26.7287 110.472C26.8974 110.879 28.3998 110.296 28.806 110.143C28.5071 111.086 27.4646 114.366 27.25 115.21H27.2423ZM27.0124 110.235C26.5373 109.413 26.1174 108.56 25.7552 107.682L25.9929 107.552C26.1002 107.613 28.7217 109.162 28.9134 109.284C28.3159 109.664 27.6816 109.983 27.02 110.235H27.0124ZM29.3119 108.548C28.7371 108.165 27.9552 107.698 27.3573 107.353C27.5619 106.81 27.6958 106.243 27.7559 105.666L29.9328 106.893C29.8945 107.184 29.6339 107.782 29.3579 108.548H29.3119ZM34.3864 111.615L33.2059 110.902C32.6814 110.695 32.0977 110.695 31.5732 110.902C31.8703 110.006 32.0858 109.085 32.2171 108.15L34.9919 109.683C34.7084 110.308 34.5198 110.972 34.4324 111.653L34.3864 111.615Z" fill="black"/>
<path d="M148.975 114.343C147.733 102.784 137.033 85.0082 130.64 75.2963C134.209 75.5818 137.792 75.6714 141.371 75.5646C142.391 75.5646 145.058 75.3806 145.572 75.281C145.871 75.2196 145.917 74.936 145.464 74.9207C145.012 74.9054 141.793 74.7521 141.356 74.7444H133.56C132.364 74.7904 130.494 74.8977 130.387 74.8977C128.087 71.3947 126.485 69.2024 126.47 69.1947C126.452 69.1768 126.431 69.163 126.407 69.154C126.384 69.145 126.359 69.1411 126.334 69.1426C126.309 69.1441 126.284 69.1509 126.262 69.1625C126.24 69.1742 126.221 69.1905 126.205 69.2103C126.19 69.2301 126.179 69.253 126.173 69.2774C126.167 69.3018 126.166 69.3272 126.171 69.3518C126.176 69.3765 126.186 69.3998 126.2 69.4203C126.215 69.4408 126.233 69.458 126.255 69.4707C126.608 69.7543 142.099 92.3899 146.836 107.981C148.714 114.167 149.826 121.932 143.77 124.078C129.39 129.214 16.7639 130.885 6.11677 124.845C4.63737 124.009 4.29243 122.269 4.58371 119.924C5.03596 116.666 6.79132 112.258 8.90694 107.322C11.2909 109.622 31.0673 127.781 34.2714 127.098C37.4755 126.416 55.4967 118.046 56.2402 116.444C56.6721 115.331 56.9006 114.15 56.9148 112.956C57.0055 112.831 57.0478 112.677 57.0337 112.524C57.0196 112.37 56.9501 112.227 56.8381 112.12C55.65 110.94 32.0792 92.252 30.5614 92.3056C29.5036 92.3516 27.5873 93.4401 26.6751 93.9766C26.3794 93.4928 25.9391 93.114 25.4164 92.894C24.8937 92.6739 24.3151 92.6236 23.7623 92.7502C23.2411 92.9607 22.7744 93.2867 22.3973 93.7036C22.0203 94.1205 21.7426 94.6174 21.5854 95.1571C21.5939 95.1985 21.6166 95.2357 21.6494 95.2624C21.6822 95.2891 21.7232 95.3037 21.7655 95.3037C21.8078 95.3037 21.8488 95.2891 21.8816 95.2624C21.9144 95.2357 21.937 95.1985 21.9456 95.1571C22.4067 94.3774 23.1376 93.7938 23.9999 93.5167C24.3585 93.4617 24.7253 93.5095 25.0578 93.6547C25.3902 93.7999 25.6746 94.0365 25.8779 94.3369L17.3541 97.9779C16.9015 97.5127 16.3365 97.1721 15.7137 96.9891C14.2573 96.6058 13.2762 97.564 12.6936 98.9668C12.6808 99.0071 12.6823 99.0506 12.6978 99.09C12.7133 99.1294 12.742 99.1622 12.7789 99.1829C12.8158 99.2037 12.8588 99.211 12.9005 99.2037C12.9422 99.1965 12.9801 99.175 13.0079 99.1431C13.989 97.725 15.1235 97.2421 16.4803 98.3765C14.8399 99.1047 12.548 100.14 10.9382 100.937C11.0532 100.753 27.595 70.7968 27.595 70.7201C28.3232 69.371 29.7872 66.9564 31.2973 66.6422C31.9798 66.4934 32.676 66.4163 33.3746 66.4122C32.3091 68.1752 23.6627 82.5093 23.6473 84.533C23.6473 86.8326 24.0459 86.4723 25.2724 86.8326C26.4988 87.1928 95.1263 86.7713 95.2489 86.7713C96.4371 86.7713 101.082 86.618 101.511 86.3037C102.845 85.3225 102.546 83.8584 101.964 82.3177C101.826 81.9498 101.128 80.4244 100.193 78.3854C104.217 77.1743 107.245 78.715 107.521 85.2842C107.797 90.9642 105.559 92.6965 101.274 92.4512C97.8322 92.252 95.4559 91.2401 94.7047 92.5816C93.8615 94.0763 96.1918 97.4337 97.2036 98.8288C97.058 98.8288 90.6421 98.6985 89.0247 98.6295C86.7456 98.5412 84.4635 98.5694 82.1873 98.7138C80.6197 98.7483 79.0612 98.9618 77.5421 99.35C76.9672 99.6336 76.2237 101.113 75.9094 101.734C75.2885 102.953 72.46 110.603 71.6781 112.81C71.2182 114.083 69.6622 118.299 70.7046 119.042C70.6663 119.862 70.7966 120.959 71.5172 121.342C72.2377 121.725 82.1413 122.001 82.9001 122.016C84.2416 122.055 97.8015 122.231 106.456 121.848C115.11 121.464 118.889 120.637 118.666 120.66C118.886 120.595 119.084 120.47 119.237 120.3C119.39 120.129 119.492 119.919 119.533 119.694C119.651 119.127 119.614 118.539 119.425 117.992C120.391 116.114 113.086 100.523 111.062 99.4267C110.943 99.3594 110.809 99.3225 110.672 99.3194C110.265 99.3194 101.174 98.9361 97.6405 98.8211C96.874 97.7403 94.3828 93.67 95.3409 92.8039C96.7973 91.5314 108.962 97.909 108.311 85.2152C107.973 79.4739 105.329 76.1088 99.9631 78.0558C99.4955 77.044 95.5709 68.6581 94.5207 66.4275C98.589 66.671 102.67 66.5812 106.724 66.1592C106.782 66.8746 106.988 67.5702 107.328 68.2022C107.669 68.8341 108.136 69.3887 108.702 69.8309C111.768 72.1305 123.971 71.7856 126.186 68.9724C126.807 68.1235 127.236 67.1499 127.444 66.119C127.651 65.088 127.633 64.0243 127.39 63.0011C127.593 62.8714 127.752 62.6811 127.842 62.4569C127.964 62.2193 127.842 61.9203 127.313 61.813C126.631 61.7108 125.941 61.6698 125.251 61.6904C125.251 61.0618 125.289 59.889 125.251 58.5553C125.32 58.5093 125.818 57.9114 125.872 57.8424C126.483 57.1286 126.965 56.3142 127.298 55.4355C127.551 54.7226 127.65 53.9024 126.983 53.5038C125.956 52.9443 125.236 53.9714 124.891 55.1212C124.569 53.3505 123.825 50.752 122.047 51.0126C119.027 51.4725 121.112 58.7929 122.093 61.6904C121.231 61.569 120.356 61.569 119.494 61.6904C120.452 59.2835 120.943 56.1714 118.482 55.7038C118.109 55.6213 117.72 55.6499 117.364 55.7862C117.007 55.9224 116.697 56.1602 116.474 56.4703C116.425 56.2968 116.332 56.1387 116.205 56.0107C116.078 55.8827 115.921 55.789 115.748 55.7384C115.575 55.6879 115.392 55.6821 115.216 55.7216C115.04 55.7611 114.877 55.8447 114.742 55.9644C113.615 56.7769 114.259 58.6396 115.57 59.2528C115.501 60.0408 115.501 60.8334 115.57 61.6214C114.754 61.5228 113.928 61.5409 113.117 61.675C113.071 59.8034 112.866 57.9391 112.504 56.1024C112.969 55.771 113.361 55.3464 113.654 54.8555C113.947 54.3646 114.135 53.8182 114.205 53.2509C114.313 52.2314 113.952 51.3805 113.101 51.1582C112.036 50.8823 111.407 51.6258 111.223 52.6913C110.281 51.3882 108.433 50.9206 107.536 52.4154C104.662 49.4259 103.275 51.0969 104.003 52.4154C104.547 53.4272 105.965 53.9944 107.069 54.3087C107.069 56.0257 107.835 57.4745 108.786 58.9539C109.422 59.9504 110.135 60.9085 110.687 61.6137C109.494 61.5754 108.3 61.6524 107.123 61.8437C106.402 62.0353 106.287 62.5566 106.954 62.9322C106.743 63.8306 106.666 64.7553 106.724 65.6763C102.606 65.4572 98.4779 65.5546 94.3751 65.9676C94.1145 65.4081 93.3403 63.7753 93.2483 63.5837C93.1563 63.3921 93.8922 61.1691 94.927 40.5035C99.6795 40.1049 121.05 40.5801 123.013 39.8213C123.125 39.7809 123.225 39.7113 123.302 39.6197C123.378 39.5281 123.429 39.4178 123.45 39.3C124.101 37.1614 124.546 18.78 123.45 17.0706C123.181 16.649 122.223 16.5187 121.694 16.4421C114.864 15.4456 86.3649 15.8748 84.9008 16.649C83.4367 17.4232 84.0576 24.9812 84.3335 26.4836C69.5318 26.0084 35.3522 26.9359 32.1328 28.1393C31.3663 28.4153 31.0827 29.4654 30.9294 30.255C29.6569 36.8241 33.229 57.965 34.4247 64.4959C34.3481 64.4959 34.4247 64.4959 33.4896 65.9523C32.698 65.8936 31.9023 65.9348 31.121 66.0749C29.3733 66.3432 27.7636 68.7578 26.8744 70.2602C26.8361 70.3368 24.5748 74.0928 24.2376 74.7061C22.3136 74.4071 13.3681 74.5221 12.2337 74.5834C11.0992 74.6447 9.93409 74.7291 8.90694 74.8057C8.72297 74.8057 8.70764 75.1583 8.90694 75.166C11.0532 75.2963 11.8428 75.3423 13.5061 75.3653C17.5764 75.4266 23.5783 75.5952 23.77 75.5722C23.3714 76.2698 17.4691 86.7713 16.6796 88.2583C13.2455 94.6972 10.5473 100.592 10.3863 101.09C9.49529 101.495 8.65839 102.01 7.89512 102.623C7.64893 103.298 7.50176 104.006 7.4582 104.723C7.41987 105.958 7.86446 106.256 8.54667 106.946C6.71612 110.869 5.21121 114.935 4.04714 119.104C3.66711 120.79 3.65143 122.538 4.00114 124.232C4.31412 125.924 4.89915 127.555 5.7335 129.061C6.10829 129.441 6.59397 129.694 7.12092 129.781C9.1369 130.349 15.3841 131.077 17.4768 131.314C17.319 132.251 17.2752 133.203 17.3464 134.151C17.3485 135.126 17.4905 136.097 17.768 137.033C17.7706 137.056 17.7776 137.078 17.7888 137.099C17.8 137.119 17.8151 137.137 17.8332 137.152C17.8514 137.166 17.8722 137.177 17.8946 137.184C17.9169 137.19 17.9403 137.192 17.9635 137.19C17.9867 137.187 18.0091 137.18 18.0295 137.169C18.0499 137.158 18.068 137.143 18.0826 137.125C18.0971 137.106 18.108 137.086 18.1146 137.063C18.1211 137.041 18.1232 137.017 18.1206 136.994C18.2433 136.039 18.2766 135.074 18.2203 134.112C18.2152 133.186 18.1099 132.264 17.906 131.36C18.9638 131.452 19.9833 131.529 20.8725 131.56C20.7311 132.454 20.6925 133.362 20.7575 134.265C20.7601 135.241 20.9021 136.212 21.1791 137.148C21.1791 137.194 21.1977 137.239 21.2307 137.272C21.2638 137.305 21.3086 137.324 21.3554 137.324C21.4022 137.324 21.447 137.305 21.4801 137.272C21.5131 137.239 21.5317 137.194 21.5317 137.148C21.6585 136.192 21.6944 135.227 21.639 134.265C21.6338 133.37 21.5309 132.478 21.3324 131.606C23.0418 131.644 48.1993 133.905 91.6463 133.047C103.29 132.817 117.287 132.28 128.815 131.015C128.663 131.94 128.619 132.879 128.685 133.813C128.689 134.787 128.833 135.755 129.114 136.688C129.109 136.713 129.109 136.74 129.115 136.766C129.121 136.791 129.133 136.815 129.15 136.835C129.166 136.856 129.187 136.872 129.211 136.883C129.235 136.895 129.26 136.901 129.287 136.901C129.313 136.901 129.339 136.895 129.363 136.883C129.386 136.872 129.407 136.856 129.424 136.835C129.44 136.815 129.452 136.791 129.458 136.766C129.464 136.74 129.465 136.713 129.459 136.688C129.593 135.733 129.629 134.767 129.567 133.806C129.558 132.859 129.448 131.916 129.237 130.992C130.088 130.9 132.058 130.655 132.226 130.632C132.075 131.552 132.034 132.486 132.104 133.415C132.104 134.391 132.246 135.362 132.525 136.297C132.53 136.344 132.554 136.386 132.591 136.416C132.627 136.445 132.674 136.459 132.721 136.454C132.768 136.449 132.81 136.425 132.84 136.389C132.869 136.352 132.883 136.305 132.878 136.258C133.004 135.306 133.037 134.343 132.978 133.384C132.973 132.439 132.862 131.498 132.648 130.578C136.105 130.111 146.675 128.685 148.117 125.734C149.818 122.369 149.68 117.992 148.975 114.343ZM79.2208 102.002C79.3051 101.795 81.873 101.236 84.6785 102.002C84.7042 101.997 84.7308 101.997 84.7563 102.003C84.7818 102.009 84.8056 102.021 84.826 102.038C84.8464 102.054 84.8629 102.075 84.8742 102.099C84.8855 102.123 84.8914 102.148 84.8914 102.175C84.8914 102.201 84.8855 102.227 84.8742 102.251C84.8629 102.274 84.8464 102.295 84.826 102.312C84.8056 102.328 84.7818 102.34 84.7563 102.346C84.7308 102.352 84.7042 102.353 84.6785 102.347C83.2815 102.595 81.855 102.632 80.4472 102.454C79.788 102.347 78.9525 102.34 79.1978 102.002H79.2208ZM118.628 120.23C111.538 121.579 72.368 121.273 71.7778 120.997C71.1876 120.721 71.1339 119.832 71.1186 119.249C75.3651 120.629 116.857 119.563 119.165 118.345C119.287 119.019 119.318 120.1 118.605 120.23H118.628ZM103.75 102.087C103.75 101.826 105.436 101.68 105.513 101.673C106.515 101.595 107.523 101.595 108.525 101.673C109.085 101.734 109.859 101.811 109.798 102.048C109.736 102.286 108.579 102.385 108.38 102.416C107.63 102.485 106.878 102.516 106.126 102.508C105.62 102.493 103.696 102.401 103.727 102.087H103.75ZM113.6 104.639C115.517 108.293 117.128 112.101 118.413 116.022C118.577 116.517 118.667 117.034 118.682 117.555C115.225 118.628 75.3805 119.732 71.3485 118.575C71.1569 118.521 71.1032 118.575 71.0572 118.253C70.766 116.168 74.177 107.882 74.9666 105.95C89.4693 105.467 113.446 104.723 113.577 104.639H113.6ZM107.146 53.9637C106.307 53.5033 105.547 52.9135 104.892 52.2161C104.593 51.7638 104.662 51.4495 105.543 51.8788C106.095 52.1317 106.87 52.584 107.391 52.8983C107.257 53.2394 107.174 53.5984 107.146 53.9637ZM125.542 55.3358C126.155 54.232 126.761 53.9178 126.7 54.5693C126.37 55.7352 125.902 56.8573 125.305 57.9114C125.259 57.1448 125.205 56.6313 125.144 56.1254C125.174 56.018 125.328 55.6961 125.519 55.3358H125.542ZM122.284 62.0047C122.438 62.4416 122.537 62.7022 122.545 62.7175C122.554 62.7392 122.566 62.7591 122.582 62.7759C122.599 62.7926 122.618 62.8061 122.639 62.8153C122.661 62.8246 122.684 62.8295 122.707 62.8298C122.73 62.8302 122.753 62.8259 122.775 62.8172C123.112 62.6869 122.614 62.3726 121.817 57.7504C121.579 56.3706 120.874 52.1164 122.269 51.9171C123.404 51.7485 124.017 54.5616 124.231 55.6731C124.629 57.8155 124.885 59.9818 124.998 62.158C124.997 62.2004 125.012 62.2416 125.04 62.2741C125.067 62.3065 125.105 62.3279 125.147 62.3345C125.189 62.341 125.232 62.3321 125.268 62.3096C125.304 62.287 125.331 62.2522 125.343 62.2116C125.345 62.1682 125.345 62.1247 125.343 62.0813C126.036 62.1017 126.725 62.1968 127.397 62.3649C127.312 62.4648 127.204 62.5436 127.083 62.5949C125.473 63.4227 120.606 63.2618 118.927 63.2311C119.157 62.7712 119.318 62.4186 119.494 61.997C120.41 62.1475 121.345 62.1501 122.261 62.0047H122.284ZM116.306 60.3259C116.482 58.7929 116.873 56.3477 118.421 56.6389C119.97 56.9302 119.579 59.1762 119.241 60.6786C119.033 61.5405 118.777 62.3901 118.475 63.2234H116.175C116.157 62.2564 116.193 61.289 116.283 60.3259H116.306ZM115.332 56.7233C115.368 56.6893 115.41 56.6632 115.456 56.6466C115.503 56.63 115.552 56.6232 115.601 56.6269C115.65 56.6305 115.698 56.6443 115.742 56.6675C115.785 56.6907 115.823 56.7228 115.853 56.7616C115.975 56.8838 116.086 57.0173 116.183 57.1602C115.965 57.649 115.813 58.1645 115.731 58.6932C115.332 58.1413 114.818 57.1372 115.332 56.7233ZM112.917 52.0627C113.914 52.377 113.132 54.9986 112.465 55.7958C112.281 54.9707 112.006 54.1687 111.645 53.4042C111.867 52.7296 112.243 51.8481 112.917 52.0551V52.0627ZM111.032 62.089C111.407 62.5642 111.653 62.8555 111.653 62.8555C111.683 62.8856 111.723 62.9035 111.766 62.906C111.809 62.9086 111.851 62.8955 111.885 62.8692C111.919 62.8429 111.942 62.8053 111.95 62.7633C111.958 62.7213 111.95 62.6778 111.929 62.6409C111.929 62.6409 110.572 60.7092 109.453 58.7086C108.61 57.1755 107.805 55.6424 108.027 53.9484C108.203 52.6147 108.909 52.0474 110.097 52.8216C111.814 53.9254 112.596 60.7322 112.841 62.7865C112.843 62.8403 112.862 62.892 112.895 62.9345C112.928 62.9771 112.973 63.0084 113.025 63.0241C113.232 63.0241 113.201 62.8018 113.193 62.6945C113.186 62.5872 113.193 62.0506 113.193 61.997C114.008 62.1 114.832 62.1 115.646 61.997C115.692 62.5566 115.746 62.9935 115.784 63.2234C113.063 63.2234 109.775 63.4074 107.521 62.5259C108.679 62.2967 109.853 62.1507 111.032 62.089ZM107.36 63.2158C108.481 63.6503 109.663 63.9088 110.863 63.9823C112.22 64.1049 121.457 64.1203 122.507 64.0666C124.09 64.0406 125.658 63.7478 127.144 63.2004C127.287 64.1417 127.233 65.1023 126.987 66.0218C126.74 66.9412 126.306 67.7997 125.711 68.5432C123.848 70.7278 112.067 71.226 109.238 69.233C107.375 67.9529 107.038 65.3927 107.36 63.2081V63.2158ZM101.182 85.7211C101.343 86.2347 28.2542 86.2577 28.1775 86.25C25.1114 86.25 25.8779 86.25 24.8508 85.9971C24.5748 85.9357 24.5212 85.9357 24.4675 85.6675C24.4025 85.2466 24.3845 84.8198 24.4139 84.395C24.4299 84.4265 24.4559 84.4518 24.4877 84.467C24.5196 84.4822 24.5556 84.4866 24.5902 84.4793C24.5902 84.4793 101.159 83.4369 101.657 83.4215C101.864 84.3184 101.895 85.1539 101.182 85.7211ZM122.744 39.2004C122.744 39.2004 122.79 39.1237 122.806 39.1467C122.821 39.1697 122.744 39.1927 122.706 39.2004H122.744ZM84.6248 19.8685C84.6248 19.3702 84.8241 17.4846 85.2687 17.2546C86.2805 16.7487 118.437 16.3194 122.829 17.6915C123.595 19.3012 123.35 37.3837 122.706 39.2004C118.935 39.7906 99.9554 39.7446 95.019 40.2505C95.3179 34.2179 95.4482 29.1358 95.203 28.147C95.1557 28.018 95.0792 27.9018 94.9794 27.8074C94.8797 27.7129 94.7594 27.6429 94.6281 27.6028C92.9494 26.8746 86.6331 26.6676 84.7935 26.6063C84.5547 24.3686 84.4983 22.1153 84.6248 19.8685ZM31.6192 39.1697C31.5043 37.56 30.937 29.4348 32.4701 28.8675C33.2366 28.5992 35.9348 28.331 39.8518 28.101C47.3561 27.6334 59.1837 27.2578 69.9458 27.1812C72.3373 27.1812 92.5431 27.0049 94.5207 28.3616C95.1033 31.0138 93.2406 60.4793 92.8267 63.3231C74.7136 63.9133 53.2507 64.8025 34.9843 64.3579C34.6777 62.6025 32.3321 49.0579 31.6192 39.1697ZM34.7467 64.8715C34.7481 64.8536 34.7481 64.8357 34.7467 64.8178C47.6627 65.2164 88.0819 63.8903 93.003 63.8597C93.5472 65.1244 101.19 82.0801 101.511 83.0229C101.427 83.0229 24.5288 84.0654 24.4292 84.1421C25.395 80.9073 33.3823 67.2324 34.7467 64.8715ZM55.8186 116.229C55.2514 117.333 38.0658 125.013 34.5321 126.079C34.6006 125.726 34.6263 125.365 34.6087 125.006C39.8288 123.197 51.1581 118.421 56.2402 115.041C56.1434 115.454 56.002 115.855 55.8186 116.237V116.229ZM56.3475 114.535C54.8145 115.439 53.3504 116.068 34.601 124.592C34.6018 124.245 34.5554 123.899 34.4631 123.565C36.916 122.415 53.5497 115.968 56.5162 113.401C56.4778 113.73 56.4242 114.129 56.3475 114.543V114.535ZM16.8635 98.8058C17.2321 99.24 17.4603 99.7758 17.5177 100.342C17.5752 100.909 17.4594 101.48 17.1855 101.979C17.0628 102.171 17.3541 102.37 17.4768 102.171C17.9395 101.666 18.2131 101.017 18.2508 100.334C18.2886 99.6502 18.0881 98.9748 17.6837 98.4225C21.4091 96.7132 25.0731 95.1034 26.0772 94.6665C26.3284 95.1769 26.4629 95.7368 26.4709 96.3055C26.4788 96.8743 26.3601 97.4378 26.1232 97.9549C26.0312 98.2002 26.3072 98.2922 26.4375 98.1312C26.8591 97.5956 27.1215 96.9521 27.1947 96.2743C27.2679 95.5966 27.1489 94.9119 26.8514 94.2986C27.6793 93.831 29.6109 92.7655 30.5538 92.7655C31.7342 92.7655 55.6883 112.251 56.1329 112.695C54.1322 114.757 35.5592 122.108 33.9955 122.86C30.6994 122.093 10.5856 104.792 8.69998 103.014C9.87277 102.041 15.5451 99.419 16.8635 98.8058ZM8.11741 103.367C10.509 105.705 30.4618 123.12 33.8039 123.672C33.7368 123.961 33.7059 124.257 33.7119 124.554C28.3462 121.932 13.0155 108.656 7.94111 104.386C7.96411 104.386 8.07909 103.635 8.14041 103.367H8.11741ZM8.23239 105.996C8.01617 105.667 7.90891 105.278 7.92578 104.884C12.9389 109.943 27.089 122.384 33.7042 124.975C33.6906 125.385 33.7318 125.795 33.8269 126.194C29.8946 125.312 8.75363 106.624 8.25539 105.996H8.23239ZM147.741 125.481C142.789 135.308 8.41636 132.74 6.23941 128.907C5.31665 127.303 4.69329 125.545 4.39974 123.718C4.69544 124.366 5.18936 124.903 5.81016 125.251C17.0935 131.82 129.352 130.103 144.008 124.837C147.112 123.718 148.676 121.303 149.029 117.938C149.237 120.522 148.789 123.117 147.726 125.481H147.741Z" fill="black"/>
<path d="M32.9606 73.3493C87.162 74.1158 92.336 73.6482 93.8538 73.4106C94.214 73.357 94.444 73.2343 94.4287 72.8127C94.4287 71.7013 91.8225 66.6038 91.1326 66.2512C90.826 66.0903 35.9424 66.8644 35.7508 66.9258C35.715 66.9344 35.6816 66.9504 35.6525 66.9729C35.6234 66.9954 35.5995 67.0237 35.5821 67.0561C35.0609 67.9069 32.516 72.1075 32.631 73.058C32.6434 73.1373 32.6832 73.2098 32.7433 73.263C32.8035 73.3162 32.8803 73.3467 32.9606 73.3493ZM35.973 67.4547C36.5249 67.3857 90.5194 66.8491 90.849 66.8798C91.4212 67.703 91.9336 68.5663 92.382 69.463C91.1249 69.463 34.9382 69.7619 34.647 69.7696C34.9842 69.095 35.4288 68.3285 35.973 67.4547ZM34.44 70.1375C34.7389 70.1375 91.5925 69.8462 92.566 69.8233C93.0704 70.7625 93.4689 71.7548 93.7541 72.7821C91.0253 73.219 66.159 73.0044 33.2365 72.7821C33.5441 71.8536 33.9421 70.9576 34.4247 70.1069L34.44 70.1375ZM75.2654 75.9555C75.1125 75.617 74.8626 75.3315 74.5475 75.1351C74.2323 74.9386 73.8659 74.84 73.4947 74.8517C71.5477 74.8517 55.1976 74.3994 53.7259 74.9973C52.7863 76.1358 52.0593 77.434 51.5796 78.83C51.5336 79.1673 51.7023 79.3206 51.9092 79.3436C56.5084 79.8418 71.7547 80.3171 75.71 79.5889C76.2006 79.4969 76.2619 78.9756 76.1622 78.4774C75.9249 77.6161 75.6252 76.7732 75.2654 75.9555ZM52.1238 78.83C52.5641 77.5861 53.1618 76.4038 53.9022 75.3116C55.0673 74.9283 70.2216 75.7255 73.5177 75.7179C73.714 75.7108 73.908 75.7606 74.0767 75.8613C74.2453 75.9619 74.3812 76.1091 74.4682 76.2851C74.8408 77.0813 75.131 77.9135 75.3344 78.7687C71.4481 79.3742 54.9447 79.0293 52.1238 78.83ZM128.501 76.9367C127.42 75.4496 122.001 75.5186 120.184 75.5722C118.651 75.5722 113.078 75.8252 113.078 77.3276C113.085 77.4493 113.12 77.5677 113.181 77.673C113.243 77.7783 113.328 77.8675 113.431 77.9331C113.577 78.0481 112.572 88.151 113.952 93.5704C114.404 95.3641 114.987 96.2532 116.696 96.9968C119.977 98.4225 125.42 98.1082 127.604 95.0651C128.041 94.1759 127.949 91.5851 127.987 90.7955C131.383 91.4701 134.166 90.0903 134.886 86.434C135.338 84.0807 134.756 82.54 133.752 81.6048C133.081 81.0586 132.288 80.6828 131.44 80.5093C130.593 80.3358 129.716 80.3697 128.884 80.6083C128.855 80.6181 128.824 80.6208 128.794 80.6162C128.764 80.6116 128.735 80.5998 128.71 80.5818C128.685 80.5638 128.665 80.5401 128.652 80.5127C128.638 80.4853 128.631 80.455 128.631 80.4244C128.631 80.0181 128.777 77.2663 128.501 76.9367ZM113.937 77.0976C116.007 75.8865 124.438 75.7945 127.16 77.0286C127.252 77.0746 127.596 77.2509 127.596 77.3276C127.596 77.4042 127.244 77.5882 127.16 77.6265C125.105 78.554 117.77 78.9756 113.914 77.5652C113.646 77.4196 113.914 77.1283 113.914 77.0976H113.937ZM129.099 81.3902C129.795 81.1894 130.53 81.1606 131.241 81.3061C131.951 81.4516 132.615 81.7672 133.177 82.2257C134.005 82.9922 134.419 84.3107 134.035 86.2653C133.959 86.9449 133.724 87.5968 133.348 88.1682C132.972 88.7396 132.467 89.2143 131.874 89.5538C130.617 90.1195 129.201 90.228 127.872 89.8604C127.807 89.8367 127.738 89.8267 127.668 89.831C127.599 89.8353 127.531 89.8539 127.469 89.8855C127.408 89.9172 127.353 89.9612 127.309 90.0149C127.265 90.0686 127.232 90.1308 127.213 90.1976C127.006 90.7802 127.298 93.1335 126.876 94.6205C124.937 97.2497 119.977 97.4873 117.041 96.2532C115.554 95.617 115.14 94.9578 114.742 93.3711C113.715 89.6074 113.653 81.9421 113.883 78.1708C116.298 79.3129 124.661 79.6425 127.949 77.9561C127.949 80.3324 127.658 80.731 128.256 81.2139C128.371 81.3011 128.505 81.3621 128.646 81.3926C128.788 81.423 128.935 81.4222 129.076 81.3902H129.099ZM54.6381 97.633C52.625 95.9256 50.4594 94.4066 48.1685 93.0951C47.286 92.5744 46.3475 92.1553 45.3707 91.8457C44.5505 91.6311 44.2056 92.0526 44.3742 92.6122C44.7198 93.4156 45.1765 94.1665 45.731 94.8428C47.4947 97.0754 49.523 99.0857 51.7712 100.829C55.19 103.689 59.6205 107.153 62.8553 109.614C63.0201 109.734 63.2073 109.821 63.4059 109.868C63.6045 109.915 63.8105 109.922 64.0118 109.888C64.2132 109.855 64.4058 109.781 64.5784 109.672C64.751 109.563 64.9001 109.421 65.0169 109.254C65.5841 108.633 65.9367 107.544 65.3005 106.954C64.5646 106.295 60.0651 102.056 54.6381 97.633ZM47.2947 95.9313L46.2446 94.2373C46.6184 94.082 46.9346 93.8141 47.1491 93.4707L48.8124 94.1453C48.395 94.2281 48.0179 94.4496 47.7424 94.7738C47.4668 95.0981 47.3091 95.506 47.2947 95.9313ZM49.648 97.8859C49.094 97.4197 48.5811 96.9068 48.1149 96.3529C48.1686 95.4254 48.4598 95.0115 49.3873 94.9808C50.0053 95.276 50.5888 95.6385 51.1274 96.0616C50.7152 96.162 50.3473 96.3948 50.0801 96.7243C49.8128 97.0538 49.6611 97.4619 49.648 97.8859ZM62.7556 109.039C61.9048 108.326 50.5908 98.7291 49.8932 98.1159C49.9518 97.6868 50.1392 97.2855 50.4307 96.9652C50.7223 96.6449 51.1042 96.4207 51.526 96.3222C54.1705 98.2845 57.9725 101.535 64.603 107.054C64.3449 107.041 64.087 107.084 63.8475 107.181C63.608 107.278 63.3927 107.427 63.2167 107.616C63.0406 107.805 62.9081 108.03 62.8285 108.276C62.7488 108.522 62.724 108.782 62.7556 109.039ZM123.496 117.532C124.454 118.184 125.121 117.885 125.741 116.98C127.275 114.803 132.64 105.168 132.64 105.091C132.64 105.015 132.702 105.16 132.449 102.064C132.438 101.947 132.396 101.836 132.327 101.741C132.258 101.647 132.165 101.572 132.058 101.526C131.95 101.48 131.832 101.463 131.716 101.478C131.6 101.493 131.491 101.539 131.398 101.611L128.777 103.52C128.777 103.52 122.959 115.547 122.898 115.654C122.792 115.991 122.793 116.351 122.9 116.687C123.007 117.023 123.215 117.318 123.496 117.532ZM131.613 102.546C131.659 103.106 131.72 103.85 131.766 104.363C131.197 104.091 130.601 103.877 129.988 103.727L131.613 102.546ZM129.421 104.248C130.085 104.719 130.853 105.024 131.659 105.137C131.544 105.337 125.688 116.022 125.626 116.129C125.448 115.767 125.156 115.474 124.794 115.295C124.432 115.116 124.022 115.062 123.626 115.141C124.224 114.029 129.206 104.631 129.421 104.248Z" fill="black"/>
<path d="M125.895 89.0478C125.812 88.9319 125.707 88.8335 125.586 88.7585C125.465 88.6835 125.33 88.6333 125.19 88.6109C124.736 88.4897 124.275 88.3976 123.81 88.335C124.071 90.1593 124.224 92.1676 124.216 92.3439C124.205 92.4606 124.147 92.568 124.057 92.6427C123.966 92.7173 123.85 92.7532 123.733 92.7425C123.616 92.729 123.509 92.6701 123.434 92.5784C123.36 92.4867 123.324 92.3696 123.335 92.2519C123.335 92.1216 123.289 91.5927 123.25 88.2583C121.717 88.0667 114.336 87.4918 114.627 88.9635C114.627 89.0402 114.021 92.7962 116.367 94.5975C118.713 96.3989 123.404 96.0463 125.044 94.2143C125.509 93.6566 125.817 92.9842 125.933 92.2673C126.114 91.2006 126.101 90.1099 125.895 89.0478ZM127.735 82.1107C127.735 82.4557 127.275 85.0925 126.968 88.6339L127.336 88.7106C128.685 88.9969 130.09 88.8437 131.345 88.2736C131.783 88.0305 132.145 87.6717 132.393 87.2363C132.64 86.801 132.763 86.3059 132.748 85.8054C132.8 85.1832 132.691 84.5581 132.433 83.9895C132.175 83.421 131.776 82.928 131.273 82.5576C130.771 82.1872 130.182 81.9516 129.562 81.8734C128.943 81.7952 128.314 81.8769 127.735 82.1107ZM128.08 82.3714C128.569 82.2939 129.069 82.3222 129.546 82.4545C130.024 82.5867 130.467 82.8197 130.847 83.1379C131.211 83.4722 131.493 83.8862 131.672 84.3476C131.85 84.809 131.919 85.3052 131.874 85.7977C131.805 87.7677 129.781 88.1433 127.842 87.944C127.934 86.549 128.011 84.9469 128.08 82.3714ZM119.87 37.376C119.868 37.5125 119.893 37.6481 119.944 37.775C119.994 37.9018 120.069 38.0173 120.165 38.1149C120.26 38.2126 120.374 38.2903 120.5 38.3437C120.626 38.3971 120.761 38.4252 120.897 38.4262C121.106 38.4307 121.311 38.373 121.487 38.2605C121.662 38.1479 121.801 37.9855 121.884 37.7941C121.967 37.6026 121.991 37.3908 121.953 37.1856C121.915 36.9804 121.817 36.7911 121.671 36.642C121.525 36.4928 121.338 36.3905 121.134 36.348C120.929 36.3056 120.717 36.325 120.524 36.4038C120.331 36.4826 120.165 36.6171 120.049 36.7903C119.932 36.9634 119.87 37.1673 119.87 37.376ZM35.9732 62.6638C36.1495 63.0088 36.3795 63.0471 36.5251 62.9398C36.6707 62.8325 85.2151 62.4109 88.8255 62.2193C89.6019 62.2312 90.3761 62.1331 91.1251 61.928C92.8498 60.3949 93.5243 31.7343 92.8498 30.4082C91.1251 26.9665 37.146 29.1818 33.8269 30.1859C31.1824 30.9831 34.7544 60.2186 35.9732 62.6638ZM33.6813 31.4277C33.6813 31.2898 33.8499 30.7532 33.9802 30.7149C37.6519 29.6111 90.9641 27.7944 92.4129 30.6765C92.5364 31.2532 92.593 31.8422 92.5815 32.4319C92.7118 35.774 92.5815 42.9333 92.2366 49.3492C92.1676 50.5757 91.6233 60.6249 90.8261 61.537C87.645 62.2116 38.6254 62.3649 36.4485 62.4492C35.2067 59.5671 32.5238 36.4868 33.6813 31.4277ZM120.997 20.474C121.205 20.4786 121.41 20.4211 121.586 20.3088C121.761 20.1966 121.899 20.0346 121.982 19.8437C122.066 19.6527 122.09 19.4412 122.053 19.2363C122.016 19.0313 121.918 18.842 121.773 18.6925C121.628 18.5431 121.442 18.4402 121.238 18.3969C121.034 18.3536 120.822 18.3719 120.629 18.4495C120.435 18.5271 120.269 18.6604 120.152 18.8326C120.035 19.0047 119.971 19.2079 119.97 19.4162C119.967 19.5534 119.991 19.6898 120.041 19.8175C120.091 19.9452 120.166 20.0617 120.262 20.1601C120.357 20.2585 120.472 20.337 120.598 20.3909C120.724 20.4448 120.86 20.473 120.997 20.474Z" fill="black"/>
<path d="M48.6822 50.7443H57.7886C58.8423 50.7402 59.8515 50.3182 60.5944 49.5709C61.3374 48.8237 61.7536 47.8121 61.7515 46.7583V39.369C61.7516 38.3129 61.3358 37.2993 60.5941 36.5476C59.8524 35.7959 58.8445 35.3665 57.7886 35.3523H48.6822C48.1541 35.3503 47.6309 35.4528 47.1427 35.654C46.6545 35.8551 46.2109 36.1509 45.8375 36.5243C45.4641 36.8977 45.1683 37.3412 44.9672 37.8295C44.766 38.3177 44.6635 38.8409 44.6656 39.369V46.7583C44.6676 47.2838 44.7731 47.8037 44.976 48.2884C45.1789 48.7731 45.4754 49.213 45.8483 49.5832C46.2213 49.9533 46.6635 50.2464 47.1498 50.4456C47.636 50.6448 48.1567 50.7463 48.6822 50.7443ZM45.3171 39.369C45.3311 38.483 45.6908 37.6375 46.3195 37.0131C46.9482 36.3887 47.7961 36.0348 48.6822 36.0269H57.7886C58.2361 36.0218 58.6801 36.1055 59.0951 36.273C59.5101 36.4405 59.8878 36.6886 60.2064 37.0029C60.525 37.3172 60.7781 37.6915 60.9512 38.1042C61.1243 38.5169 61.214 38.9598 61.215 39.4073V46.7583C61.2129 47.2063 61.1227 47.6494 60.9494 48.0625C60.7762 48.4756 60.5232 48.8505 60.205 49.1658C59.8869 49.4811 59.5097 49.7307 59.0951 49.9003C58.6805 50.0698 58.2365 50.1561 57.7886 50.1541H48.6822C48.2383 50.152 47.7991 50.0626 47.3897 49.8909C46.9804 49.7191 46.6088 49.4685 46.2964 49.1531C45.9839 48.8378 45.7366 48.464 45.5685 48.0531C45.4005 47.6422 45.3151 47.2022 45.3171 46.7583V39.369ZM73.3031 56.2173C73.4564 56.6696 73.8397 56.5699 73.947 56.2863C74.0927 55.88 74.9435 52.9596 75.0508 52.4536C75.6411 52.2697 73.9777 52.8446 79.1211 50.9742C79.1744 50.9536 79.2203 50.9173 79.2526 50.8701C79.2849 50.8229 79.3022 50.767 79.3022 50.7098C79.3022 50.6526 79.2849 50.5967 79.2526 50.5495C79.2203 50.5023 79.1744 50.466 79.1211 50.4453L71.2412 47.2949C71.1928 47.272 71.1392 47.2622 71.0858 47.2664C71.0325 47.2707 70.9811 47.2888 70.9369 47.319C70.8928 47.3493 70.8573 47.3905 70.834 47.4388C70.8107 47.487 70.8005 47.5404 70.8043 47.5938C70.8043 47.5938 72.8815 54.9985 73.3031 56.2173ZM71.5938 48.1151L78.2319 50.729C77.3428 51.0586 75.8404 51.6258 75.1198 51.9171C74.7979 52.0397 74.6676 52.0934 74.5909 52.193C74.5143 52.2927 74.7825 51.6948 73.6557 55.1672L71.5938 48.1151ZM89.6839 25.6404C89.6929 25.6864 89.7178 25.7277 89.7543 25.7572C89.7907 25.7866 89.8364 25.8022 89.8832 25.8014C90.0442 25.8014 95.0036 26.2766 96.0154 26.0083C96.667 25.832 96.782 24.6822 96.8433 24.0077C96.9199 22.9882 96.8433 20.4893 96.414 19.6385C95.8315 18.4887 91.5312 18.8719 90.2818 19.0942C89.9501 19.1409 89.6332 19.2614 89.3543 19.4468C89.1919 19.6353 89.0974 19.8728 89.086 20.1214C89.0784 21.9776 89.279 23.8289 89.6839 25.6404ZM89.9062 20.0371C91.1173 19.6615 94.5667 19.5158 95.6628 20.0371C96.0384 21.0336 96.2377 24.4599 95.7855 25.2571C95.0726 25.4411 90.7187 25.4411 89.9905 25.4488C89.9675 24.8509 89.6149 21.6238 89.9062 20.0371ZM99.9707 25.6097C99.9811 25.6551 100.006 25.6956 100.042 25.7248C100.079 25.754 100.124 25.7702 100.17 25.7707C100.331 25.7707 105.29 26.246 106.302 25.9777C106.954 25.8014 107.069 24.6516 107.138 23.977C107.207 22.9575 107.138 20.4587 106.701 19.6078C106.118 18.4503 101.818 18.8413 100.569 19.0636C100.238 19.1134 99.9215 19.2336 99.6411 19.4162C99.4822 19.6067 99.3882 19.843 99.3728 20.0907C99.3657 21.9469 99.5663 23.7981 99.9707 25.6097ZM100.193 20.0064C101.404 19.6231 104.854 19.4852 105.95 20.0064C106.325 21.0029 106.525 24.4293 106.072 25.2188C105.359 25.4104 101.006 25.4104 100.277 25.4181C100.254 24.8202 99.9018 21.5931 100.193 20.0064ZM110.733 25.947C110.742 25.993 110.767 26.0343 110.803 26.0638C110.84 26.0932 110.885 26.1089 110.932 26.108C111.093 26.108 116.053 26.5832 117.064 26.315C117.716 26.1387 117.831 24.9889 117.892 24.3143C117.969 23.2948 117.892 20.7959 117.463 19.9451C116.88 18.7953 112.58 19.1786 111.331 19.4008C111 19.4495 110.683 19.5698 110.403 19.7534C110.241 19.9419 110.146 20.1795 110.135 20.428C110.127 22.2842 110.328 24.1355 110.733 25.947ZM110.955 20.3437C112.166 19.9681 115.616 19.8224 116.712 20.3437C117.087 21.3402 117.287 24.7666 116.834 25.5638C116.122 25.7477 111.768 25.7477 111.039 25.7554C111.016 25.1575 110.664 21.9304 110.955 20.3437ZM100.04 37.399C100.093 37.5523 100.216 37.5676 100.239 37.56C100.408 37.56 105.359 38.0352 106.371 37.7669C107.023 37.5906 107.138 36.4408 107.207 35.7663C107.276 34.7468 107.207 32.2479 106.778 31.4047C106.187 30.2473 101.887 30.6382 100.645 30.8528C100.311 30.9004 99.9922 31.0207 99.7101 31.2054C99.5496 31.398 99.4555 31.6373 99.4418 31.8876C99.4346 33.7413 99.6352 35.59 100.04 37.399ZM100.27 31.7956C101.481 31.42 104.923 31.2744 106.019 31.7956C106.394 32.7921 106.594 36.2185 106.141 37.0157C105.428 37.1997 101.082 37.1997 100.354 37.2074C100.323 36.6095 99.9707 33.3824 100.27 31.7956ZM117.961 31.0904C119.188 29.2814 120.261 27.6487 120.299 27.5721C120.337 27.4954 119.778 26.8055 119.448 27.2961C117.103 30.9065 117.425 30.5615 117.256 30.5002C115.907 30.0096 111.553 30.1783 110.871 30.8145C110.411 31.2437 110.587 32.7998 110.641 33.4667C110.15 33.1907 109.775 32.9914 109.637 32.9378C109.284 32.7998 109.307 33.1447 109.499 33.2674L110.695 34.0339C110.791 35.0413 110.947 36.0421 111.162 37.0311C111.17 37.0777 111.194 37.12 111.231 37.1497C111.268 37.1794 111.314 37.1945 111.361 37.192C111.522 37.192 116.482 37.6673 117.494 37.399C118.812 37.031 118.406 32.1942 117.961 31.0904ZM111.384 31.4047C113.188 30.9944 115.056 30.9605 116.873 31.3051L114.213 35.498C113.945 35.3447 112.511 34.5015 111.315 33.827C111.265 33.0268 111.288 32.2237 111.384 31.4277V31.4047ZM117.264 36.6171C116.543 36.8088 112.197 36.8088 111.469 36.8164C111.469 36.5098 111.354 35.5057 111.3 34.3942L114.213 36.2032C114.286 36.2112 114.361 36.1982 114.427 36.1657C114.494 36.1331 114.55 36.0823 114.588 36.0192C114.834 35.705 116.068 33.9113 117.325 32.0639C117.563 33.4437 117.639 35.9579 117.279 36.6171H117.264ZM86.7864 20.221C86.9944 20.2241 87.1986 20.1653 87.3731 20.0521C87.5477 19.9389 87.6847 19.7764 87.7667 19.5852C87.8488 19.3941 87.8722 19.1829 87.834 18.9784C87.7959 18.7739 87.6979 18.5853 87.5524 18.4366C87.4069 18.2879 87.2206 18.1858 87.017 18.1431C86.8134 18.1005 86.6017 18.1193 86.4088 18.1971C86.2159 18.275 86.0504 18.4083 85.9334 18.5803C85.8164 18.7523 85.7531 18.9552 85.7516 19.1632C85.7515 19.4398 85.8598 19.7055 86.0532 19.9032C86.2467 20.1009 86.5099 20.215 86.7864 20.221Z" fill="black"/>
</svg>
