<svg width="112" height="112" viewBox="0 0 112 112" fill="none" xmlns="http://www.w3.org/2000/svg">
<path d="M95.1531 36.2261C94.8736 37.3444 93.1794 36.7853 92.5587 36.5784C92.5061 36.5584 92.4477 36.5601 92.3963 36.5832C92.3449 36.6063 92.3048 36.6488 92.2848 36.7014C92.2848 36.7629 92.1115 37.3556 91.8878 38.2166C91.8738 38.2652 91.8767 38.3171 91.896 38.3638C91.9153 38.4105 91.9499 38.4493 91.994 38.4738C92.7299 38.8562 93.5416 39.0701 94.3703 39.1001C94.4206 39.1031 94.4683 39.1229 94.5058 39.1564C94.5434 39.1899 94.5685 39.235 94.5772 39.2846L94.6946 39.9164C94.6987 39.9452 94.7085 39.9729 94.7234 39.9978C94.7384 40.0227 94.7581 40.0445 94.7816 40.0616C94.805 40.0788 94.8317 40.0912 94.8599 40.0979C94.8882 40.1047 94.9176 40.1057 94.9463 40.1009L96.6236 39.8605C96.6538 39.8554 96.6825 39.8439 96.7079 39.827C96.7334 39.81 96.755 39.7879 96.7713 39.7621C96.7877 39.7363 96.7984 39.7073 96.8028 39.677C96.8072 39.6468 96.8052 39.6159 96.797 39.5865C96.7411 39.3685 96.6572 39.0274 96.5845 38.7199C96.5739 38.679 96.5756 38.6359 96.5896 38.5961C96.6035 38.5563 96.629 38.5215 96.6628 38.4962C97.1065 38.1463 97.4244 37.6615 97.5686 37.1152C98.2563 34.5096 95.3321 32.8266 95.3321 32.8266C93.5316 31.7754 91.8766 31.2051 92.2289 30.1819C92.6482 28.9574 94.4654 29.9471 95.0245 30.3161C95.0726 30.3449 95.1298 30.3545 95.1847 30.3431C95.2396 30.3317 95.2882 30.3001 95.3209 30.2546L96.1707 28.8735C96.1993 28.8239 96.2082 28.7654 96.1958 28.7096C96.1834 28.6537 96.1505 28.6045 96.1037 28.5716C94.5213 27.4925 93.7217 27.8224 93.6602 27.4533L93.5205 26.5252C93.5121 26.4667 93.481 26.4139 93.4339 26.3782C93.3867 26.3426 93.3274 26.3271 93.2689 26.3351L91.6306 26.5867C91.6013 26.5912 91.5733 26.6018 91.5483 26.6179C91.5233 26.6339 91.502 26.6549 91.4857 26.6797C91.4694 26.7044 91.4584 26.7323 91.4535 26.7616C91.4486 26.7908 91.4499 26.8208 91.4573 26.8495C91.6586 27.6714 91.7424 27.8168 91.5411 27.9174C91.1287 28.1246 90.774 28.4306 90.5086 28.8081C90.2433 29.1857 90.0755 29.6231 90.0203 30.0813C89.6736 34.135 95.7849 33.7548 95.1531 36.2261ZM26.173 43.5564C25.9829 44.8088 23.8694 44.6746 23.1369 44.5963C23.0662 44.5898 22.9956 44.6104 22.9395 44.654C22.8834 44.6977 22.8461 44.761 22.835 44.8312L22.6896 46.626C22.679 46.6792 22.6885 46.7345 22.7164 46.781C22.7444 46.8275 22.7886 46.862 22.8406 46.8776C23.7507 47.0917 24.6981 47.0917 25.6083 46.8776C25.6609 46.8635 25.7169 46.8701 25.7648 46.8961C25.8127 46.9221 25.8487 46.9655 25.8655 47.0174L26.0835 47.8505C26.093 47.8785 26.1079 47.9043 26.1273 47.9265C26.1468 47.9487 26.1705 47.9668 26.197 47.9798C26.2235 47.9928 26.2523 48.0004 26.2818 48.0022C26.3113 48.004 26.3408 47.9999 26.3687 47.9903C26.9816 47.6951 27.6151 47.4447 28.2642 47.241C28.33 47.2158 28.3838 47.1666 28.4149 47.1034C28.446 47.0401 28.4521 46.9675 28.4319 46.9C28.3424 46.6819 28.1859 46.1563 28.0741 45.8376C28.059 45.7924 28.0567 45.7439 28.0676 45.6975C28.0784 45.6511 28.102 45.6086 28.1356 45.5748C28.5999 45.0969 28.9063 44.488 29.0134 43.8303C29.5278 40.8166 26.0109 39.8214 26.0109 39.8214C23.847 39.1951 21.9012 39.0442 22.1864 37.842C22.5275 36.3995 24.6689 36.9865 25.379 37.199C25.4451 37.2167 25.5153 37.2101 25.5769 37.1803C25.6385 37.1506 25.6873 37.0996 25.7145 37.0369L26.5029 35.3147C26.5166 35.2894 26.5251 35.2617 26.528 35.233C26.531 35.2044 26.5282 35.1755 26.5199 35.1479C26.5115 35.1204 26.4979 35.0948 26.4796 35.0725C26.4613 35.0503 26.4388 35.0319 26.4134 35.0184C25.5592 34.6818 24.6391 34.546 23.724 34.6214C23.6734 34.6277 23.6222 34.616 23.5793 34.5884C23.5364 34.5609 23.5045 34.5191 23.4892 34.4705L23.204 33.464C23.1951 33.4332 23.1795 33.4048 23.1584 33.3807C23.1373 33.3567 23.1111 33.3376 23.0818 33.3247C23.0524 33.3119 23.0206 33.3057 22.9886 33.3066C22.9565 33.3075 22.9251 33.3154 22.8965 33.3298L21.0737 33.8498C21.0073 33.8728 20.9523 33.9205 20.92 33.9829C20.8878 34.0454 20.8807 34.1178 20.9004 34.1853C21.2415 35.3036 21.3365 35.4154 21.1352 35.5719C20.6935 35.8937 20.3328 36.3138 20.0814 36.799C19.8301 37.2842 19.6951 37.8212 19.6871 38.3676C19.7374 42.8407 26.6203 40.7048 26.173 43.5564ZM52.6423 18.3115C52.9498 18.4793 52.3012 19.1279 52.6423 19.2621L53.9786 19.6479C54.0033 19.6554 54.0292 19.6577 54.0547 19.6546C54.0803 19.6515 54.1049 19.6431 54.127 19.63C54.1491 19.6168 54.1683 19.5992 54.1831 19.5782C54.198 19.5572 54.2084 19.5333 54.2135 19.5081C54.4092 18.7477 54.4148 18.6694 54.5601 18.6358C55.0364 18.5192 55.4656 18.2597 55.7902 17.8922C57.3502 16.1701 55.8965 13.9112 55.8965 13.9112C55.0074 12.5078 54.0234 11.5181 54.6943 10.8695C55.4995 10.0867 56.4053 11.4286 56.6904 11.9207C56.7024 11.9402 56.7182 11.9572 56.7368 11.9707C56.7555 11.9841 56.7766 11.9937 56.799 11.9989C56.8213 12.0041 56.8445 12.0048 56.8671 12.001C56.8898 11.9971 56.9114 11.9889 56.9309 11.9766L58.105 11.2217C58.1264 11.2101 58.1452 11.1943 58.1605 11.1753C58.1757 11.1563 58.187 11.1345 58.1938 11.1111C58.2005 11.0877 58.2026 11.0632 58.1998 11.039C58.1971 11.0148 58.1896 10.9914 58.1777 10.9701C57.8712 10.3919 57.4372 9.89099 56.9085 9.50521C56.7687 9.39898 56.8302 9.30392 57.1266 8.55469C57.1362 8.53245 57.1409 8.50839 57.1404 8.48415C57.1399 8.45992 57.1341 8.43608 57.1235 8.41429C57.1128 8.39251 57.0976 8.37328 57.0788 8.35794C57.0601 8.3426 57.0382 8.33152 57.0147 8.32544L55.7175 7.95642C55.6679 7.94448 55.6156 7.95241 55.5717 7.97853C55.5278 8.00464 55.4959 8.04687 55.4827 8.0962L55.287 8.78393C55.2764 8.82398 55.2534 8.85964 55.2212 8.88576C55.1891 8.91189 55.1495 8.92713 55.1081 8.92931C54.7105 8.94919 54.3232 9.06228 53.9775 9.25945C53.6317 9.45662 53.3371 9.73234 53.1176 10.0643C51.2109 12.983 55.8405 14.7834 54.37 16.4217C53.7214 17.1485 52.6926 16.1757 52.3292 15.801C52.2948 15.7676 52.2486 15.7488 52.2006 15.7488C52.1526 15.7488 52.1064 15.7676 52.072 15.801L51.1718 16.7963C51.1445 16.8293 51.1296 16.8709 51.1296 16.9137C51.1296 16.9566 51.1445 16.9981 51.1718 17.0311C51.557 17.5653 52.0602 18.0035 52.6423 18.3115ZM63.0981 32.8993C63.1019 32.944 63.1214 32.9859 63.1531 33.0176C63.1848 33.0493 63.2267 33.0688 63.2714 33.0726C75.6953 34.1406 76.2265 34.8059 76.4334 34.5655C76.6403 34.3251 76.931 33.4472 76.534 33.369C72.2815 32.4604 67.954 31.9476 63.6069 31.8369C63.2602 31.8369 63.0701 32.5303 63.0981 32.8993ZM50.3722 28.443C49.9137 28.443 52.0832 28.868 62.8856 31.1213C67.0229 31.3655 71.1429 31.8453 75.2257 32.5582C75.2308 32.5601 75.2363 32.5609 75.2417 32.5606C75.2472 32.5603 75.2525 32.559 75.2574 32.5566C75.2624 32.5543 75.2668 32.551 75.2704 32.547C75.2741 32.5429 75.2769 32.5382 75.2788 32.5331C75.2806 32.5279 75.2814 32.5225 75.2811 32.517C75.2809 32.5116 75.2795 32.5062 75.2772 32.5013C75.2749 32.4964 75.2716 32.4919 75.2675 32.4883C75.2635 32.4846 75.2588 32.4818 75.2536 32.4799C69.1982 29.5725 57.5906 28.1131 50.3722 28.443Z" fill="black"/>
<path d="M94.9688 44.1267C97.6973 44.1267 101.539 42.8183 102.83 40.2127C106.442 32.9049 103.009 24.557 98.3571 22.5106C96.8418 21.8509 95.2986 21.6999 92.6819 21.9515C91.7165 22.0648 90.7836 22.3706 89.9385 22.8508C89.0933 23.331 88.3531 23.9758 87.7615 24.7472C82.6175 31.1324 86.2351 44.1267 94.9688 44.1267ZM86.0226 29.5892C87.4372 22.0913 93.9288 20.4139 98.29 24.462C104.754 30.4559 102.534 43.0196 95.1589 43.6514C89.3159 44.1714 84.6248 36.981 86.017 29.634L86.0226 29.5892Z" fill="black"/>
<path d="M91.8263 41.3421C92.6195 41.7614 93.5012 41.9857 94.3983 41.9963C97.8482 41.9963 101.22 38.1327 100.549 32.3848C99.7045 25.0155 92.8328 21.4538 88.9971 26.1785C85.4355 30.5677 86.8892 38.7925 91.8263 41.3421ZM92.8551 24.4619C95.936 24.1712 99.6318 27.1402 100.241 32.4296C100.946 38.58 96.5734 43.3494 92.0108 40.9731C90.1378 40.0002 87.9851 37.5512 87.5378 33.587C87.0905 29.6227 88.9021 24.831 92.8551 24.4619ZM51.8652 21.6383C52.411 21.8624 52.9972 21.9711 53.5871 21.9576C54.1769 21.9441 54.7576 21.8088 55.2926 21.56C60.9902 19.1278 62.9192 8.70001 57.7808 6.55294C54.426 5.14952 50.9426 8.52668 49.6063 11.9318C48.1805 15.5661 48.6446 20.3076 51.8652 21.6383ZM56.2432 6.60885C59.5309 6.60885 60.8392 10.2656 60.3528 13.6707C59.9167 16.7068 58.1163 19.6199 55.8015 20.9394C53.4867 22.259 51.2445 21.5768 50.0815 19.5528C47.4145 14.8784 51.4402 6.60885 56.2432 6.60885Z" fill="black"/>
<path d="M51.9994 23.4108C52.996 23.885 54.0781 24.1531 55.1809 24.1992C58.3232 24.1992 61.5438 21.493 63.1261 17.4896C64.8706 13.0165 64.004 8.21918 61.1077 6.30695C60.2804 5.88465 59.429 5.51125 58.558 5.18868C53.2463 2.97452 46.6876 10.3103 47.8115 17.8922C48.242 20.7549 49.7629 22.7734 51.9994 23.4108ZM48.8683 11.6243C49.6831 9.4033 51.1681 7.49045 53.1177 6.15039C54.9237 4.9818 56.8191 4.71342 58.4574 5.38997C64.0487 7.71037 62.7851 18.4289 56.9086 22.2198C50.8029 26.1561 45.8489 19.2844 48.8683 11.6243ZM22.7009 53.917C25.6717 54.0955 28.5954 53.1109 30.853 51.1717C36.7631 47.3305 37.4452 38.8708 32.782 33.3466C29.2819 29.1978 23.629 27.7553 19.0442 29.8352C6.54197 33.7436 10.2043 52.905 22.7009 53.917ZM24.8032 29.3152C34.7725 30.5901 39.1394 43.6122 31.7812 50.0478C24.5796 56.3269 12.7707 50.2379 12.9328 39.9108C13.0391 33.5087 18.3061 28.5157 24.8032 29.3208V29.3152Z" fill="black"/>
<path d="M20.1624 49.3881C21.2854 50.0341 22.5317 50.4372 23.8204 50.571C25.1092 50.7049 26.4116 50.5667 27.6435 50.1653C33.0112 48.3649 35.3987 41.7783 32.262 36.2932C29.1252 30.8081 22.1976 29.5277 17.8867 33.2627C12.8601 37.6463 14.2244 46.0389 20.1624 49.3881ZM23.5619 31.5909C28.1412 31.5909 32.234 35.1302 33.0671 39.9052C34.465 47.8505 25.9382 53.3803 19.2566 48.3593C17.9775 47.4004 16.9428 46.1533 16.2365 44.7193C15.5302 43.2853 15.1722 41.7049 15.1917 40.1065C15.2923 35.3427 18.9267 31.5909 23.5619 31.5909ZM62.4104 50.4951C62.3672 50.4956 62.3255 50.5111 62.2925 50.5391C62.2596 50.5671 62.2376 50.6058 62.2303 50.6484C62.2229 50.691 62.2308 50.7348 62.2525 50.7722C62.2742 50.8096 62.3083 50.8382 62.3489 50.853C64.0878 51.4121 64.3282 50.182 63.5957 48.5494C63.5816 48.5071 63.5513 48.4722 63.5115 48.4522C63.4717 48.4323 63.4255 48.429 63.3833 48.4431C63.341 48.4572 63.3061 48.4875 63.2861 48.5274C63.2662 48.5672 63.2629 48.6133 63.277 48.6556C63.3932 49.1564 63.4569 49.668 63.4671 50.182C63.4448 50.4225 63.4336 50.5063 62.4104 50.4951ZM58.6027 50.6293C58.3846 52.3067 60.3472 53.7046 61.7338 53.0448C61.7708 53.0257 61.7997 52.9939 61.8152 52.9552C61.8307 52.9166 61.8317 52.8737 61.8181 52.8343C61.8046 52.7949 61.7773 52.7618 61.7413 52.7409C61.7052 52.72 61.6629 52.7127 61.622 52.7205C61.3045 52.7684 60.9806 52.7522 60.6695 52.6726C60.3584 52.593 60.0664 52.4518 59.8109 52.2573C59.5554 52.0628 59.3415 51.819 59.182 51.5403C59.0225 51.2616 58.9206 50.9537 58.8822 50.6349C58.883 50.5979 58.869 50.562 58.8433 50.5353C58.8176 50.5085 58.7823 50.4931 58.7453 50.4924C58.7082 50.4916 58.6723 50.5056 58.6456 50.5313C58.6189 50.557 58.6034 50.5923 58.6027 50.6293ZM60.5093 47.8169C61.0685 47.9064 61.3648 46.1731 60.7945 46.0836C60.2242 45.9941 59.9334 47.7219 60.5093 47.8169ZM65.8267 46.57C65.2675 46.475 64.9544 48.3089 65.5918 48.3089C66.1286 48.3089 66.3914 46.6651 65.8267 46.57ZM61.8121 44.1714C61.3312 43.2152 59.8272 43.1705 59.1395 44.1714C59.1124 44.2077 59.0992 44.2525 59.1022 44.2977C59.1053 44.3429 59.1244 44.3856 59.1561 44.418C59.1878 44.4503 59.23 44.4703 59.2751 44.4743C59.3203 44.4783 59.3653 44.4661 59.4022 44.4397C59.6951 44.1937 60.0632 44.0552 60.4455 44.0471C60.8279 44.0389 61.2016 44.1617 61.5046 44.395C61.5389 44.4189 61.5798 44.4315 61.6216 44.431C61.6634 44.4306 61.704 44.4171 61.7379 44.3925C61.7717 44.3679 61.797 44.3334 61.8103 44.2938C61.8236 44.2542 61.8242 44.2114 61.8121 44.1714ZM67.2301 45.0995C67.2554 45.1344 67.2917 45.1597 67.3333 45.1713C67.3748 45.1828 67.419 45.1799 67.4586 45.163C67.4983 45.1461 67.531 45.1162 67.5515 45.0783C67.5719 45.0403 67.5789 44.9966 67.5712 44.9542C67.4909 44.7273 67.3582 44.5227 67.1839 44.3569C67.0095 44.1911 66.7984 44.0689 66.5678 44.0002C66.3372 43.9315 66.0937 43.9183 65.857 43.9616C65.6204 44.005 65.3973 44.1037 65.206 44.2496C65.1732 44.2757 65.1502 44.3121 65.1408 44.353C65.1314 44.3939 65.1362 44.4367 65.1545 44.4745C65.1727 44.5122 65.2032 44.5427 65.2411 44.5607C65.2789 44.5788 65.3218 44.5835 65.3626 44.5739C65.6872 44.4358 66.0492 44.4125 66.3888 44.5081C66.7284 44.6037 67.0252 44.8123 67.2301 45.0995ZM18.9155 84.5798C18.8881 85.7988 19.1526 87.0065 19.6871 88.1024C19.7004 88.1362 19.7264 88.1635 19.7596 88.1785C19.7928 88.1935 19.8305 88.1949 19.8647 88.1826C19.8989 88.1702 19.927 88.145 19.9429 88.1122C19.9588 88.0795 19.9613 88.0419 19.9499 88.0073C19.5873 86.9045 19.3987 85.7519 19.3908 84.591C19.3908 83.9927 19.5417 83.305 19.8045 83.2211C19.9331 83.182 20.2462 83.2547 20.8892 84.194C20.9085 84.2259 20.9397 84.2488 20.9758 84.2578C21.012 84.2667 21.0502 84.2608 21.0821 84.2416C21.114 84.2223 21.1369 84.1911 21.1458 84.155C21.1548 84.1188 21.1489 84.0805 21.1297 84.0487C20.1288 82.0302 18.9714 82.5726 18.9155 84.5798ZM25.2896 100.275C24.5043 100.18 23.7592 99.8755 23.1331 99.3922C22.5071 98.9089 22.0235 98.2652 21.7335 97.5293C21.7128 97.4882 21.6782 97.4556 21.6358 97.4375C21.5935 97.4193 21.5461 97.4167 21.502 97.4301C21.4579 97.4434 21.4199 97.4719 21.3948 97.5106C21.3696 97.5492 21.3589 97.5954 21.3645 97.6412C21.5506 98.5293 22.0465 99.3223 22.7635 99.8785C23.4805 100.435 24.3719 100.718 25.2784 100.677C25.3048 100.678 25.3312 100.674 25.3559 100.664C25.3806 100.655 25.4032 100.64 25.4224 100.622C25.4416 100.604 25.457 100.582 25.4678 100.558C25.4786 100.534 25.4846 100.508 25.4853 100.482C25.486 100.455 25.4815 100.429 25.4721 100.404C25.4627 100.379 25.4485 100.357 25.4303 100.338C25.4121 100.318 25.3903 100.303 25.3662 100.292C25.3421 100.281 25.316 100.275 25.2896 100.275ZM24.9821 86.9729C24.4844 87.3028 25.2449 88.5329 25.776 88.5329C25.8299 88.5315 25.8827 88.5184 25.9309 88.4944C25.9791 88.4704 26.0215 88.4362 26.055 88.3941C26.0886 88.352 26.1126 88.3031 26.1252 88.2507C26.1379 88.1984 26.1389 88.144 26.1283 88.0912C26.1003 87.5656 25.4182 86.6654 24.9821 86.9729ZM27.3081 86.3355C26.9334 86.1119 26.6651 86.3355 26.6818 86.671C26.7098 87.1966 27.3752 88.0856 27.8001 87.7892C28.225 87.4929 27.8336 86.6654 27.3081 86.3355ZM14.873 85.1669C12.3736 84.8091 10.3999 85.1669 8.80638 86.1678C8.74966 86.2041 8.70797 86.2597 8.68897 86.3243C8.55894 86.7437 8.58273 87.1957 8.75606 87.5991C8.76898 87.6265 8.78747 87.6509 8.81033 87.6708C8.8332 87.6906 8.85995 87.7055 8.88888 87.7144C8.91781 87.7234 8.94828 87.7262 8.97836 87.7227C9.00844 87.7192 9.03746 87.7095 9.06358 87.6942C10.8042 86.7883 12.7944 86.4799 14.7276 86.8164C14.75 86.8221 14.7734 86.8231 14.7963 86.8194C14.8191 86.8156 14.841 86.8072 14.8604 86.7946C14.8799 86.782 14.8965 86.7655 14.9092 86.7461C14.922 86.7268 14.9306 86.705 14.9345 86.6822C15.0243 86.2428 15.0581 85.7938 15.0351 85.3458C15.033 85.3019 15.0157 85.26 14.9861 85.2273C14.9565 85.1947 14.9165 85.1734 14.873 85.1669ZM30.8865 92.8158C30.0199 92.8158 30.0981 95.2984 30.9424 95.276C31.7867 95.2537 31.7308 92.8158 30.8865 92.8158ZM33.2013 93.375C33.0727 92.8606 32.6757 92.7823 32.3626 93.2072C31.9041 93.8167 31.8706 95.1754 32.4689 95.1754C33.0671 95.1754 33.3691 94.018 33.2013 93.375ZM54.6217 99.1508H52.9443C52.8773 99.1533 52.8135 99.1803 52.7651 99.2267C52.7166 99.2731 52.6869 99.3356 52.6815 99.4024L52.5585 100.482C52.5536 100.566 52.581 100.648 52.635 100.713C52.6891 100.777 52.7657 100.818 52.8492 100.828C53.4923 100.895 54.1407 100.895 54.7838 100.828C54.8645 100.82 54.9386 100.78 54.9899 100.717C55.0412 100.654 55.0656 100.573 55.0578 100.493L54.946 99.4583C54.9369 99.3771 54.8993 99.3016 54.84 99.2453C54.7806 99.1891 54.7033 99.1556 54.6217 99.1508ZM55.8014 99.4136L55.712 100.482C55.7088 100.568 55.739 100.652 55.7963 100.717C55.8535 100.781 55.9335 100.821 56.0195 100.828C56.6873 100.887 57.359 100.887 58.0268 100.828C58.1098 100.818 58.1859 100.777 58.239 100.712C58.2922 100.648 58.3183 100.565 58.3119 100.482C58.1666 99.7491 58.3119 99.162 57.8423 99.1508C57.3726 99.1396 56.6849 99.1508 56.0698 99.1508C56.0004 99.1535 55.9345 99.1819 55.8849 99.2304C55.8353 99.279 55.8055 99.3443 55.8014 99.4136ZM59.1171 100.828C59.7698 100.89 60.4269 100.89 61.0796 100.828C61.1608 100.82 61.2353 100.78 61.2876 100.717C61.3398 100.655 61.3655 100.574 61.3592 100.493L61.2474 99.4583C61.2366 99.3738 61.1955 99.2961 61.1317 99.2395C61.068 99.183 60.9859 99.1515 60.9007 99.1508H59.1674C59.0998 99.1532 59.0353 99.18 58.986 99.2263C58.9366 99.2725 58.9057 99.3351 58.899 99.4024L58.8152 100.47C58.8113 100.514 58.8161 100.557 58.8292 100.599C58.8424 100.64 58.8636 100.679 58.8916 100.712C58.9197 100.745 58.9541 100.773 58.9928 100.793C59.0315 100.813 59.0737 100.825 59.1171 100.828ZM62.2035 100.828C62.894 100.879 63.5873 100.879 64.2779 100.828C64.319 100.825 64.3592 100.814 64.3961 100.796C64.433 100.778 64.466 100.752 64.493 100.721C64.52 100.69 64.5406 100.654 64.5536 100.614C64.5666 100.575 64.5717 100.534 64.5686 100.493L64.4512 99.4527C64.4355 99.3679 64.3905 99.2912 64.3241 99.236C64.2577 99.1808 64.1741 99.1507 64.0878 99.1508H62.2538C62.1846 99.1517 62.1181 99.1777 62.0667 99.224C62.0152 99.2703 61.9824 99.3337 61.9742 99.4024L61.8904 100.47C61.8866 100.515 61.8917 100.559 61.9055 100.601C61.9194 100.644 61.9415 100.683 61.9708 100.716C62 100.749 62.0357 100.777 62.0757 100.796C62.1157 100.815 62.1591 100.826 62.2035 100.828ZM82.7516 96.2601C81.0742 95.9079 75.1977 98.5749 75.0076 98.7818C74.5491 99.2682 74.7616 100.744 75.1474 101.175C75.5332 101.605 86.1064 106.151 89.6848 106.9C90.6745 106.973 94.1579 105.363 95.0805 104.932C96.1987 104.373 97.4009 103.926 97.6021 102.824C97.6021 102.824 97.809 101.449 97.2834 101.069C94.1244 99.0781 87.6943 97.2889 82.7516 96.2601ZM82.6901 96.6124C86.4027 97.3224 93.7162 99.4975 96.8585 101.32C95.9695 102.025 90.7081 104.463 89.9364 104.591C87.029 103.031 78.7929 100.118 75.3095 99.0669C75.5276 98.8489 81.1133 96.316 82.6621 96.6124H82.6901ZM89.9197 106.364C88.1975 106.364 77.1044 101.779 75.5667 100.962C75.248 100.795 75.1139 99.8441 75.2033 99.3409C77.8312 100.325 89.2879 104.491 89.7967 105.027C89.9271 105.223 90.0045 105.449 90.0212 105.683C90.0378 105.917 89.9932 106.152 89.8917 106.364H89.9197ZM97.1884 102.74C97.0486 103.49 96.3665 103.814 95.0078 104.457C93.5165 105.183 91.9704 105.791 90.3838 106.274C90.5107 105.832 90.4709 105.358 90.2719 104.943C91.6194 104.591 96.2043 102.556 97.1772 101.622C97.2162 101.995 97.2049 102.371 97.1437 102.74H97.1884Z" fill="black"/>
<path d="M95.0526 101.085C94.829 100.638 82.7182 96.8864 82.2261 96.9926C80.9178 97.2833 79.9896 97.5517 77.3505 98.8769C77.3218 98.8896 77.2975 98.9104 77.2804 98.9367C77.2633 98.963 77.2542 98.9937 77.2542 99.025C77.2542 99.0564 77.2633 99.0871 77.2804 99.1134C77.2975 99.1397 77.3218 99.1605 77.3505 99.1732C80.4649 100.325 89.7744 103.646 89.9533 103.613C95.0862 101.236 95.2036 101.382 95.0526 101.085ZM78.4464 99.1956C79.6222 98.5395 80.8828 98.0485 82.1926 97.7362C86.4923 98.793 90.6802 100.219 93.8952 101.365C92.5051 101.876 91.1524 102.483 89.8471 103.182C87.3086 102.215 82.4945 100.437 78.4464 99.1956Z" fill="black"/>
<path d="M97.3786 91.1888C97.3667 91.0181 97.313 90.8529 97.222 90.7079C97.3805 90.7051 97.5358 90.6628 97.6737 90.5847C97.8116 90.5065 97.9278 90.3952 98.0117 90.2607C98.0956 90.1263 98.1446 89.9729 98.1541 89.8147C98.1636 89.6565 98.1335 89.4984 98.0663 89.3548C103.132 84.8147 109.445 77.0539 109.109 76.1258C108.88 75.5051 108.88 76.9924 88.9804 73.7998C84.8149 64.63 79.7827 55.6559 68.382 55.3037C68.3341 55.3026 68.2872 55.3181 68.2495 55.3477C68.2118 55.3773 68.1855 55.419 68.1751 55.4658C67.4594 58.5858 65.2005 65.7539 59.6931 64.8928C55.5667 64.2442 52.6312 59.5195 51.5353 55.0856C52.6541 55.1326 53.7748 55.1064 54.8901 55.0073C54.9283 55.0038 54.9645 54.9884 54.9935 54.9634C55.0226 54.9383 55.0431 54.9048 55.0523 54.8676C55.5121 52.9509 55.605 50.9646 55.3262 49.0134C55.3232 48.9895 55.3149 48.9665 55.3021 48.946C55.2893 48.9256 55.2723 48.9081 55.2521 48.8948C55.2319 48.8815 55.2091 48.8728 55.1852 48.8691C55.1614 48.8655 55.137 48.867 55.1138 48.8737C53.6153 49.2651 53.1456 47.1012 53.5985 46.078C53.6632 45.9161 53.7811 45.7812 53.9328 45.6954C54.0846 45.6096 54.261 45.5781 54.433 45.6061C54.6051 45.6342 54.7624 45.72 54.879 45.8495C54.9957 45.979 55.0647 46.1444 55.0746 46.3184C55.0746 47.0509 56.752 45.3511 56.5284 43.6178C56.7632 43.6178 56.9925 43.6178 57.2161 43.5787C57.546 43.5395 57.1378 42.2647 58.4238 41.0794C58.2897 41.4953 58.2723 41.9402 58.3735 42.3654C58.4462 42.6002 59.4918 42.6226 60.0956 42.4548C60.3137 42.3989 60.2131 41.823 61.1468 40.0729C62.7095 40.4042 64.302 40.5746 65.8994 40.5817C66.5508 41.0713 67.1436 41.6341 67.6663 42.2591C70.1265 45.2058 67.068 54.0456 63.5623 56.0194C62.1477 56.8133 60.7666 56.5785 59.3688 55.7454C59.2178 55.6503 59.106 55.5777 59.0221 55.6951C58.9981 55.7209 58.9848 55.7549 58.9848 55.7901C58.9848 55.8254 58.9981 55.8593 59.0221 55.8852C61.1915 57.6744 63.7691 57.4172 65.8379 54.5656C66.1678 54.6159 67.3644 54.7222 67.5153 54.4203C67.7425 53.9021 67.895 53.3542 67.9682 52.7932C68.4267 53.9841 68.0018 54.862 68.4379 54.8172C68.9672 54.795 69.4801 54.6267 69.9196 54.3308C69.9372 54.3155 69.9513 54.2966 69.961 54.2754C69.9706 54.2542 69.9756 54.2311 69.9755 54.2078C69.9895 53.4822 69.9163 52.7576 69.7575 52.0495C70.5346 53.1678 70.5626 53.6431 70.7136 53.6598C71.0323 53.7102 72.1114 52.9106 72.0946 52.6925C71.9211 51.8363 71.5913 51.0194 71.1217 50.2827C70.876 49.6887 70.8062 49.0366 70.9204 48.404C71.3844 49.3081 71.723 50.2712 71.9269 51.2668C71.9604 51.4457 71.9716 51.5463 72.1505 51.5407C72.4693 51.5148 72.7797 51.4258 73.0639 51.279C73.348 51.1321 73.6001 50.9303 73.8056 50.6853C73.8271 50.6625 73.8425 50.6347 73.8504 50.6044C73.8582 50.574 73.8582 50.5422 73.8503 50.5119C73.7511 50.0747 73.6107 49.6478 73.4309 49.2371C74.2976 49.6788 75.2425 49.2371 75.2537 48.9631C75.3264 46.8328 74.8176 45.9494 74.1746 45.2784C74.3479 45.3735 75.5109 45.3232 75.7849 44.6858C75.8316 44.4608 75.8316 44.2286 75.7849 44.0036C75.7075 43.5365 75.5332 43.0907 75.2732 42.6949C75.0132 42.2991 74.6733 41.9621 74.2752 41.7056C73.3359 41.057 72.5307 40.7551 72.2568 39.7207C73.6602 40.168 73.6266 41.3981 75.2537 42.1473C75.2725 42.1605 75.295 42.1676 75.318 42.1676C75.341 42.1676 75.3635 42.1605 75.3823 42.1473C76.1763 41.728 76.3161 40.7047 76.126 40.5985C74.8176 39.8884 74.6331 37.719 72.0499 37.3555C73.252 37.0536 73.7273 37.2493 73.7664 36.953C73.8095 36.6938 73.7899 36.4281 73.7092 36.178C73.6284 35.928 73.4889 35.701 73.3024 35.516C72.101 35.2623 70.8573 35.2891 69.668 35.5943C69.8078 34.9513 69.9028 34.476 69.9028 34.476C69.9028 34.3418 70.5067 34.4369 62.4272 33.7268C55.8966 32.1388 56.3103 32.1948 56.2768 32.3401C56.2768 32.3681 56.0811 35.1693 56.1761 37.294C56.2432 38.731 59.0221 39.5865 60.7666 39.9779C60.3083 40.6233 60.0111 41.3691 59.9 42.1529C59.4774 42.122 59.0532 42.122 58.6307 42.1529C58.6613 41.7071 58.7248 41.2642 58.8208 40.8278C58.8656 40.5985 58.8823 40.5258 58.8208 40.4755C58.6251 40.3189 57.0036 41.2974 57.026 43.2712C56.411 43.2712 56.1929 43.2097 55.6897 43.1761C55.6036 42.0277 55.9199 40.885 56.5843 39.9443L56.6234 39.8884C56.6352 39.8741 56.644 39.8576 56.6494 39.8399C56.6547 39.8222 56.6566 39.8035 56.6548 39.7851C56.6529 39.7667 56.6475 39.7488 56.6388 39.7325C56.6301 39.7161 56.6182 39.7017 56.6039 39.6899C56.5896 39.6782 56.5731 39.6694 56.5553 39.664C56.5376 39.6586 56.519 39.6568 56.5006 39.6586C56.4821 39.6604 56.4642 39.6658 56.4479 39.6746C56.4316 39.6833 56.4171 39.6952 56.4054 39.7095C55.965 40.21 55.642 40.8026 55.4602 41.444C55.2783 42.0854 55.2421 42.7594 55.3542 43.4165C55.3607 43.4557 55.3793 43.4919 55.4073 43.52C55.4354 43.548 55.4716 43.5666 55.5108 43.5731C55.7344 43.6066 55.9637 43.6234 56.1929 43.6346C56.1179 44.4694 55.8163 45.2679 55.3207 45.9438C55.2441 45.7424 55.1132 45.5663 54.9424 45.435C54.7716 45.3037 54.5676 45.2224 54.3534 45.2002C52.2622 44.9821 52.6256 49.7291 54.9852 49.2539C54.9852 50.428 54.9852 51.1717 54.9013 52.4745L54.1577 52.8994C53.858 52.2002 53.4608 51.547 52.9779 50.9592C52.9658 50.946 52.9512 50.9354 52.9348 50.9282C52.9184 50.921 52.9007 50.9172 52.8828 50.9172C52.865 50.9172 52.8473 50.921 52.8309 50.9282C52.8145 50.9354 52.7998 50.946 52.7878 50.9592C52.5791 51.7884 52.5241 52.6487 52.6256 53.4977C52.1926 53.4985 51.7641 53.409 51.3676 53.2349C51.1596 52.0103 51.1201 50.7631 51.2502 49.5278C51.254 49.4927 51.247 49.4571 51.2301 49.4261C51.2131 49.395 51.1871 49.3698 51.1554 49.354C51.1237 49.3382 51.088 49.3324 51.0529 49.3375C51.0179 49.3426 50.9853 49.3583 50.9594 49.3825C50.1629 50.1074 49.5186 50.9836 49.064 51.9601C48.5804 51.8461 48.1539 51.5624 47.8618 51.1605C48.6894 49.0638 49.9362 48.5885 49.9865 46.3184C49.9889 46.2863 49.9817 46.2543 49.9659 46.2263C49.95 46.1983 49.9261 46.1757 49.8974 46.1613C49.8686 46.1469 49.8362 46.1414 49.8043 46.1455C49.7724 46.1496 49.7424 46.1631 49.7182 46.1842C48.9691 46.7808 48.2611 47.4271 47.599 48.1188C47.244 47.7885 47.0031 47.3538 46.9113 46.8776C48.2756 45.9047 49.3212 45.0157 49.4721 43.2712C49.4721 43.232 49.4721 43.1202 49.405 43.0811C49.3379 43.0419 49.3268 43.0811 48.5328 43.6402C48.0499 43.9368 47.6223 44.3152 47.2692 44.7585C46.9017 44.3758 46.7006 43.8631 46.71 43.3327C48.1526 42.1361 49.4386 42.0578 49.7182 39.9779C49.7225 39.9528 49.7199 39.9271 49.7107 39.9034C49.7014 39.8797 49.6859 39.859 49.6658 39.8434C49.6457 39.8279 49.6217 39.8182 49.5964 39.8153C49.5712 39.8123 49.5456 39.8164 49.5225 39.8269C48.6376 40.2238 47.8221 40.7599 47.107 41.4148C46.8738 41.1033 46.7064 40.7476 46.615 40.3693C49.5113 39.0106 50.0257 37.1543 51.9323 36.5057C52.0889 36.4553 52.0833 36.3379 51.9882 36.2764C51.7087 36.1087 49.6343 36.0136 47.7836 37.2214C47.5341 36.8149 47.4079 36.3449 47.4201 35.8683C50.6855 34.6326 51.7925 34.7835 53.6656 35.0799C52.9132 36.8635 52.4235 38.7469 52.2119 40.6712C52.3573 40.9843 53.2071 40.934 53.2071 40.934C53.2942 39.4168 53.5607 37.9154 54.0011 36.4609C53.887 37.809 53.8422 39.162 53.8669 40.5146C54.2014 40.5265 54.536 40.4946 54.8622 40.4196C54.7951 38.2613 54.7951 34.4704 55.9133 31.4791L62.0638 32.8769C62.0822 32.8803 62.1011 32.8795 62.1192 32.8745C62.1372 32.8696 62.1539 32.8605 62.1679 32.8481C62.1819 32.8357 62.1929 32.8203 62.2001 32.803C62.2072 32.7857 62.2103 32.767 62.2092 32.7483C62.1747 32.405 62.2469 32.0594 62.416 31.7586C62.5223 31.5741 63.0087 31.7586 49.6455 28.84C49.5768 28.8272 49.5059 28.8401 49.4461 28.8762C49.3864 28.9123 49.3419 28.969 49.3212 29.0357C49.064 29.8855 49.5057 30.0253 49.5057 30.0253L55.0131 31.2778C54.8909 31.8611 54.7207 32.4334 54.5043 32.9887C53.7327 32.3681 52.5865 32.055 52.3908 32.2507C51.8317 32.8098 51.7814 33.6541 51.9435 33.7659C52.3545 34.0272 52.7469 34.3168 53.1177 34.6326C51.0377 34.2076 49.2709 34.6326 47.135 35.5048C47.0986 35.5217 47.0678 35.5485 47.046 35.5821C47.0243 35.6158 47.0125 35.6549 47.012 35.6949C47.0034 36.3565 47.2203 37.0014 47.627 37.5233C47.873 37.8364 48.7061 36.7293 51.0545 36.528C49.707 37.2158 48.818 38.8149 46.5814 40.0058C46.3578 40.1288 46.2571 40.1848 46.2627 40.2966C46.2709 40.5895 46.3408 40.8774 46.468 41.1415C46.5952 41.4055 46.7768 41.6396 47.0008 41.8286C47.2636 41.9404 47.0008 41.7503 49.3212 40.2686C48.762 41.9796 47.7165 41.8398 46.341 43.0643C46.1621 43.2208 46.2124 44.3335 47.1182 45.1834C47.1548 45.2192 47.204 45.2393 47.2552 45.2393C47.3064 45.2393 47.3556 45.2192 47.3922 45.1834C47.888 44.6107 48.4512 44.1001 49.0696 43.6626C48.4601 45.8152 46.4081 46.4079 46.4864 46.7769C46.4992 47.1354 46.601 47.4851 46.7825 47.7945C46.9641 48.1039 47.2197 48.3633 47.5264 48.5494C47.8618 48.678 47.7053 48.3704 49.6455 46.7042C49.4106 48.7562 47.8842 49.3433 47.476 51.1214C47.3978 51.3394 47.9904 52.1837 49.1534 52.4577C49.6175 52.5583 49.2764 51.7588 50.8308 50.0031C50.7171 51.1204 50.7453 52.2477 50.9147 53.3579C50.9986 53.8276 52.2398 53.917 52.8549 53.8499C53.2239 53.7996 52.8549 53.6151 52.9667 51.5184C54.1297 53.6934 53.6041 53.6598 54.8398 52.933C54.7951 53.4921 54.7448 54.0512 54.6777 54.6104C52.1504 54.4594 51.4235 54.683 51.4011 54.5768C51.3788 54.4706 51.3452 54.2861 51.1943 54.2805C35.5386 53.8052 24.9151 67.9401 22.276 83.3218C20.0171 80.5149 17.6911 81.0741 16.7741 83.1093C9.50538 82.1364 4.0818 85.48 2.98031 91.6473C2.23666 95.8072 3.09214 98.916 5.77597 101.712C5.41812 105.816 6.3351 105.983 8.0125 106.297C9.22202 106.515 10.4667 106.43 11.6357 106.051C11.7423 106.028 11.8379 105.969 11.907 105.885C11.9761 105.801 12.0145 105.695 12.0159 105.586C12.5359 105.586 13.5982 105.553 13.9673 105.111C14.081 104.907 14.1279 104.672 14.1014 104.44C15.9074 104.675 15.1806 104.149 15.6055 105.698C15.8068 106.442 15.9745 106.626 16.6008 106.817C18.0377 107.214 22.7512 107.342 23.1035 105.771C23.8248 105.827 25.8041 105.894 26.2122 105.005C26.3436 104.447 26.3926 103.872 26.3576 103.3C29.5559 102.522 31.9154 100.666 33.1846 97.9207C39.6929 97.5797 44.5574 96.1483 48.0519 93.5483C49.4833 96.0532 51.0601 95.8464 50.2885 93.9006C51.5465 95.2649 52.6033 94.4597 51.5633 92.5475C51.8454 92.8288 52.2134 93.0078 52.6089 93.0563L54.482 96.9143H53.5929C53.4364 96.9143 53.4196 97.0149 53.4084 97.1212C53.4046 97.1789 53.4046 97.2368 53.4084 97.2945C53.3956 97.2914 53.3822 97.2914 53.3693 97.2945H51.6919C51.267 97.3392 50.9538 98.1667 50.5736 99.1229C49.9362 100.8 49.9306 101.287 49.9194 101.84C49.8851 102.26 49.9434 102.683 50.0902 103.078C50.2371 103.473 50.4689 103.831 50.7693 104.127C51.1439 104.502 65.8212 104.725 66.1175 104.351C66.4924 103.941 66.7439 103.434 66.8429 102.888C66.9418 102.342 66.8842 101.779 66.6766 101.264C66.6766 101.231 65.2676 97.9095 64.9992 97.6747C64.5953 97.4827 64.148 97.3998 63.702 97.4343H63.6126V97.2386C63.6058 97.1763 63.5765 97.1186 63.5301 97.0764C63.4838 97.0342 63.4236 97.0103 63.361 97.0093C62.8018 97.0093 62.4049 96.9814 61.9464 97.0093C61.7227 97.0093 61.7563 97.2833 61.7451 97.4175H61.0909C61.0909 97.3225 61.0909 97.0653 60.8225 97.0597H59.1451C58.9382 97.0597 58.9662 97.3113 58.955 97.3672H58.3959C58.3959 97.3336 58.3959 97.0037 58.1275 96.9982C57.8591 96.9926 57.3783 96.9982 57.0987 96.9982C57.1019 96.9498 57.1019 96.9012 57.0987 96.8528C57.054 96.4726 54.7112 91.8765 54.5099 91.4963H77.876C82.9753 92.184 86.3134 92.4916 92.1283 92.7935C92.8105 94.0404 94.2698 93.9733 94.4711 93.1346C95.4663 93.4421 96.1485 93.1737 96.1485 92.1505C96.3755 92.1876 96.6084 92.1539 96.8155 92.0538C97.0227 91.9538 97.1939 91.7923 97.3059 91.5914C107.75 91.5914 107.538 91.6864 107.532 91.4012C107.527 91.1161 107.784 91.1888 97.3786 91.1888ZM68.4603 39.9667C68.9322 38.7039 69.3061 37.4066 69.5785 36.0863C70.5514 35.6614 72.0555 35.7285 73.1626 35.9298C73.3406 36.1731 73.4366 36.4669 73.4365 36.7685C72.6669 36.767 71.9093 36.9593 71.2336 37.3276C71.217 37.3359 71.2024 37.3477 71.1908 37.3622C71.1793 37.3767 71.1709 37.3935 71.1665 37.4115C71.1161 37.596 71.3566 37.6072 71.5467 37.6295C74.4933 37.993 74.3423 40.0673 75.9079 40.8054C75.7999 41.1947 75.5984 41.5518 75.3208 41.8454C73.7776 40.8781 73.7832 39.5473 72.0834 39.374C72.064 39.3729 72.0446 39.3761 72.0266 39.3836C72.0087 39.391 71.9926 39.4024 71.9797 39.417C71.9668 39.4315 71.9574 39.4488 71.9521 39.4675C71.9468 39.4862 71.9458 39.5058 71.9492 39.525C72.1449 42.0131 75.1922 41.3477 75.5221 44.5572C75.1984 44.7669 74.823 44.883 74.4374 44.8926C74.3385 44.2973 74.0669 43.7442 73.6564 43.3018C73.2459 42.8595 72.7145 42.5475 72.1282 42.4045C72.1065 42.3972 72.0834 42.3952 72.0609 42.3989C72.0384 42.4025 72.017 42.4117 71.9988 42.4255C71.9806 42.4392 71.9661 42.4573 71.9565 42.478C71.9468 42.4987 71.9424 42.5215 71.9437 42.5443C71.9905 43.0532 72.1461 43.5462 72.3998 43.9899C72.6534 44.4336 72.9994 44.8177 73.4142 45.1163C74.4262 46.0277 74.9406 46.7434 74.8847 48.8513C74.6971 48.9488 74.4912 49.0056 74.2802 49.0181C74.0692 49.0307 73.8579 48.9986 73.6602 48.924C73.895 46.6875 72.3518 45.0492 72.212 45.5692C71.6249 47.7442 72.9669 48.4375 73.4309 50.4784C73.1248 50.7756 72.7342 50.9709 72.3127 51.0375C72.0698 49.8836 71.6127 48.7855 70.9652 47.8001C70.9544 47.7749 70.9365 47.7534 70.9137 47.7383C70.8908 47.7232 70.864 47.7151 70.8366 47.7151C70.8092 47.7151 70.7824 47.7232 70.7595 47.7383C70.7366 47.7534 70.7187 47.7749 70.708 47.8001C70.0482 50.1149 71.0043 50.4784 71.7536 52.6031C71.4776 52.8436 71.1712 53.0466 70.8422 53.2069C70.3837 51.9042 69.0585 50.5175 69.2319 51.2779C69.4267 52.2001 69.5611 53.1339 69.6344 54.0736C69.3109 54.2293 68.9628 54.3277 68.6056 54.3643C68.6715 53.5687 68.4514 52.7757 67.985 52.1278C67.9731 52.1072 67.956 52.0902 67.9354 52.0784C67.9147 52.0666 67.8913 52.0605 67.8676 52.0607C67.5712 52.0607 67.9235 52.5639 67.1687 54.0904C66.8238 54.1672 66.4686 54.1861 66.1175 54.1463C67.3677 52.208 68.258 50.0601 68.7454 47.8057C69.5394 43.8638 68.5833 42.1641 66.5089 40.537C67.2861 40.5482 68.2142 40.4252 68.4603 39.9667ZM74.0795 45.2002C73.4309 44.546 72.6817 44.0819 72.2959 42.7847C72.7733 43.0035 73.1874 43.3399 73.4993 43.7624C73.8113 44.1848 74.0109 44.6795 74.0795 45.2002ZM73.28 48.9519C72.76 47.8896 72.2512 47.3305 72.4413 45.9382C73.0745 46.8091 73.3723 47.8792 73.28 48.9519ZM52.1783 33.5479C52.2514 33.2117 52.4027 32.8975 52.6201 32.6309C53.2463 32.7505 53.8406 33 54.3645 33.3633C54.1856 33.8274 53.9899 34.3139 53.8054 34.8227C53.4314 34.2182 52.8547 33.7664 52.1783 33.5479ZM22.4549 103.691C22.3207 104.278 22.5667 105.005 22.5555 105.542C22.522 106.749 17.9539 106.688 16.7014 106.364C16.4386 106.291 16.1926 106.229 16.0193 105.598C15.9298 105.273 15.8851 105.038 15.8459 104.815C15.5943 103.439 15.6223 104.915 10.4224 103.227C10.2047 103.139 9.9777 103.077 9.74581 103.042C9.71425 103.04 9.683 103.05 9.65756 103.068C9.63213 103.087 9.61415 103.114 9.6068 103.145C9.59944 103.176 9.60319 103.208 9.61737 103.236C9.63155 103.265 9.65525 103.287 9.6843 103.3C10.2919 103.593 10.9293 103.819 11.5854 103.976C11.5183 105.592 11.658 105.62 11.4791 105.654C10.3745 105.993 9.20387 106.058 8.06841 105.844C6.42456 105.531 5.85984 105.363 6.2065 101.65C6.26241 101.057 2.35408 98.7147 3.55621 91.7311C4.56824 85.8994 9.56129 82.7515 16.5952 83.5119C16.0923 85.2634 16.1968 87.1335 16.8915 88.8181C16.9026 88.8536 16.9274 88.8834 16.9605 88.9007C16.9935 88.918 17.0321 88.9214 17.0676 88.9103C17.1032 88.8992 17.1329 88.8744 17.1502 88.8414C17.1675 88.8083 17.171 88.7698 17.1599 88.7342C15.4378 82.813 19.0106 79.0332 22.8519 84.9265C22.8787 84.9662 22.918 84.9959 22.9634 85.0111C23.0089 85.0262 23.0581 85.026 23.1035 85.0104C28.2307 83.333 29.0303 87.9067 31.1214 89.1927C29.567 89.8804 28.9352 92.7376 28.8234 94.2249C28.6389 96.562 29.4273 100.414 31.4793 99.7491C27.6157 104.049 22.7456 102.461 22.4549 103.691ZM28.9744 82.6341C28.236 83.1684 27.6844 83.9215 27.3976 84.7867C26.5948 84.3267 25.6675 84.1311 24.7473 84.2276C28.3649 80.459 31.3451 81.404 29.2931 86.5088C28.8786 85.976 28.3954 85.5003 27.8561 85.0942C28.0457 84.2347 28.4946 83.454 29.1421 82.8577C29.1718 82.8355 29.1914 82.8024 29.1966 82.7657C29.2018 82.729 29.1923 82.6917 29.1701 82.662C29.1478 82.6324 29.1147 82.6127 29.078 82.6075C29.0413 82.6023 29.004 82.6118 28.9744 82.6341ZM32.8883 97.4734C32.6462 98.1474 32.2056 98.7322 31.6246 99.1508C29.8186 100.174 29.1701 96.2937 29.3322 94.2305C29.4552 92.6761 30.2156 89.4834 31.7532 89.4834C33.5033 89.5002 34.2246 94.3199 32.8995 97.4734H32.8883ZM50.5736 91.0266C50.5611 91.0108 50.5457 90.9977 50.5281 90.9879C50.5105 90.9781 50.4912 90.9718 50.4712 90.9695C50.4512 90.9671 50.431 90.9688 50.4116 90.9742C50.3922 90.9797 50.3742 90.989 50.3584 91.0015C50.3426 91.014 50.3294 91.0294 50.3196 91.047C50.3098 91.0646 50.3035 91.0839 50.3012 91.1039C50.2989 91.1239 50.3005 91.1441 50.306 91.1635C50.3115 91.1829 50.3207 91.2009 50.3332 91.2167C50.8061 91.831 51.1831 92.5135 51.4515 93.2408C51.5745 93.621 51.6248 94.0683 51.5018 94.1522C51.3788 94.236 50.993 94.018 50.6855 93.7608C49.8971 93.101 49.5672 92.4412 49.3995 92.5531C49.3156 92.5978 49.3491 92.704 49.3995 92.7935C49.6231 93.2072 50.4283 94.9182 49.9921 94.9685C49.556 95.0188 48.6894 93.7943 48.4098 93.3414C48.2924 93.1457 48.1749 92.9277 47.9793 93.0731C43.6572 96.1874 37.9149 97.0317 33.3915 97.4007C34.342 94.9294 34.2134 91.4348 33.1008 89.8469C32.9593 89.6051 32.7579 89.404 32.5159 89.263C32.274 89.1219 31.9997 89.0457 31.7197 89.0417C30.9201 88.7621 30.1653 87.6103 29.5503 86.8052C30.6685 84.1102 30.6685 82.3321 29.4776 81.6947H29.444C27.6492 80.9007 25.4798 82.6061 24.1546 84.317C23.8201 84.3837 23.4896 84.4696 23.165 84.5742C23.0084 84.317 22.8407 84.0654 22.6785 83.8306C23.1993 81.3825 23.8677 78.9683 24.6802 76.601C27.666 76.3774 39.117 79.6595 42.3041 81.6668C42.3141 81.6736 42.3255 81.6781 42.3374 81.6801C42.3494 81.6821 42.3616 81.6815 42.3733 81.6783C42.385 81.6751 42.3959 81.6695 42.4051 81.6617C42.4144 81.6539 42.4219 81.6442 42.4271 81.6332C45.2227 75.6561 45.0718 71.1103 42.8017 65.4184C42.4327 64.4846 43.2322 64.6244 43.5006 65.1612C47.6661 73.6041 43.9647 83.333 41.3871 87.3699C38.5914 85.2172 36.6568 83.6796 33.1846 83.2771C33.1399 83.27 33.0942 83.2808 33.0573 83.3071C33.0204 83.3333 32.9952 83.373 32.9872 83.4175C32.9791 83.4621 32.9889 83.508 33.0143 83.5455C33.0397 83.583 33.0787 83.6091 33.1231 83.6181C38.8934 84.9209 40.951 88.5888 45.9105 91.0266C45.9594 91.0505 46.0153 91.0557 46.0678 91.0413C46.1203 91.0269 46.1658 90.9939 46.1956 90.9484C47.4816 88.9411 49.2764 87.9011 51.1551 88.0632C50.9867 88.1608 50.834 88.2834 50.7022 88.4267C50.4003 88.751 50.568 88.9522 50.8141 89.3884C50.7884 89.4145 50.7741 89.4496 50.7741 89.4862C50.7741 89.5228 50.7884 89.5579 50.8141 89.5841C53.0841 91.2894 53.8613 94.633 50.5736 91.0266ZM65.8044 103.998C64.742 103.998 53.2351 103.931 51.0657 103.764C50.8136 103.458 50.6249 103.106 50.5106 102.726C50.3964 102.347 50.3589 101.949 50.4003 101.555C55.6892 102.003 61.0035 102.071 66.302 101.756C66.3882 102.144 66.3883 102.545 66.3023 102.933C66.2163 103.32 66.0463 103.684 65.8044 103.998ZM57.0316 98.5358V98.5022C57.4618 98.5248 57.893 98.5248 58.3232 98.5022C58.6307 98.4687 58.4853 98.0661 58.4574 97.7586H58.9438C58.9438 98.0829 58.7761 98.519 59.1116 98.5581C59.7397 98.6252 60.3733 98.6252 61.0014 98.5581C61.3313 98.5246 61.1468 98.0773 61.1356 97.7642H61.7339C61.7339 98.027 61.5662 98.4687 61.9072 98.5134C62.4496 98.5777 62.9976 98.5777 63.5399 98.5134C63.702 98.5134 63.7356 98.3736 63.73 98.2338C63.73 98.2338 63.73 98.0381 63.6965 97.848C64.0546 97.8293 64.4134 97.8689 64.7588 97.9655C64.8483 98.0941 65.9721 100.728 66.2237 101.432C62.4328 101.432 53.4867 101.292 50.4394 101.231C50.5736 100.571 51.485 97.7921 51.7422 97.6859H53.3357C53.3467 97.689 53.3583 97.689 53.3693 97.6859C53.3693 97.8816 53.3693 98.0605 53.3357 98.0885C53.3357 98.273 53.3357 98.424 53.5538 98.4463C54.3842 98.5004 55.2172 98.5004 56.0475 98.4463C56.3439 98.5861 56.4725 98.6364 56.5172 98.6532C56.7576 98.7818 56.931 98.7315 57.0316 98.5358ZM56.6458 96.6403C56.7424 97.1953 56.7424 97.7627 56.6458 98.3177C56.3215 98.1891 55.3542 97.6691 55.2927 97.6412C55.2312 97.6132 55.0299 97.1659 52.9555 92.9445C53.02 92.8854 53.0716 92.8137 53.1072 92.7339C53.1428 92.6541 53.1616 92.5678 53.1624 92.4804C53.2015 91.815 52.5697 90.6073 51.2893 89.5673C50.8979 88.7454 50.5457 88.6671 51.6248 88.2366C52.279 87.9738 52.2734 88.1527 52.402 88.3875C53.5035 90.3501 54.9908 93.0507 56.6346 96.6403H56.6458ZM53.7495 90.0202L52.9276 88.5105C54.4428 88.9187 55.3486 89.4946 55.4604 89.8692C55.5723 90.2438 54.2359 90.0593 53.7495 90.0202ZM92.0109 92.3741C80.3474 91.5243 69.0194 89.8357 65.1278 89.1144C71.0323 84.0095 79.4863 77.4062 83.5792 73.2183C92.324 75.2256 101.225 76.3606 108.667 76.4109C107.913 78.3567 100.644 86.1063 97.7476 89.0641C96.9201 88.6503 95.2259 89.1423 95.4048 90.0258C94.499 89.9922 94.1915 90.3053 94.0853 90.501C94.0344 90.5946 94.0077 90.6993 94.0077 90.8058C94.0077 90.9122 94.0344 91.017 94.0853 91.1105C93.5597 91.1105 93.0677 91.2782 93.0565 91.7926C92.352 91.5522 91.9718 91.8989 92.0109 92.3462V92.3741ZM92.4582 92.5419C92.2122 92.061 92.6427 92.0163 93.1627 92.2288C93.397 92.5849 93.7403 92.8556 94.1412 93.0004C94.0014 93.621 92.8161 93.252 92.4582 92.5139V92.5419ZM95.5726 92.6873C95.1029 93.0675 93.3361 92.3406 93.4647 91.7815C93.4926 91.6081 93.761 91.4516 94.4152 91.5187C94.8155 91.806 95.2766 91.9973 95.7627 92.0778C95.774 92.1827 95.763 92.2887 95.7302 92.389C95.6974 92.4893 95.6437 92.5814 95.5726 92.6593V92.6873ZM96.9592 91.3565C96.8698 91.6473 96.5846 91.7479 96.0646 91.6696C94.3872 91.4124 93.6883 90.3557 95.6732 90.4731C96.0021 90.6942 96.3965 90.7968 96.7915 90.7638C96.8692 90.833 96.9261 90.9225 96.9558 91.0223C96.9854 91.1221 96.9866 91.2281 96.9592 91.3286V91.3565ZM95.9192 90.1264C95.3601 89.5673 97.3562 89.0976 97.6805 89.5673C97.7157 89.6336 97.7342 89.7075 97.7342 89.7826C97.7342 89.8576 97.7157 89.9315 97.6805 89.9978C97.4513 90.4507 96.2324 90.4172 95.9192 90.0985V90.1264Z" fill="black"/>
</svg>
