<svg width="154" height="154" viewBox="0 0 154 154" fill="none" xmlns="http://www.w3.org/2000/svg">
<path d="M41.8298 53.2051C41.9447 53.2051 41.9218 52.9291 41.8298 52.9828C41.2932 53.2817 40.1664 52.9445 39.8291 52.8372C39.3079 52.7298 40.2201 53.7263 40.8869 54.0943C40.8955 54.1013 40.9054 54.1066 40.916 54.1098C40.9266 54.1131 40.9377 54.1142 40.9487 54.1131C40.9598 54.1121 40.9705 54.1088 40.9803 54.1036C40.99 54.0984 40.9987 54.0913 41.0057 54.0828C41.0128 54.0742 41.0181 54.0643 41.0213 54.0537C41.0246 54.0431 41.0257 54.032 41.0246 54.021C41.0235 54.0099 41.0203 53.9992 41.0151 53.9894C41.0099 53.9797 41.0028 53.971 40.9943 53.964C40.6312 53.7554 40.3112 53.4797 40.0514 53.1514C40.6239 53.3554 41.246 53.3741 41.8298 53.2051ZM44.3517 48.9355C43.4688 48.8862 42.5834 48.9637 41.7225 49.1655C41.6075 49.1655 41.6458 49.3494 41.7225 49.3494C42.6011 49.3991 43.4822 49.3164 44.3363 49.1041C44.459 49.0582 44.459 48.9355 44.3517 48.9355ZM45.2255 48.7745C45.0952 48.7745 45.1335 48.9968 45.2255 48.9968C45.4274 49.0458 45.6403 49.0185 45.8234 48.9202C46.0993 48.6979 45.5781 48.7056 45.2255 48.7745ZM45.8541 81.858C44.8673 81.7797 43.8744 81.8547 42.9106 82.0803C42.8748 82.0882 42.8428 82.1081 42.8199 82.1367C42.797 82.1653 42.7845 82.2008 42.7845 82.2374C42.7845 82.2741 42.797 82.3096 42.8199 82.3382C42.8428 82.3667 42.8748 82.3866 42.9106 82.3946C43.8811 82.3916 44.85 82.3122 45.8081 82.157C45.992 82.0956 45.992 81.8963 45.8541 81.858Z" fill="black"/>
<path d="M133.553 124.048C120.69 119.901 105.567 119.909 91.1176 120.368C92.4207 119.418 91.7998 118.559 90.6806 118.613C89.6818 118.772 88.6662 118.798 87.6605 118.69C87.8062 116.589 87.8905 111.898 87.8521 107.751C94.452 108.058 114.681 107.751 140.444 107.077C140.551 107.077 140.589 106.64 140.444 106.648C126.324 107.261 91.6235 107.483 87.8445 107.452C87.7985 102.424 87.2313 88.6341 82.3638 87.3847C81.9729 87.2927 67.9683 86.5262 65.3008 86.5108C65.3008 86.0969 65.4618 76.5919 65.0938 74.2923C64.4423 70.1531 61.1769 66.8033 56.8536 66.9796C53.4886 61.3993 46.0302 57.3443 41.8603 57.5513C41.8603 57.1987 41.6687 56.2252 41.9753 56.0642C42.4758 56.122 42.983 56.0613 43.4557 55.8868C43.9284 55.7124 44.3535 55.4292 44.6965 55.0601C45.8463 53.9103 46.1069 51.8866 45.8309 50.3459C47.364 49.2421 47.456 45.1642 44.6965 45.1182C39.7523 45.1182 37.5677 45.1182 36.8012 46.7892C36.3369 47.8583 36.2958 49.0637 36.6862 50.1619C37.4528 52.0016 41.2164 51.3731 43.585 51.0511C44.3091 50.9928 45.0161 50.8005 45.67 50.4839C45.9383 57.0607 41.6917 55.5813 41.6917 55.9339C41.7683 58.1109 41.5384 57.7046 42.2129 57.7353C42.5578 60.1882 39.9133 61.269 37.928 60.7324C35.3908 60.0732 34.5246 57.5283 34.356 57.3827C34.4191 55.425 34.3423 53.4654 34.126 51.5187C33.9957 51.0741 31.4968 51.2428 32.1407 49.1041C32.4013 48.2916 33.4438 47.916 34.5553 48.5292C35.3218 48.9432 35.3218 49.587 35.9274 49.5181C36.2033 49.5181 34.9232 45.1642 39.5071 44.7886C41.9906 44.5816 45.5167 44.3593 46.1605 44.8576C46.8044 45.3558 46.7584 46.084 47.0574 46.1913C47.3563 46.2986 47.594 45.4708 48.2992 45.2868C49.0044 45.1028 49.7786 44.9342 49.6866 44.2673C49.6526 44.0722 49.5794 43.886 49.4713 43.72C49.3633 43.554 49.2227 43.4116 49.058 43.3015C49.2462 43.1287 49.3861 42.9099 49.464 42.6667C49.542 42.4234 49.5553 42.164 49.5026 41.9141C49.242 41.1475 48.8357 41.0786 48.8357 41.0786C48.9565 40.9259 49.0337 40.7435 49.0594 40.5505C49.085 40.3576 49.058 40.1613 48.9814 39.9824C48.9341 39.7994 48.848 39.6288 48.729 39.482C48.61 39.3352 48.4608 39.2157 48.2915 39.1316C48.4222 38.8989 48.4953 38.6383 48.5046 38.3716C48.514 38.1048 48.4593 37.8398 48.3452 37.5985C48.1948 37.3677 47.9782 37.1878 47.7237 37.0825C47.4693 36.9771 47.1889 36.9513 46.9194 37.0083C46.9194 37.0083 47.0267 35.7128 46.3215 35.2989C45.6163 34.885 44.7885 35.5595 44.7885 35.5595C44.7885 35.5595 45.2714 33.7275 43.47 33.4669C41.6687 33.2063 41.6533 34.3024 41.6533 34.3024C41.6533 34.3024 41.1704 32.3554 39.7447 32.6697C38.3189 32.984 38.3266 34.0648 38.3266 34.0648C37.7836 33.5375 37.0667 33.2267 36.3106 33.191C35.3448 33.3213 34.9385 34.586 34.9385 34.586C34.9385 34.586 34.3023 33.6202 33.5664 33.9345C32.8306 34.2488 32.7999 35.3066 32.7999 35.3066C32.5082 35.0906 32.1549 34.9741 31.7919 34.9741C31.429 34.9741 31.0756 35.0906 30.7839 35.3066C29.8718 36.0731 30.3394 36.6633 30.3394 36.6633C30.3394 36.6633 28.8906 36.1421 28.4997 37.0159C28.4383 37.1186 28.3987 37.2328 28.3832 37.3515C28.3678 37.4701 28.3769 37.5907 28.41 37.7056C28.443 37.8206 28.4993 37.9276 28.5754 38.0199C28.6515 38.1122 28.7457 38.188 28.8523 38.2424C28.548 38.2658 28.2599 38.3889 28.0326 38.5926C27.8054 38.7963 27.6516 39.0693 27.5952 39.3692C27.4649 40.3887 28.0014 40.427 28.0014 40.427C27.7048 40.4946 27.4318 40.6405 27.2107 40.8494C26.9896 41.0584 26.8285 41.3228 26.7443 41.6151C26.6945 41.7349 26.67 41.8638 26.6723 41.9935C26.6745 42.1232 26.7036 42.2511 26.7575 42.3691C26.8115 42.4871 26.8892 42.5927 26.9859 42.6793C27.0825 42.7658 27.196 42.8315 27.3192 42.8722C27.3192 42.8722 26.0161 43.4165 26.3534 44.344C26.463 44.616 26.6484 44.8509 26.8876 45.0207C27.1267 45.1905 27.4095 45.2882 27.7025 45.3021C27.7025 45.3021 26.1694 46.0687 26.7443 47.1955C26.8536 47.4898 27.0471 47.7456 27.3006 47.9309C27.554 48.1163 27.8564 48.223 28.1701 48.238C27.9524 48.4364 27.8161 48.7086 27.7878 49.0018C27.7595 49.295 27.8411 49.5882 28.0168 49.8247C28.1967 50.0761 28.4371 50.2782 28.7158 50.4122C28.9944 50.5461 29.3024 50.6077 29.6111 50.5912C29.6111 50.5912 28.8446 51.2964 29.8718 52.3389C30.1334 52.5207 30.4339 52.639 30.7493 52.6842C31.0646 52.7295 31.3862 52.7005 31.6884 52.5995C31.6884 52.5995 31.3358 53.527 32.593 53.7876C33.3212 53.9333 33.7274 53.3354 33.9497 52.7068C34.034 53.2894 34.195 56.1945 34.195 57.306C33.6354 57.1834 24.2838 57.49 19.4929 63.6606C17.6916 63.6606 11.6283 64.4884 9.62003 65.3469C6.01733 66.88 5.54209 69.3865 5.33512 73.2039C3.61043 110.335 3.52611 109.461 4.42295 112.619C4.89023 114.099 5.64731 115.471 6.65011 116.655C7.6529 117.84 8.88136 118.813 10.2639 119.518C10.1029 121.411 9.97263 123.35 9.93431 125.267C9.87298 128.156 12.6862 128.164 13.0004 126.156C13.1767 125.136 13.0004 124.968 13.0924 120.744C18.6344 122.729 25.6099 123.266 31.6041 123.044C31.6654 130.249 31.2209 132.464 32.8612 132.848C34.31 133.185 35.1608 131.644 35.2375 130.456C35.2911 129.827 35.1072 122.913 35.1072 122.837C36.9238 122.714 38.7865 122.706 39.7753 121.373C41.0095 123.542 43.5083 122.906 50.5911 122.369C50.4914 126.278 53.5346 125.328 52.7757 122.223L60.0884 121.741C60.4671 122.864 60.8786 123.976 61.3225 125.075C58.6703 126.125 55.8188 127.582 55.2823 130.54C54.7993 133.208 56.5624 135.768 58.563 137.339C67.4318 144.238 105.252 150.018 134.005 140.919C138.175 139.601 144.683 137.37 145.242 132.871C145.879 128.118 138.543 125.642 133.553 124.048ZM42.5578 50.9055C39.1315 51.2811 36.8932 51.672 36.7092 49.0505C36.5712 46.5516 37.6291 45.5858 39.7753 45.5091C38.1043 46.5669 37.5294 49.3418 39.2388 50.6295C39.2924 50.6295 39.3691 50.6295 39.3308 50.5375C37.951 48.3989 38.3956 46.6666 40.2506 45.4861C40.2506 45.4861 44.6965 45.3098 44.7271 45.3251C46.3598 45.5244 46.6894 46.7509 46.6205 48.1766C46.4365 50.5912 44.5892 50.6985 42.5578 50.9055ZM87.6528 109.453C87.6528 110.81 87.4612 116.429 87.3769 118.651C86.4877 118.429 85.9665 118.084 85.6522 118.169C85.4682 117.724 85.2843 117.264 85.0773 116.819C85.1396 116.718 85.1959 116.613 85.2459 116.505C85.2459 116.505 82.747 104.379 77.136 96.3607C77.5806 84.7018 87.8291 80.7695 87.6528 109.453ZM80.8154 120.345C81.0913 120.192 81.2753 120.085 81.6279 119.855C82.3406 120.538 82.8839 121.378 83.2146 122.308C83.138 123.22 83.1456 124.14 83.1303 125.067C83.0537 128.133 81.3443 127.206 81.0913 125.52C80.8991 123.802 80.8069 122.074 80.8154 120.345ZM82.6857 120.69L81.8502 119.709C82.8865 118.907 83.8769 118.047 84.8167 117.134C85.0006 117.54 85.2229 117.9 85.4299 118.322C85.2613 118.743 85.4299 119.801 84.5024 120.529C84.2434 120.719 83.938 120.836 83.6183 120.867C83.2986 120.898 82.9764 120.842 82.6857 120.706V120.69ZM80.5931 87.4767C78.2399 88.1665 76.9521 93.0417 76.8218 95.9085C74.3152 92.3978 71.2338 89.7763 67.5544 89.4466C66.7266 89.3777 65.914 89.324 65.1245 89.2703C65.2088 88.4195 65.2625 87.7373 65.2855 86.8634C67.9377 87.1164 78.0942 87.3847 80.5931 87.492V87.4767ZM62.411 69.4402C65.6764 72.5063 64.9252 77.3355 64.9635 82.9311C64.9635 85.0161 64.9022 87.17 64.7259 89.255C61.153 89.0307 57.5703 89.0051 53.9945 89.1784C54.009 88.4838 53.9473 87.7898 53.8105 87.1087C54.5009 87.4254 55.2392 87.6249 55.9951 87.699C57.0907 87.8617 58.21 87.7028 59.2169 87.2415C60.2239 86.7802 61.0752 86.0364 61.6675 85.1004C62.9322 82.8008 62.1887 79.98 61.3378 77.6804C60.3427 75.1637 59.1322 72.7376 57.7198 70.429C58.2871 69.8618 58.1031 70.0228 58.1874 69.9308C58.3944 69.8081 57.3289 67.7308 57.0376 67.2326C59.0448 67.2557 60.9672 68.0455 62.411 69.4402ZM47.6323 85.5833C47.2737 85.5483 46.9376 85.3928 46.6786 85.1422C46.4197 84.8917 46.2533 84.5608 46.2065 84.2036C47.107 84.5374 48.1001 84.521 48.989 84.1576C49.0183 84.3455 49.0039 84.5376 48.9471 84.7191C48.8904 84.9006 48.7927 85.0666 48.6616 85.2044C48.5305 85.3421 48.3695 85.448 48.191 85.5136C48.0126 85.5794 47.8214 85.6032 47.6323 85.5833ZM48.9967 83.9583C48.6058 84.0886 46.7661 84.7861 45.5167 83.368C46.383 83.3513 47.2467 83.2667 48.0999 83.1151C48.2899 83.0409 48.4538 82.9122 48.5709 82.7451C48.688 82.578 48.7531 82.38 48.758 82.1761C48.7629 81.9721 48.7075 81.7712 48.5985 81.5987C48.4896 81.4262 48.3321 81.2897 48.1459 81.2064C48.2377 80.8964 48.205 80.5628 48.0547 80.2765C47.9044 79.9902 47.6483 79.7738 47.341 79.6734C47.065 79.5584 45.5243 79.819 47.341 78.9068C47.9159 78.6999 48.3758 79.0525 48.8204 79.3898C49.2426 79.6659 49.5928 80.0387 49.8421 80.4773C50.0914 80.9159 50.2325 81.4076 50.2538 81.9116C50.2589 81.927 50.2686 81.9403 50.2817 81.9498C50.2948 81.9593 50.3105 81.9644 50.3266 81.9644C50.3428 81.9644 50.3585 81.9593 50.3716 81.9498C50.3847 81.9403 50.3944 81.927 50.3995 81.9116C50.4304 81.7135 50.4304 81.5119 50.3995 81.3138C52.814 81.7277 54.9986 79.3208 58.1338 80.5472C58.2027 80.5472 58.2411 80.4706 58.1874 80.4322C56.8 79.4894 54.9067 80.1563 53.2893 80.6469C53.2594 78.5109 52.979 76.3859 52.4538 74.3153C54.3627 73.3936 56.0998 72.1518 57.5895 70.6436C58.7985 72.6059 59.8593 74.6556 60.763 76.7759C61.6521 78.9605 62.5106 81.5437 61.8744 83.897C61.5151 85.0574 60.7634 86.0568 59.7481 86.7239C58.7328 87.3909 57.5172 87.6842 56.3094 87.5533C52.4768 87.285 49.9549 83.7973 49.6483 83.7973C49.4336 83.851 49.1577 83.9123 48.9967 83.9583ZM39.1621 84.8475C33.5434 87.9136 28.2927 90.7038 21.9152 90.2132C18.7111 89.9679 15.9516 88.7798 15.1697 85.4377C14.5609 82.57 14.787 79.5879 15.8213 76.8449C18.8025 78.0241 21.9017 78.8799 25.0656 79.3974C24.897 79.8037 24.2991 81.2524 24.1841 81.5514C22.5821 81.95 22.8963 82.0649 22.973 82.0496C23.3793 81.9346 28.2621 80.5166 37.9203 81.8043C38.1196 81.8043 38.1196 79.1368 40.6645 79.1368C40.8638 79.1368 41.6073 78.8762 40.9941 79.4357C40.6415 79.75 39.3384 79.6964 40.0513 81.513C39.9139 81.6455 39.8167 81.8141 39.771 81.9994C39.7253 82.1847 39.733 82.3792 39.7931 82.5603C39.8532 82.7414 39.9633 82.9019 40.1107 83.0231C40.2582 83.1443 40.4368 83.2214 40.6262 83.2454C41.5961 83.4046 42.5807 83.456 43.562 83.3987C42.3662 85.9513 39.2311 84.7861 39.1621 84.8475ZM42.2282 85.0161C41.6763 86.6181 39.714 86.6795 39.4227 85.0851C40.3342 85.3573 41.3084 85.3331 42.2052 85.0161H42.2282ZM40.2199 81.4441C39.8903 80.4322 40.1433 80.1026 40.7872 79.7883C40.7028 80.049 41.2471 79.9263 41.3237 79.9187C41.4004 79.911 41.454 81.0915 41.4694 81.1068C41.0185 81.0634 40.5671 81.1831 40.1969 81.4441H40.2199ZM40.2583 82.8928C39.3308 81.9883 40.9481 81.3597 41.615 81.2984C47.3333 81.2984 48.5138 80.8462 48.5521 82.0649C48.6058 82.9158 47.6399 82.9925 47.0191 83.0078C46.3982 83.0231 40.7335 83.3757 40.2353 82.8928H40.2583ZM48.0462 81.1758C47.8239 81.1298 46.6435 81.1145 46.5668 81.1145C46.6358 80.9841 46.5668 80.187 46.3982 80.0566C46.5975 80.0566 47.1647 80.2023 47.0804 79.8727C47.0614 79.822 47.0298 79.7772 46.9884 79.7424C47.6246 79.7194 48.1612 80.2559 48.0232 81.1758H48.0462ZM34.1337 57.6203C34.2103 57.6203 35.3755 60.9164 38.7329 61.0697C40.6875 61.1617 42.7342 59.8969 42.4505 57.7429C47.5863 58.0419 55.1903 62.7867 57.9804 69.8924C56.2555 71.5125 54.3526 72.932 52.3081 74.1237C52.0831 73.1617 51.7989 72.2145 51.4573 71.2875C51.4573 71.2109 51.327 71.2875 51.3423 71.2875C52.2775 74.9669 52.5841 75.2812 52.9597 80.6852C52.1115 80.9597 51.2344 81.1346 50.3458 81.2064C50.1818 80.6115 49.8458 80.0782 49.38 79.6734C47.6859 78.1403 47.4023 78.7382 46.7814 79.0218C46.6539 79.0602 46.5306 79.1116 46.4135 79.1751C46.2602 79.2978 46.0916 79.4128 46.2985 79.6197C45.4553 79.681 45.2177 80.2636 46.1299 80.0643C46.1537 80.4127 46.2049 80.7588 46.2832 81.0991C45.1487 81.0991 42.0903 81.1528 41.684 81.0991L41.7453 79.934C41.8116 79.9266 41.8784 79.9266 41.9446 79.934C42.3126 79.9877 42.4735 79.3361 41.2931 79.4434C41.5844 79.2058 41.615 78.8992 41.2241 78.8225C40.9668 78.8362 40.7107 78.8669 40.4576 78.9145H39.9746C38.7635 79.0372 38.0813 80.3326 37.767 81.5667C33.8424 81.1298 28.3617 80.6085 24.5061 81.4747C24.8996 80.8381 25.187 80.1417 25.3569 79.4128C25.8015 79.4894 26.2307 79.5431 26.6753 79.6044C26.6753 79.6044 26.729 79.6044 26.752 79.5431C27.2886 78.01 27.9554 76.4769 28.5533 74.9439C28.5917 74.8289 28.4537 74.7906 28.4077 74.9056C26.499 78.5926 26.7673 79.5047 26.0238 79.3591C22.3552 78.7437 18.768 77.7151 15.3307 76.293C14.7328 76.0094 14.8478 75.971 15.2924 74.2693C18.0059 63.4153 22.5821 58.1875 34.1337 57.6203ZM19.332 63.8752C17.654 66.2192 16.4199 68.8511 15.691 71.6401C15.8443 67.0409 12.8854 64.7414 10.3636 65.2626C13.3197 64.6056 16.3155 64.1422 19.332 63.8752ZM12.0883 127.106C11.8645 127.258 11.5949 127.326 11.3261 127.299C11.0573 127.273 10.8063 127.153 10.6165 126.961C9.76567 126.102 10.4862 120.913 10.4862 119.709C10.5629 119.763 12.0193 120.384 12.8318 120.683C12.7475 125.711 13.0311 126.478 12.0883 127.106ZM5.45777 114.075C3.82506 110.703 4.45361 106.41 4.60692 102.769C6.07866 69.5475 5.18182 68.2751 8.70019 66.1594C9.1557 65.8719 9.66357 65.6772 10.1946 65.5867C10.7256 65.4962 11.2693 65.5116 11.7943 65.632C12.3194 65.7524 12.8154 65.9754 13.254 66.2883C13.6925 66.6011 14.0648 66.9976 14.3495 67.4549C15.4227 69.0723 15.461 70.8353 15.3997 72.6826C15.0701 73.8401 14.7711 74.9822 14.4798 76.1627C14.4415 76.339 14.5182 76.339 15.4763 76.6992C14.3563 79.5972 14.1373 82.7658 14.8478 85.7903C15.2149 87.0408 15.938 88.1575 16.9289 89.0041C17.9197 89.8507 19.1356 90.3907 20.4281 90.5581C27.6565 91.7232 33.4131 88.3045 39.2004 85.0468C39.3231 85.1004 39.3078 85.0468 39.3078 85.1387C39.3016 85.4953 39.4368 85.8397 39.6839 86.0968C39.9309 86.3539 40.2697 86.5028 40.6262 86.5108C41.0602 86.486 41.4731 86.3148 41.7974 86.0253C42.1217 85.7357 42.3384 85.3449 42.4122 84.9164C43.0414 84.6124 43.5317 84.0809 43.7843 83.4294C44.2979 83.4294 44.8268 83.4294 45.3174 83.3757C45.4856 83.7057 45.7539 83.974 46.0839 84.1422C46.0778 84.3632 46.1158 84.5832 46.1957 84.7894C46.2755 84.9955 46.3957 85.1837 46.5492 85.3428C46.7026 85.502 46.8862 85.6289 47.0893 85.7163C47.2924 85.8037 47.5109 85.8497 47.7319 85.8516C47.9488 85.8521 48.1632 85.8046 48.3596 85.7125C48.556 85.6205 48.7297 85.4861 48.8681 85.3191C49.0065 85.1521 49.1063 84.9566 49.1604 84.7465C49.2144 84.5364 49.2214 84.317 49.1807 84.1039L49.5793 83.9429C50.6691 85.2142 52.0005 86.2564 53.4962 87.0091C53.6036 87.7296 53.5729 88.4961 53.6725 89.2243C49.8399 89.4236 47.617 89.7839 47.617 89.7839C47.617 89.7839 62.9476 89.6613 67.1482 95.3719C71.3487 101.083 70.9808 111.523 70.9808 111.523C72.8605 114.278 75.0434 116.813 77.4886 119.081C76.1242 120.736 72.1689 120.552 70.1759 120.713C70.6742 113.155 70.7355 101.474 66.9335 96.2764C61.5678 88.9024 40.3426 90.4585 37.3531 90.7191C36.6768 90.0886 35.8667 89.6191 34.9834 89.3459C34.1 89.0727 33.1664 89.0028 32.2522 89.1414C31.338 89.28 30.467 89.6235 29.7044 90.1463C28.9417 90.6691 28.3071 91.3575 27.8481 92.1602C26.0621 95.2263 26.2537 99.7565 26.6217 111.093C26.752 115.049 26.5144 118.989 26.6753 122.936C19.0177 122.361 8.8305 121.035 5.45777 114.091V114.075ZM34.9155 131.077C34.6166 132.296 32.8766 133.514 32.1867 131.721C31.7344 130.548 32.087 126.194 31.9721 123.128C33.0605 123.074 33.7274 123.044 34.7622 122.959C34.8159 125.504 35.1378 130.142 34.9155 131.077ZM38.8862 121.986C37.3531 122.883 29.0899 122.952 27.1276 122.913C27.2272 100.991 25.1499 93.1873 30.0941 90.2822C33.2675 88.3888 35.9734 89.3547 38.4109 92.1602C39.944 94.1301 39.2771 94.0458 39.944 106.824C40.105 120.345 40.4652 121.112 38.8862 121.986ZM51.5569 124.546C51.2043 124.485 51.0203 122.844 51.005 122.4C51.1353 122.4 52.4001 122.331 52.5841 122.323C52.5841 122.584 52.6224 122.875 52.5841 123.159C52.5457 123.442 52.5381 125.228 51.5569 124.546ZM44.5892 122.576C42.9411 122.691 40.9405 122.829 39.944 121.258C40.7872 119.855 40.3579 119.196 40.2199 107.721C42.1286 107.652 56.7923 107.123 57.0376 107.207C57.2829 107.291 57.5819 113.868 60.0118 121.442C53.2126 121.94 45.601 122.515 44.5892 122.576ZM77.688 119.211C78.3242 119.794 78.9911 120.368 79.7039 120.928C79.7039 120.928 80.0259 120.79 80.5624 120.506V121.227C77.0172 121.381 73.4913 121.835 70.0226 122.584C70.0686 122.101 70.107 121.595 70.1376 121.051C73.909 120.775 76.4308 120.798 77.688 119.211ZM67.7767 129.46C66.7726 132.112 64.5496 130.648 64.2353 130.425C64.0284 129.659 63.8061 128.831 63.5685 128.049C64.1204 128.126 67.2555 128.141 67.7001 128.049C67.723 128.555 67.7537 129 67.7767 129.46ZM136.58 139.294C125.766 143.209 114.355 145.224 102.853 145.25C92.3363 145.365 64.7183 143.403 57.7888 135.806C55.5812 133.4 54.968 130.172 57.5052 127.743C58.6569 126.7 60.0187 125.915 61.4988 125.443C61.8077 126.279 62.1979 127.082 62.6639 127.842C62.8748 127.906 63.09 127.955 63.3078 127.988C64.6493 131.177 63.2542 133.499 64.6646 133.921C66.075 134.342 66.1977 133.737 66.4046 133.499C66.6756 133.307 66.9998 133.203 67.3321 133.203C67.6645 133.203 67.9886 133.307 68.2596 133.499C68.9648 134.005 70.2066 134.112 71.916 133.836C73.6253 133.56 73.449 132.464 72.3606 132.02C71.2721 131.575 70.5975 131.108 69.5014 130.701C67.9683 130.142 68.0986 128.509 68.0757 128.049C68.5897 127.98 69.0907 127.835 69.5627 127.62C69.5627 127.62 69.8003 125.949 70.0456 123.021C73.5071 122.156 77.0565 121.693 80.6238 121.641C80.7694 125.474 80.6238 126.784 81.7276 127.344C81.8773 127.427 82.0441 127.473 82.215 127.48C82.3859 127.488 82.5561 127.455 82.7121 127.385C82.8682 127.315 83.006 127.21 83.1144 127.078C83.2229 126.946 83.2992 126.79 83.3373 126.623C83.4897 125.401 83.5486 124.168 83.5136 122.936C83.7742 123.473 84.0502 123.81 84.5637 123.703C86.0125 123.481 85.8592 122.867 85.9511 122.553C86.1106 122.263 86.3541 122.028 86.6496 121.879C86.9451 121.73 87.2788 121.674 87.6069 121.718C88.3734 121.863 89.2242 121.672 90.5427 120.767C106.923 120.353 121.035 120.192 135.086 125.106C138.65 126.34 144.453 128.279 144.667 132.073C144.882 135.868 140.061 137.976 136.58 139.294ZM144.2 42.1594C153.452 41.3928 139.378 11.9504 137.301 20.2979C137.247 20.5125 134.948 42.9259 144.2 42.1594Z" fill="black"/>
<path d="M112.059 85.453C116.474 88.5191 122.791 86.1429 120.2 83.6517C117.609 81.1604 107.644 82.4099 112.059 85.453ZM89.1937 57.6203C87.5073 58.7087 92.2598 60.2878 91.1637 58.3255C90.9052 58.0734 90.5954 57.8799 90.2555 57.7582C89.9156 57.6365 89.5534 57.5895 89.1937 57.6203ZM89.8222 58.8237C88.8641 58.3791 88.6878 57.467 90.3051 58.0572C91.6389 58.5324 91.3706 59.5903 89.8222 58.8237ZM93.5169 58.6398C93.4729 58.734 93.4485 58.8362 93.4452 58.9401C93.4419 59.0441 93.4598 59.1476 93.4978 59.2444C93.5358 59.3412 93.5932 59.4293 93.6663 59.5032C93.7394 59.5772 93.8268 59.6355 93.9232 59.6746C96.468 60.2725 94.8737 57.398 93.5169 58.6398ZM94.2834 59.5826C93.3559 59.3066 93.5169 58.3408 94.5057 58.5861C95.2339 58.7394 95.4179 59.7896 94.2834 59.5826ZM99.9711 58.6014C98.4994 58.3638 97.5259 59.6822 98.6527 59.9889C99.5035 60.3415 101.527 58.954 99.9711 58.6014ZM100.193 59.3066C99.6568 60.0732 98.0931 60.0348 98.4457 59.437C98.507 59.1227 98.6373 59.0307 98.9133 58.9004C99.1892 58.7701 100.638 58.5095 100.193 59.3066ZM101.32 69.5398C101.029 69.8924 100.784 70.5287 101.213 70.8813C104.195 71.9697 103.719 67.7461 101.32 69.5398ZM103.106 69.8234C103.29 70.8429 100.899 71.4332 101.251 70.0611C101.315 69.8847 101.416 69.7246 101.549 69.5921C101.681 69.4596 101.841 69.358 102.018 69.2945C102.455 69.1566 103.106 69.5245 103.106 69.8234ZM104.885 71.1572C104.87 71.1662 104.859 71.1786 104.85 71.1934C104.842 71.2081 104.838 71.2247 104.838 71.2415C104.838 71.2584 104.842 71.2749 104.85 71.2897C104.859 71.3044 104.87 71.3169 104.885 71.3258C105.107 71.3258 105.314 71.5098 105.206 71.7704C105.099 72.0311 104.854 72.0847 104.333 72.1614H104.149C104.057 72.1614 103.604 72.0157 103.888 71.8241C103.957 71.8241 103.888 71.6784 103.834 71.7168C103.79 71.7479 103.754 71.7892 103.729 71.8372C103.704 71.8853 103.691 71.9386 103.691 71.9927C103.691 72.0468 103.704 72.1002 103.729 72.1482C103.754 72.1962 103.79 72.2376 103.834 72.2687C104.095 72.514 104.67 72.3837 104.946 72.2687C105.1 72.2238 105.236 72.1316 105.336 72.005C105.435 71.8785 105.491 71.724 105.498 71.5635C105.459 71.2875 105.161 71.0116 104.885 71.1572ZM121.258 61.2536C120.775 62.0202 120.292 62.7867 119.832 63.5532C119.832 63.5532 119.832 63.6299 119.886 63.5532C120.353 62.9017 120.813 62.2348 121.258 61.5449C121.296 62.5721 121.296 63.6069 121.411 64.611C121.416 64.6264 121.426 64.6397 121.439 64.6492C121.452 64.6587 121.468 64.6637 121.484 64.6637C121.5 64.6637 121.516 64.6587 121.529 64.6492C121.542 64.6397 121.552 64.6264 121.557 64.611C121.557 63.4996 121.465 62.3651 121.426 61.2536C121.426 61.2 121.319 61.177 121.258 61.2536ZM72.5753 35.8815C75.7871 36.9623 75.6414 31.5276 72.4833 34.5094C72.3944 34.6031 72.3258 34.7143 72.282 34.8358C72.2382 34.9573 72.22 35.0867 72.2287 35.2156C72.2373 35.3445 72.2726 35.4702 72.3322 35.5848C72.3919 35.6994 72.4746 35.8004 72.5753 35.8815ZM74.7139 34.494C74.7139 35.6055 72.9739 36.2187 72.5446 35.4752C71.9774 34.5554 74.6296 32.961 74.7139 34.494ZM75.4191 35.9198C75.7104 35.1533 76.8985 35.6438 76.3236 36.4027C76.1549 36.5189 75.9535 36.578 75.7487 36.5713C75.4268 36.5713 75.9864 37.1003 76.5153 36.5713C76.6047 36.4902 76.6736 36.389 76.7165 36.2761C76.7594 36.1632 76.775 36.0418 76.7621 35.9217C76.7491 35.8016 76.708 35.6863 76.642 35.5851C76.5761 35.484 76.4871 35.3998 76.3825 35.3396C76.2778 35.2793 76.1604 35.2446 76.0397 35.2383C75.9191 35.2321 75.7988 35.2544 75.6884 35.3035C75.5781 35.3526 75.4809 35.4271 75.4048 35.5208C75.3287 35.6146 75.2758 35.725 75.2505 35.8431C75.2403 35.8655 75.2395 35.891 75.2481 35.914C75.2567 35.937 75.2741 35.9556 75.2965 35.9658C75.3188 35.9759 75.3443 35.9768 75.3673 35.9682C75.3903 35.9596 75.409 35.9422 75.4191 35.9198ZM73.6714 37.5142C73.5794 37.6445 73.6024 37.8131 73.5411 37.9588C73.2728 38.7253 72.468 38.1581 72.9509 37.8898C73.0275 37.8898 72.9509 37.7365 72.8972 37.7748C72.8069 37.8147 72.7319 37.8826 72.6831 37.9684C72.6344 38.0543 72.6146 38.1536 72.6266 38.2515C72.6386 38.3495 72.6819 38.441 72.75 38.5126C72.818 38.5841 72.9073 38.6318 73.0045 38.6486C73.1305 38.66 73.2573 38.6401 73.3736 38.5906C73.49 38.5411 73.5923 38.4636 73.6714 38.365C74.116 37.8285 73.8554 37.2382 73.6714 37.5142ZM129.544 28.2775C129.544 28.3388 129.544 28.4308 129.605 28.4308C129.958 28.4308 130.103 27.9249 130.011 27.6643C130.011 27.3117 128.877 27.074 129.245 27.4573C129.643 27.2963 130.034 27.8942 129.544 28.2775ZM133.315 26.7214C133.43 25.7479 131.069 25.6789 130.77 26.5221C130.31 27.8482 133.162 28.1088 133.315 26.7214ZM131.123 26.4608C131.276 26.3464 131.451 26.2643 131.637 26.2195C131.822 26.1747 132.015 26.1681 132.204 26.2002C135.055 26.7061 130.494 28.5764 131.123 26.4608ZM131.843 28.7221C131.751 28.7221 131.751 28.8754 131.843 28.8754C132.077 28.8605 132.312 28.8918 132.533 28.9674C133.476 29.5959 132.441 29.9332 131.767 29.7339C131.177 29.8795 132.963 30.5004 133.177 29.5116C133.3 29.0823 132.917 28.5688 131.843 28.7221ZM136.542 63.6222C135.438 62.8557 133.967 64.3121 134.726 65.2319C135.676 66.397 137.838 64.5267 136.542 63.6222ZM135.5 63.6759C135.655 63.6237 135.82 63.6035 135.983 63.6167C136.146 63.6299 136.305 63.6761 136.45 63.7525C137.132 64.2508 136.389 65.2856 135.592 65.3622C134.465 65.4082 134.519 63.9825 135.5 63.6835V63.6759ZM139.263 66.2821C142.199 66.65 138.911 62.8327 138.497 64.8717C138.47 65.1563 138.529 65.4423 138.666 65.6935C138.802 65.9446 139.01 66.1495 139.263 66.2821ZM138.742 64.8333C139.018 63.9978 140.275 65.1323 140.275 65.5155C140.16 66.742 138.436 65.8681 138.742 64.8333ZM136.297 66.2054C136.227 66.2225 136.16 66.2534 136.102 66.2961C136.043 66.3389 135.993 66.3928 135.956 66.4547C135.918 66.5166 135.893 66.5854 135.882 66.657C135.871 66.7287 135.874 66.8018 135.891 66.8723C135.908 66.9428 135.939 67.0092 135.981 67.0677C136.024 67.1263 136.078 67.1758 136.14 67.2135C136.202 67.2513 136.271 67.2764 136.342 67.2876C136.414 67.2987 136.487 67.2957 136.558 67.2786C136.634 67.2786 136.634 67.1099 136.558 67.1329C136.507 67.1363 136.457 67.1289 136.41 67.1113C136.363 67.0936 136.32 67.066 136.284 67.0305C136.249 66.9949 136.221 66.9521 136.204 66.905C136.186 66.8579 136.179 66.8075 136.182 66.7573C136.207 66.6686 136.262 66.5914 136.338 66.5395C136.414 66.4875 136.506 66.464 136.598 66.4731C136.689 66.4823 136.775 66.5235 136.839 66.5895C136.903 66.6556 136.942 66.7421 136.949 66.834C136.955 67.0149 136.934 67.1957 136.887 67.3705C136.886 67.3905 136.891 67.4102 136.901 67.4276C136.911 67.4449 136.926 67.4592 136.943 67.4687C136.961 67.4783 136.98 67.4828 137 67.4817C137.02 67.4806 137.039 67.4739 137.056 67.4625C137.6 67.0563 137.064 65.9218 136.297 66.2054ZM85.5067 26.7214H114.934V25.403C105.513 25.403 95.5865 25.0197 85.4453 25.1424C85.4995 25.6669 85.52 26.1943 85.5067 26.7214Z" fill="black"/>
<path d="M47.157 46.866C47.157 46.866 47.3793 48.813 47.042 49.4799C46.8191 49.9192 46.5178 50.3141 46.1528 50.645V52.6687C46.1528 52.6687 52.584 64.9332 62.0047 66.7268C71.4253 68.5205 82.9233 63.3081 86.5337 69.0264C90.144 74.7447 89.2089 86.0894 100.944 83.5905C108.05 82.0574 117.302 78.4164 121.756 82.663C128.432 89.0482 138.313 89.9374 143.487 83.5905C151.742 73.4876 151.482 54.4623 142.26 44.9267C136.895 39.4 136.458 37.8823 135.998 20.965C135.584 6.0406 122.867 3.57237 106.916 14.2348C90.098 25.4875 91.6388 13.1923 81.6969 17.0326C71.755 20.873 71.594 29.987 65.9217 30.194C60.2493 30.4009 54.1094 33.8043 53.6572 41.4696C53.3812 46.9887 47.157 46.866 47.157 46.866ZM143.196 80.2791C143.243 80.2883 143.285 80.3136 143.316 80.3506C143.346 80.3877 143.363 80.4342 143.363 80.4822C143.363 80.5302 143.346 80.5768 143.316 80.6138C143.285 80.6509 143.243 80.6762 143.196 80.6854C143.148 80.6762 143.106 80.6509 143.076 80.6138C143.045 80.5768 143.028 80.5302 143.028 80.4822C143.028 80.4342 143.045 80.3877 143.076 80.3506C143.106 80.3136 143.148 80.2883 143.196 80.2791ZM71.2031 61.1158C71.0651 61.2078 70.6588 61.1158 70.7048 60.8782C70.8045 60.4106 71.6553 60.9702 71.2031 61.1235V61.1158ZM72.8971 59.874C72.8371 59.9087 72.7691 59.9271 72.6997 59.9275C72.6304 59.9278 72.5622 59.9101 72.5019 59.8761C72.4415 59.842 72.3911 59.7928 72.3555 59.7333C72.32 59.6738 72.3006 59.6061 72.2992 59.5368C72.2992 59.2838 72.5598 58.9619 72.8204 59.1305C73.1654 59.1765 73.265 59.6977 72.8971 59.8817V59.874ZM72.5062 55.1292C72.5135 55.1058 72.5259 55.0843 72.5424 55.0662C72.5589 55.048 72.5792 55.0337 72.6018 55.0242C72.6245 55.0147 72.6489 55.0103 72.6734 55.0112C72.6979 55.0121 72.7219 55.0184 72.7438 55.0296C72.7438 55.0296 72.8051 55.0909 72.8358 55.1062C72.867 55.1424 72.8843 55.1887 72.8843 55.2365C72.8843 55.2844 72.867 55.3306 72.8358 55.3668C72.8126 55.4089 72.778 55.4434 72.7359 55.4665C72.6938 55.4896 72.646 55.5002 72.5981 55.4972C72.5582 55.4924 72.5206 55.4757 72.4904 55.4491C72.4601 55.4226 72.4386 55.3875 72.4286 55.3486C72.4187 55.3096 72.4207 55.2685 72.4346 55.2307C72.4484 55.1929 72.4734 55.1602 72.5062 55.1369V55.1292ZM74.6524 58.6476C74.4301 58.5403 74.7521 58.2413 74.8594 58.4483C74.8594 58.502 74.9131 58.5403 74.9131 58.5939C74.9131 58.6476 74.7751 58.7396 74.6524 58.6553V58.6476ZM78.3471 59.4141C78.3243 59.3676 78.3191 59.3144 78.3325 59.2643C78.3459 59.2142 78.377 59.1707 78.4199 59.1417C78.4629 59.1128 78.5149 59.1003 78.5663 59.1067C78.6178 59.1131 78.6651 59.1379 78.6997 59.1765C78.6997 59.1765 78.7534 59.1765 78.7534 59.2302C78.7642 59.2677 78.7642 59.3076 78.7534 59.3451C78.7499 59.3912 78.7322 59.4351 78.7026 59.4707C78.6731 59.5062 78.6332 59.5317 78.5885 59.5435C78.5438 59.5553 78.4965 59.5529 78.4532 59.5366C78.41 59.5203 78.3729 59.4908 78.3471 59.4525V59.4141ZM80.8843 59.2302C80.731 59.2991 80.4321 58.9082 80.8843 58.8546C81.076 59.0232 81.076 59.1918 80.8843 59.2685V59.2302ZM83.3526 54.9683C71.9083 51.1356 82.2794 51.1816 87.4535 50.553C88.4193 54.1097 99.948 54.4853 101.397 51.6492C103.144 51.8715 111.04 52.9599 111.799 54.7153C112.12 55.4818 111.446 55.9571 110.503 56.2484C101.47 57.5249 92.2766 57.0854 83.4062 54.9529C83.3859 54.9683 83.3679 54.9863 83.3526 55.0066V54.9683ZM101.067 51.5725C99.1508 54.4623 88.0821 53.4659 87.6375 50.3691C90.0597 45.9309 100.676 46.2221 101.067 51.6108V51.5725ZM90.7343 29.0442C91.0332 26.7446 93.1105 28.5383 93.1105 28.5383C93.1105 28.5383 94.6436 26.8902 95.2798 28.5383C95.916 30.1863 93.2178 31.6044 93.2178 31.6044C93.2178 31.6044 90.5886 30.286 90.7343 29.0442ZM97.817 29.0442C98.1159 26.7446 100.193 28.5383 100.193 28.5383C100.193 28.5383 101.726 26.8902 102.363 28.5383C102.999 30.1863 100.285 31.6044 100.285 31.6044C100.285 31.6044 97.6484 30.286 97.817 29.0442ZM87.3845 31.6197C87.3845 31.6197 84.7323 30.286 84.901 29.0442C85.1999 26.7446 87.2772 28.5383 87.2772 28.5383C87.2772 28.5383 88.8103 26.8902 89.4465 28.5383C90.0827 30.1863 87.3845 31.6197 87.3845 31.6197ZM86.0124 42.3512C85.7135 42.6501 85.2459 42.0215 85.8668 41.9449C85.8939 41.9567 85.9176 41.9752 85.9358 41.9986C85.9741 41.9986 86.0124 41.9986 86.0354 42.0752V42.1672C86.0967 42.2055 86.0584 42.2822 86.0048 42.3358L86.0124 42.3512ZM103.597 43.018C103.727 42.7804 104.271 42.8647 104.279 42.8724C104.501 43.0947 104.202 43.3706 104.003 43.432C103.804 43.4933 103.666 43.432 103.666 43.3553C103.637 43.3374 103.613 43.314 103.593 43.2865C103.574 43.259 103.561 43.2279 103.553 43.1951C103.546 43.1623 103.546 43.1283 103.552 43.0953C103.558 43.0623 103.571 43.0308 103.589 43.0027L103.597 43.018ZM111.423 33.3214C111.477 33.1145 114.366 33.1375 114.757 33.1911C115.148 33.2448 114.811 35.4907 114.757 35.6747C114.704 35.8586 113.723 35.6747 113.462 35.6747C113.201 35.6747 113.293 37.9053 113.347 38.1812C113.401 38.4572 114.535 38.3499 114.627 38.3499C114.726 39.2534 114.764 40.1624 114.742 41.0711C114.704 41.3853 111.385 40.9254 111.201 40.9024C111.017 40.8794 111.201 39.1471 111.201 39.0167C111.201 38.8864 109.545 38.9401 109.307 38.8481C109.07 38.7561 109.307 37.8286 109.307 37.7366C108.862 37.6414 108.406 37.5976 107.951 37.6063C107.843 37.6063 107.951 36.6788 107.951 36.5639C107.951 36.4489 109.139 36.5639 109.139 36.5639C109.307 36.5639 109.284 35.8433 109.323 35.6593C109.361 35.4754 111.231 35.6593 111.423 35.6593C111.615 35.6593 111.354 33.5131 111.415 33.3061L111.423 33.3214ZM112.734 52.0708C112.731 52.1245 112.712 52.1762 112.679 52.2188C112.646 52.2613 112.601 52.2926 112.55 52.3084C112.506 52.3232 112.458 52.3221 112.414 52.3053C112.371 52.2885 112.335 52.2571 112.312 52.2164C112.279 52.1685 112.264 52.1099 112.271 52.052C112.278 51.994 112.307 51.9407 112.35 51.9021C112.368 51.8836 112.39 51.8688 112.413 51.8587C112.437 51.8487 112.463 51.8435 112.488 51.8435C112.514 51.8435 112.54 51.8487 112.563 51.8587C112.587 51.8688 112.608 51.8836 112.626 51.9021C112.68 51.9251 112.749 52.0018 112.726 52.0554L112.734 52.0708ZM110.587 44.4055C110.978 44.2138 111.27 44.7964 110.863 44.9497C110.457 45.103 110.02 44.3748 110.58 44.3748L110.587 44.4055ZM110.695 51.6952L110.656 51.7488C110.647 51.7824 110.631 51.8135 110.608 51.84C110.586 51.8664 110.558 51.8877 110.526 51.9021C110.494 51.9354 110.45 51.9547 110.403 51.9558C110.158 51.9558 110.012 51.6185 110.235 51.4575C110.284 51.4252 110.341 51.408 110.4 51.408C110.458 51.408 110.516 51.4252 110.564 51.4575C110.649 51.4652 110.725 51.5725 110.687 51.6645L110.695 51.6952ZM84.1881 61.2691C84.1413 61.2691 84.0965 61.2506 84.0634 61.2175C84.0304 61.1844 84.0118 61.1396 84.0118 61.0928C84.0118 61.0461 84.0304 61.0012 84.0634 60.9682C84.0965 60.9351 84.1413 60.9165 84.1881 60.9165C84.2348 60.9165 84.2797 60.9351 84.3127 60.9682C84.3458 61.0012 84.3644 61.0461 84.3644 61.0928C84.3644 61.1396 84.3458 61.1844 84.3127 61.2175C84.2797 61.2506 84.2348 61.2691 84.1881 61.2691ZM84.671 58.7089C84.622 58.6995 84.5778 58.6733 84.546 58.6349C84.5141 58.5964 84.4967 58.548 84.4967 58.4981C84.4967 58.4482 84.5141 58.3999 84.546 58.3614C84.5778 58.3229 84.622 58.2967 84.671 58.2873C84.72 58.2967 84.7642 58.3229 84.796 58.3614C84.8278 58.3999 84.8452 58.4482 84.8452 58.4981C84.8452 58.548 84.8278 58.5964 84.796 58.6349C84.7642 58.6733 84.72 58.6995 84.671 58.7089ZM91.7154 67.524C91.6564 67.5454 91.5928 67.551 91.531 67.5402C91.4691 67.5295 91.4111 67.5028 91.3628 67.4627C91.3178 67.4658 91.2731 67.4529 91.2366 67.4262C91.2001 67.3996 91.1742 67.3609 91.1635 67.3171C91.0869 66.9645 91.4778 66.5965 91.7921 66.8341C91.8493 66.8754 91.8946 66.9312 91.9232 66.9958C91.9519 67.0603 91.9629 67.1313 91.9551 67.2015C91.9473 67.2716 91.921 67.3385 91.8789 67.3951C91.8368 67.4518 91.7803 67.4963 91.7154 67.524ZM94.3523 75.4423C94.3523 75.8485 93.7697 75.9482 93.6854 75.6799C93.3021 75.335 93.8847 74.8061 94.2756 75.197C94.4596 75.197 94.4749 75.4193 94.3523 75.4423ZM102.784 80.877V80.8157C102.271 80.5244 103.045 79.9648 103.344 80.4861C103.35 80.5034 103.35 80.5224 103.344 80.5397C103.482 80.9306 102.968 81.2066 102.822 80.877H102.784ZM106.923 78.3168C106.893 78.2929 106.871 78.2597 106.862 78.2224C106.852 78.185 106.855 78.1454 106.87 78.1098C106.87 78.1098 106.87 78.0715 106.908 78.0562C106.893 78.0043 106.898 77.9486 106.922 77.9003C106.946 77.852 106.988 77.8146 107.038 77.7955H107.115C107.169 77.6805 107.314 77.7342 107.337 77.8492C107.675 77.9795 107.314 78.5314 106.962 78.3168H106.923ZM106.962 73.0277C105.72 74.4765 104.662 73.6256 101.826 73.7942C98.9898 73.9629 98.9821 69.9616 100.485 68.1909C101.987 66.4202 104.317 68.1909 104.317 68.1909C108.502 69.1567 108.242 71.579 107 73.0277H106.962ZM133.123 34.7012C133.158 34.7297 133.192 34.7605 133.223 34.7932C133.249 34.8189 133.266 34.8517 133.274 34.8875C133.281 34.9232 133.277 34.9603 133.263 34.9939C133.249 35.0276 133.226 35.0564 133.195 35.0766C133.165 35.0968 133.129 35.1075 133.093 35.1074C132.671 35.2148 132.878 34.4482 133.162 34.7318L133.123 34.7012ZM134.404 79.2673C134.326 79.2873 134.245 79.2909 134.165 79.2777C134.086 79.2645 134.011 79.2348 133.944 79.1906C133.911 79.1741 133.885 79.1465 133.871 79.1128C133.857 79.0791 133.856 79.0414 133.867 79.0067C133.881 78.9434 133.91 78.8848 133.953 78.8365C133.996 78.7881 134.051 78.7517 134.112 78.7307C134.154 78.6867 134.208 78.6556 134.267 78.641C134.326 78.6264 134.389 78.6289 134.446 78.6482C134.504 78.6674 134.555 78.7027 134.594 78.7499C134.632 78.797 134.657 78.8542 134.664 78.9147C134.678 78.9945 134.663 79.0766 134.623 79.1467C134.582 79.2168 134.518 79.2703 134.442 79.2979L134.404 79.2673ZM137.976 84.472C136.895 84.472 137.27 82.686 138.305 83.0999C139.424 83.3146 138.888 84.9243 137.976 84.472ZM140.459 77.8492C140.394 77.848 140.331 77.8257 140.28 77.7856C140.229 77.7455 140.192 77.6898 140.175 77.6269C140.126 77.5882 140.09 77.5344 140.073 77.4736C140.057 77.4128 140.06 77.3482 140.083 77.2896C140.198 77.0137 140.566 77.1057 140.697 77.2896C140.827 77.4736 140.766 77.8722 140.474 77.8492H140.459ZM138.926 61.6601C143.433 62.9785 142.398 68.2062 139.946 69.1874C137.493 70.1686 132.51 68.9114 133.269 64.5882C134.028 60.265 138.949 61.6601 138.949 61.6601H138.926ZM129.973 11.9046C130.02 11.9138 130.063 11.939 130.093 11.9761C130.124 12.0132 130.14 12.0597 130.14 12.1077C130.14 12.1557 130.124 12.2022 130.093 12.2393C130.063 12.2763 130.02 12.3016 129.973 12.3108C129.926 12.3016 129.883 12.2763 129.853 12.2393C129.822 12.2022 129.806 12.1557 129.806 12.1077C129.806 12.0597 129.822 12.0132 129.853 11.9761C129.883 11.939 129.926 11.9138 129.973 11.9046ZM128.049 27.1892C128.662 23.6785 132.648 24.8129 132.648 24.8129C136.289 25.8861 135.009 29.8414 133.024 30.6386C131.038 31.4358 127.436 30.6616 128.049 27.1892ZM130.701 34.8545C130.675 34.8477 130.651 34.8324 130.635 34.8109C130.618 34.7894 130.609 34.7629 130.609 34.7357C130.609 34.7084 130.618 34.682 130.635 34.6605C130.651 34.639 130.675 34.6236 130.701 34.6169C130.734 34.6169 130.765 34.6298 130.788 34.6528C130.811 34.6758 130.824 34.707 130.824 34.7395C130.824 34.772 130.811 34.8032 130.788 34.8262C130.765 34.8492 130.734 34.8622 130.701 34.8622V34.8545ZM129.544 38.4265C129.519 38.4265 129.496 38.4168 129.479 38.3996C129.461 38.3823 129.452 38.3589 129.452 38.3345C129.452 38.3101 129.461 38.2867 129.479 38.2695C129.496 38.2522 129.519 38.2426 129.544 38.2426C129.568 38.2426 129.591 38.2522 129.609 38.2695C129.626 38.2867 129.636 38.3101 129.636 38.3345C129.636 38.3589 129.626 38.3823 129.609 38.3996C129.591 38.4168 129.568 38.4265 129.544 38.4265ZM128.777 35.6593C128.532 35.4217 128.777 35.2378 128.961 35.437C129.145 35.6363 128.953 35.7743 128.777 35.6593ZM128.333 31.4741C128.286 31.4741 128.241 31.4555 128.208 31.4224C128.175 31.3894 128.156 31.3445 128.156 31.2978C128.156 31.251 128.175 31.2062 128.208 31.1731C128.241 31.1401 128.286 31.1215 128.333 31.1215C128.356 31.1195 128.379 31.122 128.401 31.129C128.423 31.136 128.444 31.1473 128.462 31.1623C128.48 31.1772 128.494 31.1955 128.505 31.2162C128.516 31.2368 128.522 31.2593 128.524 31.2825C128.526 31.3056 128.524 31.3289 128.517 31.3511C128.51 31.3732 128.498 31.3938 128.483 31.4116C128.468 31.4294 128.45 31.4441 128.43 31.4548C128.409 31.4655 128.386 31.4721 128.363 31.4741H128.333ZM127.459 36.9624C127.49 36.9758 127.516 36.997 127.536 37.024C127.557 37.051 127.569 37.0828 127.573 37.1162C127.577 37.1496 127.572 37.1834 127.559 37.2143C127.545 37.2452 127.524 37.272 127.497 37.2921C127.466 37.3277 127.423 37.3514 127.376 37.3593C127.329 37.3672 127.281 37.3588 127.24 37.3354C127.199 37.3121 127.167 37.2752 127.149 37.231C127.132 37.1868 127.13 37.138 127.144 37.0928C127.19 36.9624 127.382 36.9011 127.489 36.9624H127.459ZM127.244 33.5284C127.227 33.5349 127.208 33.5349 127.19 33.5284C126.777 33.812 126.286 33.1298 126.723 32.9535C126.776 32.8945 126.847 32.8554 126.925 32.8429C127.003 32.8303 127.084 32.845 127.152 32.8845C127.201 32.9201 127.243 32.9652 127.274 33.0172C127.306 33.0691 127.326 33.1269 127.335 33.1869C127.343 33.247 127.34 33.3082 127.324 33.3669C127.309 33.4255 127.281 33.4805 127.244 33.5284ZM126.593 34.6015C126.485 34.6015 126.501 34.4406 126.593 34.4406C126.685 34.4406 126.731 34.6015 126.616 34.6015H126.593ZM126.654 27.9864C126.693 27.9619 126.738 27.9489 126.784 27.9489C126.83 27.9489 126.875 27.9619 126.915 27.9864C126.946 27.991 126.976 28.0051 127 28.0269C127.024 28.0487 127.041 28.0772 127.048 28.1086C127.055 28.14 127.053 28.1729 127.042 28.203C127.03 28.2332 127.01 28.2592 126.983 28.2777C126.957 28.3135 126.924 28.3436 126.886 28.366C126.848 28.3884 126.805 28.4027 126.761 28.408C126.705 28.4191 126.647 28.4077 126.6 28.376C126.552 28.3444 126.519 28.2952 126.508 28.2393C126.497 28.1834 126.509 28.1254 126.54 28.0779C126.572 28.0305 126.621 27.9976 126.677 27.9864H126.654ZM126.692 47.5866C126.692 47.4026 128.601 47.5866 128.785 47.5866C128.969 47.5866 128.777 45.4556 128.777 45.2256C128.777 44.9957 131.728 45.034 132.112 45.1107C132.495 45.1873 132.173 47.4103 132.112 47.5942C132.05 47.7782 131.077 47.5942 130.816 47.5942C130.556 47.5942 130.648 49.8402 130.709 50.1161C130.77 50.3921 131.889 50.2847 131.981 50.2847C132.084 51.1905 132.122 52.1024 132.096 53.0136C132.058 53.3279 128.739 52.8833 128.555 52.845C128.371 52.8066 128.555 51.0819 128.555 50.9516C128.555 50.8213 126.907 50.8826 126.662 50.783C126.416 50.6833 126.662 49.7635 126.662 49.6715C126.218 49.5781 125.766 49.5293 125.312 49.5259C125.197 49.5259 125.274 48.5984 125.312 48.4834C125.351 48.3684 126.493 48.4834 126.493 48.4834C126.692 48.5141 126.677 47.7705 126.715 47.5866H126.692ZM126.002 41.2627C125.993 41.3049 125.974 41.3442 125.946 41.3773C125.918 41.4104 125.883 41.4363 125.843 41.4529C125.803 41.4694 125.76 41.4761 125.717 41.4724C125.674 41.4686 125.632 41.4545 125.596 41.4313C125.389 41.3547 125.504 40.7261 125.857 41.0404C125.883 41.042 125.909 41.0493 125.932 41.0618C125.956 41.0743 125.976 41.0917 125.992 41.1128C126.008 41.1339 126.019 41.1583 126.025 41.1841C126.031 41.21 126.031 41.2368 126.025 41.2627H126.002ZM125.573 33.3061C125.59 33.3016 125.608 33.301 125.625 33.3045C125.642 33.308 125.659 33.3154 125.673 33.3261C125.687 33.3369 125.698 33.3507 125.706 33.3665C125.713 33.3823 125.717 33.3996 125.717 33.4172C125.717 33.4349 125.713 33.4522 125.706 33.468C125.698 33.4838 125.687 33.4976 125.673 33.5084C125.659 33.5191 125.642 33.5265 125.625 33.53C125.608 33.5334 125.59 33.5329 125.573 33.5284C125.45 33.5437 125.45 33.3061 125.596 33.3061H125.573ZM124.669 18.0981C124.781 18.082 124.896 18.1008 124.998 18.1518H125.036C125.198 18.2466 125.316 18.4006 125.366 18.581C125.343 20.4207 123.074 18.7267 124.692 18.0981H124.669ZM125.021 34.6015C125.056 34.6015 125.089 34.6153 125.113 34.6397C125.138 34.6641 125.151 34.6973 125.151 34.7318C125.151 34.7664 125.138 34.7995 125.113 34.824C125.089 34.8484 125.056 34.8622 125.021 34.8622C124.987 34.8591 124.955 34.8424 124.932 34.8159C124.91 34.7893 124.899 34.7549 124.902 34.7203C124.905 34.6858 124.922 34.6538 124.949 34.6316C124.975 34.6093 125.01 34.5985 125.044 34.6015H125.021ZM124.868 31.7654C124.851 31.7654 124.834 31.762 124.819 31.7554C124.804 31.7487 124.79 31.739 124.778 31.7268C124.767 31.7146 124.758 31.7001 124.752 31.6843C124.747 31.6686 124.744 31.6518 124.745 31.6351V31.5814C124.745 31.2441 125.389 31.5277 124.929 31.7654H124.868ZM124.055 29.7647C124.102 29.7739 124.145 29.7992 124.175 29.8363C124.206 29.8733 124.223 29.9198 124.223 29.9679C124.223 30.0159 124.206 30.0624 124.175 30.0994C124.145 30.1365 124.102 30.1618 124.055 30.171C124.008 30.1595 123.967 30.1319 123.938 30.093C123.91 30.0542 123.895 30.0065 123.898 29.9583C123.901 29.9101 123.92 29.8643 123.953 29.829C123.986 29.7936 124.03 29.7709 124.078 29.7647H124.055ZM122.277 61.844C122.331 62.2196 126.355 60.5639 126.968 60.6789C127.581 60.7939 124.669 62.9785 124.592 63.2774C124.515 63.5764 129.045 66.7805 129.045 67.1101C129.045 67.4397 124.592 66.2209 124.37 66.2209C124.147 66.2209 126.34 69.3714 126.746 70.2989C127.152 71.2264 122.223 68.6508 121.533 68.1832C120.844 67.7157 116.436 70.7664 115.731 70.9504C115.026 71.1344 118.713 66.1979 118.866 65.5847C119.019 64.9715 114.19 65.2858 113.37 65.2551C112.55 65.2244 116.789 63.2698 116.789 63.2698L102.493 59.7897C99.4267 61.3228 96.3223 61.2461 92.9035 60.7939C88.4347 60.2037 84.579 56.3787 83.5749 55.3209C90.7802 57.2985 99.0358 57.6664 106.31 57.1375C105.2 58.0613 104.015 58.892 102.769 59.6211C106.31 60.2726 118.03 62.5339 118.099 62.5569C118.168 62.5799 116.819 59.1842 117.08 59.0155C117.341 58.8469 119.563 60.8705 119.954 61.0545C120.345 61.2385 122.898 56.8846 123.289 56.9766C123.68 57.0685 122.246 61.4761 122.3 61.844H122.277ZM115.807 47.142C115.846 47.1315 115.887 47.1309 115.925 47.1403C115.964 47.1497 116 47.1687 116.03 47.1956C116.083 47.1956 116.106 47.3643 116.03 47.4026C115.899 47.5636 115.532 47.3259 115.807 47.142ZM118.59 46.3754C118.609 46.4152 118.611 46.4606 118.597 46.5022C118.582 46.5437 118.553 46.578 118.513 46.5977C118.513 46.5977 118.444 46.6514 118.475 46.5977C118.455 46.6311 118.427 46.6588 118.394 46.678C118.36 46.6973 118.322 46.7074 118.283 46.7074C118.245 46.7074 118.207 46.6973 118.173 46.678C118.139 46.6588 118.111 46.6311 118.092 46.5977C118.073 46.5647 118.064 46.5275 118.064 46.4897C118.064 46.452 118.074 46.4148 118.092 46.3818C118.111 46.3488 118.137 46.3211 118.169 46.3012C118.201 46.2813 118.238 46.2699 118.276 46.2681C118.352 46.3065 118.498 46.1531 118.59 46.3831V46.3754ZM118.329 34.6859C118.329 34.6859 118.575 34.5785 118.613 34.6859C118.626 34.714 118.631 34.7449 118.629 34.7758C118.627 34.8067 118.617 34.8365 118.6 34.8624C118.583 34.8884 118.56 34.9098 118.533 34.9244C118.506 34.9391 118.475 34.9467 118.444 34.9465C118.417 34.9417 118.392 34.9304 118.37 34.9137C118.349 34.8969 118.332 34.8751 118.32 34.8502C118.309 34.8253 118.304 34.7981 118.306 34.7708C118.307 34.7435 118.315 34.7169 118.329 34.6935V34.6859ZM119.311 40.3658C119.479 40.5268 119.257 40.8641 119.019 40.4962C118.958 40.4118 119.211 40.1129 119.311 40.3735V40.3658ZM120.039 41.623C120.088 41.6138 120.137 41.601 120.184 41.5846C120.299 41.5846 120.376 41.7379 120.184 41.8452C119.993 41.9526 119.832 41.6689 120.039 41.6306V41.623ZM122.89 47.2646C122.915 47.2593 122.94 47.2595 122.965 47.2653C122.989 47.2711 123.012 47.2823 123.032 47.2981C123.051 47.3139 123.067 47.3339 123.078 47.3567C123.089 47.3794 123.095 47.4042 123.095 47.4294C123.095 47.4546 123.089 47.4795 123.078 47.5022C123.067 47.5249 123.051 47.5449 123.032 47.5607C123.012 47.5765 122.989 47.5877 122.965 47.5935C122.94 47.5993 122.915 47.5996 122.89 47.5942C122.856 47.5835 122.826 47.5621 122.805 47.5332C122.783 47.5042 122.772 47.4692 122.772 47.4333C122.772 47.3973 122.783 47.3623 122.805 47.3334C122.826 47.3044 122.856 47.283 122.89 47.2723V47.2646ZM122.223 40.5498C122.248 40.5426 122.275 40.5426 122.3 40.5498C122.561 40.3735 122.86 40.8717 122.522 41.0864C122.369 41.163 122.308 41.0864 122.369 41.0864C122.062 41.117 121.978 40.6265 122.223 40.5575V40.5498ZM121.334 45.2946C121.372 45.1337 121.664 45.1337 121.687 45.2946C121.763 45.4403 121.388 45.7392 121.334 45.2946ZM84.6327 24.4603C84.763 24.3837 120.66 24.4603 120.966 24.4603C121.273 24.4603 121.127 27.0589 121.127 27.2198C121.127 27.3808 84.6327 27.2198 84.6327 27.2198C84.4257 27.2198 84.5024 24.5293 84.6327 24.4603ZM81.2523 38.9094C81.293 38.8531 81.3508 38.8115 81.4171 38.7908C81.4834 38.7701 81.5547 38.7714 81.6202 38.7945C81.6503 38.7859 81.6821 38.7859 81.7122 38.7945C81.8655 38.7945 81.8808 38.9631 81.8962 39.0934C81.9192 39.1525 81.9192 39.2182 81.8962 39.2774C81.8962 39.331 81.8425 39.354 81.8042 39.3923L81.7505 39.4613C81.712 39.5002 81.6596 39.5223 81.6049 39.5227C81.5129 39.5227 81.4516 39.5916 81.3443 39.446C81.2622 39.3861 81.2067 39.2965 81.1895 39.1964C81.1723 39.0962 81.1949 38.9933 81.2523 38.9094ZM80.4857 24.7976C80.9303 24.9586 80.8613 27.0205 80.8383 27.6721C80.8383 27.8331 80.5624 27.8177 80.5241 27.6721C80.3619 26.7218 80.3489 25.7519 80.4857 24.7976ZM77.7569 24.6826C79.6119 24.5676 79.9338 26.9286 78.2245 26.7599C78.1708 26.9822 78.4851 28.339 78.0022 28.2087C77.7952 27.1279 77.7799 26.0164 77.5576 24.9432C77.5521 24.9134 77.5528 24.8828 77.5597 24.8533C77.5665 24.8238 77.5792 24.796 77.5972 24.7716C77.6151 24.7472 77.6379 24.7267 77.664 24.7114C77.6902 24.6961 77.7192 24.6863 77.7492 24.6826H77.7569ZM76.1472 32.8078C80.6544 34.1416 78.4468 38.3652 76.0169 39.354C67.7383 42.2668 69.1258 30.6002 76.1395 32.8078H76.1472ZM70.1682 51.5189C70.1682 51.6108 70.0533 51.6645 69.9459 51.6875H69.8693C69.8335 51.6774 69.801 51.6578 69.7754 51.6308C69.7498 51.6039 69.7319 51.5705 69.7236 51.5342C69.6623 51.2123 70.1452 51.1739 70.1682 51.5189ZM69.9843 56.2484C69.9483 56.3884 69.8701 56.514 69.7603 56.6081C69.6506 56.7023 69.5145 56.7604 69.3706 56.7746C69.2267 56.7888 69.0819 56.7585 68.9559 56.6876C68.8298 56.6168 68.7286 56.509 68.6658 56.3787C68.5773 56.2529 68.5398 56.0982 68.5612 55.9458C68.5825 55.7935 68.6611 55.655 68.7808 55.5585C68.9 55.4751 69.0405 55.4273 69.1858 55.4208C69.3311 55.4143 69.4753 55.4492 69.6015 55.5215C69.7276 55.5939 69.8307 55.7006 69.8984 55.8293C69.9662 55.958 69.996 56.1034 69.9843 56.2484ZM68.7195 51.1663C68.7149 51.1982 68.7007 51.228 68.6789 51.2518C68.6571 51.2756 68.6287 51.2923 68.5973 51.2997C68.5659 51.3072 68.533 51.305 68.5028 51.2935C68.4727 51.282 68.4467 51.2617 68.4282 51.2352C68.2826 51.0589 68.7195 50.9516 68.7195 51.1663ZM68.2749 53.6575C68.3516 53.7725 68.3132 53.9028 68.1829 53.9028C68.0526 53.9028 67.999 53.5195 68.2749 53.6575ZM67.6464 48.744C67.6158 48.7638 67.5814 48.7768 67.5454 48.7821C67.5094 48.7874 67.4727 48.7849 67.4378 48.7747C67.4029 48.7645 67.3705 48.7469 67.343 48.7231C67.3155 48.6993 67.2935 48.6698 67.2784 48.6367C67.1634 47.9775 68.0603 48.4757 67.6464 48.7517V48.744ZM66.3816 58.433C66.6269 58.433 66.6269 58.8086 66.3816 58.8086C66.3383 58.7998 66.2993 58.7763 66.2713 58.742C66.2434 58.7078 66.2281 58.665 66.2281 58.6208C66.2281 58.5766 66.2434 58.5337 66.2713 58.4995C66.2993 58.4653 66.3383 58.4418 66.3816 58.433ZM65.5691 55.3209H65.661C65.7684 55.1675 66.121 55.3745 65.8067 55.6888C65.7805 55.7145 65.7493 55.7346 65.715 55.7478C65.6807 55.761 65.6441 55.767 65.6074 55.7654C65.4617 55.8191 65.0325 55.3209 65.5691 55.3209ZM63.6757 55.5048C64.0207 55.3285 64.0207 55.9724 63.6757 55.7961C63.6481 55.7831 63.6247 55.7625 63.6084 55.7367C63.592 55.7109 63.5833 55.681 63.5833 55.6505C63.5833 55.6199 63.592 55.59 63.6084 55.5642C63.6247 55.5384 63.6481 55.5178 63.6757 55.5048ZM62.6409 51.1433C62.7865 51.0513 63.0242 51.2506 62.8249 51.4652C62.7636 51.6185 62.25 51.5265 62.6409 51.1433ZM61.9894 55.9571C62.25 55.9571 62.1733 56.3327 61.9894 56.3327C61.8054 56.3327 61.6904 56.3327 61.6368 56.0721C61.5831 55.8114 61.8974 55.8421 61.9894 55.9571ZM59.2835 53.9028C59.3404 53.9028 59.395 53.9254 59.4353 53.9656C59.4755 54.0059 59.4981 54.0605 59.4981 54.1174C59.4981 54.1743 59.4755 54.2289 59.4353 54.2692C59.395 54.3094 59.3404 54.332 59.2835 54.332C59.2345 54.3226 59.1903 54.2965 59.1585 54.258C59.1267 54.2195 59.1093 54.1712 59.1093 54.1212C59.1093 54.0713 59.1267 54.023 59.1585 53.9845C59.1903 53.946 59.2345 53.9198 59.2835 53.9104V53.9028ZM59.1302 56.463C59.3448 56.5473 59.1302 56.9076 58.9079 56.8309C58.855 56.8045 58.8143 56.7586 58.7943 56.7029C58.7744 56.6473 58.7766 56.586 58.8006 56.532C58.7393 56.6393 58.8926 56.2637 59.1302 56.4706V56.463ZM58.3637 60.357C58.5323 60.0963 59.0152 60.5026 58.5553 60.6712C58.5174 60.6741 58.4795 60.6673 58.445 60.6513C58.4105 60.6353 58.3807 60.6108 58.3584 60.5801C58.3362 60.5493 58.3221 60.5134 58.3177 60.4757C58.3132 60.4379 58.3185 60.3997 58.333 60.3646L58.3637 60.357ZM57.6431 53.3279C57.7 53.3279 57.7546 53.3505 57.7949 53.3907C57.8351 53.431 57.8578 53.4856 57.8578 53.5425C57.8578 53.5994 57.8351 53.654 57.7949 53.6943C57.7546 53.7345 57.7 53.7571 57.6431 53.7571C57.5929 53.752 57.5462 53.7293 57.511 53.6931C57.4759 53.6569 57.4546 53.6095 57.451 53.5592C57.4473 53.5089 57.4615 53.4589 57.491 53.418C57.5206 53.3771 57.5636 53.3479 57.6125 53.3355L57.6431 53.3279ZM56.3247 47.2646C56.6083 47.2646 56.6083 47.6709 56.3247 47.6709C56.2799 47.6625 56.2392 47.6395 56.2088 47.6056C56.1784 47.5717 56.16 47.5287 56.1565 47.4833C56.153 47.4379 56.1646 47.3926 56.1895 47.3545C56.2143 47.3163 56.2511 47.2874 56.294 47.2723L56.3247 47.2646ZM55.9184 54.9759C55.9107 54.9424 55.9117 54.9075 55.9214 54.8745C55.9311 54.8416 55.9492 54.8117 55.9739 54.7878C55.9986 54.7639 56.029 54.7467 56.0623 54.7381C56.0956 54.7294 56.1305 54.7295 56.1637 54.7383C56.2002 54.7442 56.2339 54.7615 56.26 54.7876C56.2862 54.8138 56.3034 54.8475 56.3094 54.8839C56.319 54.9169 56.3196 54.9519 56.311 54.9851C56.3025 55.0184 56.2852 55.0488 56.2609 55.0731C56.2366 55.0974 56.2062 55.1147 56.173 55.1232C56.1397 55.1318 56.1047 55.1312 56.0717 55.1216C56.0365 55.1128 56.0043 55.0947 55.9786 55.069C55.953 55.0433 55.9348 55.0112 55.9261 54.9759H55.9184ZM54.2321 59.3375C54.2704 59.3124 54.3162 59.3012 54.3617 59.3059C54.4073 59.3106 54.4499 59.3308 54.4823 59.3632C54.5147 59.3956 54.5349 59.4382 54.5396 59.4837C54.5443 59.5293 54.5331 59.5751 54.508 59.6134C54.4863 59.6577 54.4524 59.6949 54.4103 59.7207C54.3682 59.7465 54.3197 59.7598 54.2704 59.7591C54.2228 59.7555 54.178 59.735 54.1442 59.7012C54.1105 59.6675 54.09 59.6227 54.0864 59.5751C54.0841 59.5301 54.0934 59.4853 54.1136 59.445C54.1337 59.4047 54.164 59.3703 54.2014 59.3451L54.2321 59.3375ZM52.8906 55.4282C52.932 55.3992 52.9822 55.3857 53.0325 55.3901C53.0828 55.3945 53.1299 55.4165 53.1656 55.4521C53.2013 55.4878 53.2233 55.535 53.2276 55.5853C53.232 55.6356 53.2186 55.6858 53.1896 55.7271C53.1436 55.8344 52.7373 55.7808 52.8906 55.4282ZM50.5144 54.9453C50.5206 54.9035 50.5382 54.8642 50.5652 54.8317C50.5923 54.7993 50.6277 54.7749 50.6677 54.7613C50.6851 54.7671 50.7039 54.7671 50.7214 54.7613C50.7471 54.749 50.776 54.745 50.8042 54.7498C50.8323 54.7546 50.8582 54.7681 50.8784 54.7882C50.8986 54.8084 50.912 54.8343 50.9168 54.8625C50.9216 54.8906 50.9176 54.9195 50.9053 54.9453C50.9118 54.9626 50.9118 54.9816 50.9053 54.9989C50.8911 55.04 50.8656 55.0761 50.8317 55.1033C50.7978 55.1304 50.7569 55.1474 50.7137 55.1522C50.669 55.1522 50.6261 55.1345 50.5944 55.1028C50.5628 55.0712 50.5451 55.0283 50.5451 54.9836L50.5144 54.9453Z" fill="black"/>
<path d="M77.979 25.1118C78.048 25.5181 78.1016 25.9243 78.163 26.3306C79.2744 26.5759 79.2131 25.2268 77.979 25.1118ZM138.152 83.8434C138.176 83.821 138.196 83.7951 138.213 83.7667C138.152 83.7821 138.152 83.8051 138.152 83.8434Z" fill="black"/>
</svg>
